<?xml version="1.0" encoding="utf-8"?>
<!-- Generator: Adobe Illustrator 24.2.1, SVG Export Plug-In . SVG Version: 6.00 Build 0)  -->
<svg version="1.1" id="图层_1" xmlns="http://www.w3.org/2000/svg" xmlns:xlink="http://www.w3.org/1999/xlink" x="0px" y="0px"
	 viewBox="0 0 1930 560" style="enable-background:new 0 0 1930 560;" xml:space="preserve">
<style type="text/css">
	.st0{fill:url(#bg-color_1_);}
	.st1{fill:#FEFEFE;}
</style>
<g id="bg-curve" transform="translate(6.402 -31.336)">
	
		<linearGradient id="bg-color_1_" gradientUnits="userSpaceOnUse" x1="759.194" y1="423.0285" x2="760.1881" y2="423.2335" gradientTransform="matrix(1931.3613 0 0 -556.664 -1466298 235854.25)">
		<stop  offset="0" style="stop-color:#35E1C5"/>
		<stop  offset="1" style="stop-color:#0281D7"/>
	</linearGradient>
	<path id="bg-color" class="st0" d="M-6.4,31.3c8.5,29.7,14.9,60.4,23.5,82.5c8.6,22.1,43.2,94.2,59.2,119.3s37.9,54.9,62.5,81.1
		s77.1,63.3,85.1,68.5c53.8,35.5,101,51.7,148.1,67.5c87.7,29.4,158.6,38.3,201.1,43.3c63.9,7.6,112.1,7.8,160.1,8.1
		c16.5,0.1,84.5,0.2,181.1-8.1c98.9-8.4,172.5-20.9,233.1-31.2c42.9-7.3,141.4-25,267.2-56.4c127.1-31.7,220.8-62.2,296.2-86.7
		c89.3-29,117.2-41.3,212.7-83c0,116.1,0,244.2,0,355.1H-6.4C-6.4,418.7-6.4,204.6-6.4,31.3z"/>
	<path id="curve" class="st1" d="M-6.4,31.3c1.2,5.2,3.6,26,13.4,63.3s19.7,69.6,26,85.7c8.5,21.7,16.3,37.5,19,42.8
		c9.8,19.5,20.8,38.4,33,56.5c18.7,28,40.2,54.1,64,77.9c6.9,6.8,39,37.9,91,70.1c57.1,35.3,106.1,51.9,143,64.2
		c67,22.3,119.9,30.6,162,37c81,12.3,143.8,13.2,189,13.6c62.5,0.6,109.3-2.6,156-5.8c35.7-2.5,89.6-7,155-15.6
		c68.2-9,117.9-18.3,170-28.2c110.3-20.9,194.6-41.4,224-48.7c131.4-32.5,227.7-63.2,286-81.8c93.9-30,155.2-53.1,184-64.2
		c6.3-2.4,11.1-5.3,14.6-6.7v300c-643.3,0-1286.7,0-1930,0V31.3z"/>
</g>
</svg>
