<svg xmlns="http://www.w3.org/2000/svg" xmlns:xlink="http://www.w3.org/1999/xlink" width="52" height="52" viewBox="0 0 52 52"><defs><style>.a{clip-path:url(#a);}.b{fill:#db4437;}.c{fill:url(#b);}.d{fill:rgba(62,39,35,0.15);}.e{fill:#0f9d58;}.f{fill:url(#e);}.g{fill:rgba(38,50,56,0.15);}.h{clip-path:url(#h);}.i{fill:#ffcd40;}.j{fill:url(#i);}.k{clip-path:url(#m);}.l{fill:url(#p);}.m{clip-path:url(#r);}.n{fill:url(#u);}.o{fill:url(#w);}.p{fill:#f1f1f1;}.q{fill:#4285f4;}.r{fill:rgba(62,39,35,0.2);}.s{fill:rgba(255,255,255,0.1);}.t{fill:#3e2723;opacity:0.1;}.u{fill:rgba(255,255,255,0.2);}.v{fill:url(#aa);}.w{fill:none;}.x{filter:url(#ab);}</style><clipPath id="a"><circle cx="20" cy="20" r="20"/></clipPath><linearGradient id="b" x1="0.045" y1="0.621" x2="0.369" y2="0.337" gradientUnits="objectBoundingBox"><stop offset="0" stop-color="#a52714" stop-opacity="0.6"/><stop offset="0.66" stop-color="#a52714" stop-opacity="0"/></linearGradient><linearGradient id="e" x1="0.839" y1="0.878" x2="0.363" y2="0.664" gradientUnits="objectBoundingBox"><stop offset="0" stop-color="#055524" stop-opacity="0.4"/><stop offset="0.33" stop-color="#055524" stop-opacity="0"/></linearGradient><clipPath id="h"><path d="M8,60.735H27.039L35.875,51.9V45.28H20.127L8,24.48Z" transform="translate(-8 -24.48)"/></clipPath><linearGradient id="i" x1="0.326" y1="-0.048" x2="0.486" y2="0.454" gradientUnits="objectBoundingBox"><stop offset="0" stop-color="#ea6100" stop-opacity="0.302"/><stop offset="0.66" stop-color="#ea6100" stop-opacity="0"/></linearGradient><clipPath id="m"><path d="M92.731,56l7.875,13.636L91.77,85.091h20.961V56Z" transform="translate(-91.77 -56)"/></clipPath><radialGradient id="p" cx="-0.049" cy="-0.002" r="4.013" gradientTransform="translate(5.348) scale(0.267 1)" gradientUnits="objectBoundingBox"><stop offset="0" stop-color="#3e2723" stop-opacity="0.2"/><stop offset="1" stop-color="#3e2723" stop-opacity="0"/></radialGradient><clipPath id="r"><path d="M21.97,8v9.168l8.952,15.377,7.873-13.636h20V8Z" transform="translate(-21.97 -8)"/></clipPath><radialGradient id="u" cx="-0.002" cy="0.001" r="1.155" gradientTransform="translate(-1.81) scale(1.18 1)" xlink:href="#p"/><radialGradient id="w" cx="0.103" cy="-0.122" r="1.124" gradientTransform="translate(-15.157) scale(2.014 1)" gradientUnits="objectBoundingBox"><stop offset="0" stop-color="#263238" stop-opacity="0.2"/><stop offset="1" stop-color="#263238" stop-opacity="0"/></radialGradient><radialGradient id="aa" cx="0.149" cy="0.136" r="1.004" gradientUnits="objectBoundingBox"><stop offset="0" stop-color="#fff" stop-opacity="0.102"/><stop offset="1" stop-color="#fff" stop-opacity="0"/></radialGradient><filter id="ab" x="0" y="0" width="52" height="52" filterUnits="userSpaceOnUse"><feOffset dy="2" input="SourceAlpha"/><feGaussianBlur stdDeviation="2" result="ac"/><feFlood flood-opacity="0.322"/><feComposite operator="in" in2="ac"/><feComposite in="SourceGraphic"/></filter></defs><g transform="translate(6 4)"><g class="a"><path class="b" d="M21.97,8V32.545h8.952l7.873-13.636h20V8Z" transform="translate(-18.795 -8)"/><path class="c" d="M21.97,8V32.545h8.952l7.873-13.636h20V8Z" transform="translate(-18.795 -8)"/></g><g class="a"><path class="d" d="M31.084,62.865,22.032,47.34l-.132.227,8.986,15.409Z" transform="translate(-18.741 -38.399)"/></g><g class="a"><path class="e" d="M8,60.735H27.039L35.875,51.9V45.28H20.127L8,24.48Z" transform="translate(-8 -20.735)"/><path class="f" d="M8,60.735H27.039L35.875,51.9V45.28H20.127L8,24.48Z" transform="translate(-8 -20.735)"/></g><g class="a"><path class="g" d="M99.534,116.959l-.189-.109L90.62,132.111h.261l8.659-15.145Z" transform="translate(-71.843 -92.111)"/></g><g class="a"><g class="h" transform="translate(0 3.745)"><path class="i" d="M92.731,56l7.875,13.636L91.77,85.091h20.961V56Z" transform="translate(-72.731 -48.836)"/><path class="j" d="M92.731,56l7.875,13.636L91.77,85.091h20.961V56Z" transform="translate(-72.731 -48.836)"/></g></g><g class="a"><path class="i" d="M92.731,56l7.875,13.636L91.77,85.091h20.961V56Z" transform="translate(-72.731 -45.091)"/><path class="j" d="M92.731,56l7.875,13.636L91.77,85.091h20.961V56Z" transform="translate(-72.731 -45.091)"/></g><g class="a"><g class="k" transform="translate(19.039 10.909)"><path class="b" d="M21.97,8V32.545h8.952l7.873-13.636h20V8Z" transform="translate(-37.834 -18.909)"/><path class="c" d="M21.97,8V32.545h8.952l7.873-13.636h20V8Z" transform="translate(-37.834 -18.909)"/></g></g><g class="a"><path class="l" d="M96,56v4.761L113.818,56Z" transform="translate(-76 -45.091)"/></g><g class="a"><g class="m" transform="translate(3.175)"><path class="e" d="M8,60.735H27.039L35.875,51.9V45.28H20.127L8,24.48Z" transform="translate(-11.175 -20.735)"/><path class="f" d="M8,60.735H27.039L35.875,51.9V45.28H20.127L8,24.48Z" transform="translate(-11.175 -20.735)"/></g></g><g class="a"><path class="n" d="M21.97,48.45,34.981,61.459,30.922,63.8Z" transform="translate(-18.795 -39.257)"/></g><g class="a"><path class="o" d="M91.83,123.463l4.764-17.773,4.059,2.343Z" transform="translate(-72.778 -83.488)"/></g><g class="a"><circle class="p" cx="9" cy="9" r="9" transform="translate(11 11)"/><circle class="q" cx="7" cy="7" r="7" transform="translate(13 13)"/></g><g class="a"><path class="r" d="M65.091,55A9.091,9.091,0,0,0,56,64.091v.227a9.091,9.091,0,0,1,9.091-9.091h20V55Z" transform="translate(-45.091 -44.318)"/><path class="s" d="M35.864,45.28a9.077,9.077,0,0,1-15.73,0h-.009L8,24.48v.227l12.127,20.8h.009a9.077,9.077,0,0,0,15.73,0h.011V45.28Z" transform="translate(-8 -20.735)"/><path class="t" d="M96.614,56c-.039,0-.075,0-.114.007a9.085,9.085,0,0,1,0,18.168c.039,0,.075.007.114.007a9.091,9.091,0,0,0,0-18.182Z" transform="translate(-76.386 -45.091)"/><path class="u" d="M100.686,92.564a9.061,9.061,0,0,0,.8-7.284,8.99,8.99,0,0,1-.88,6.975l0,.009L91.77,107.719h.264l8.657-15.145Z" transform="translate(-72.731 -67.716)"/></g><g class="a"><path class="u" d="M28,8.227A20,20,0,0,1,48,28.114c0-.039,0-.075,0-.114A20,20,0,1,0,8,28c0,.039,0,.075,0,.114A20,20,0,0,1,28,8.227Z" transform="translate(-8 -8)"/><path class="d" d="M28,115.386A20,20,0,0,0,48,95.5c0,.039,0,.075,0,.114a20,20,0,1,1-40,0c0-.039,0-.075,0-.114A20,20,0,0,0,28,115.386Z" transform="translate(-8 -75.614)"/></g><g class="x" transform="matrix(1, 0, 0, 1, -6, -4)"><circle class="v" cx="20" cy="20" r="20" transform="translate(6 4)"/></g><rect class="w" width="40" height="40"/></g></svg>