<svg xmlns="http://www.w3.org/2000/svg" xmlns:xlink="http://www.w3.org/1999/xlink" width="128" height="100" viewBox="0 0 128 100">
  <defs>
    <filter id="Path_3638" x="47.287" y="19.378" width="43.295" height="61.445" filterUnits="userSpaceOnUse">
      <feOffset dy="3" input="SourceAlpha"/>
      <feGaussianBlur stdDeviation="3" result="blur"/>
      <feFlood flood-color="#3d7ffc" flood-opacity="0.369"/>
      <feComposite operator="in" in2="blur"/>
      <feComposite in="SourceGraphic"/>
    </filter>
  </defs>
  <g id="feature-icon-mouse-gesture" transform="translate(-1139 -418)">
    <g id="密码大师" transform="translate(1174.25 435.473)">
      <circle id="Ellipse_274" data-name="Ellipse 274" cx="24.5" cy="24.5" r="24.5" transform="translate(-14.25 15.528)" fill="#4785fb" opacity="0.93"/>
      <path id="Path_3633" data-name="Path 3633" d="M33.425,0A33.644,33.644,0,0,1,66.85,33.859,33.644,33.644,0,0,1,33.425,67.718,33.644,33.644,0,0,1,0,33.859,33.644,33.644,0,0,1,33.425,0Z" transform="translate(-1.227 -3.189)" fill="#bfd6fe" opacity="0.93"/>
      <g transform="matrix(1, 0, 0, 1, -35.25, -17.47)" filter="url(#Path_3638)">
        <path id="Path_3638-2" data-name="Path 3638" d="M228.393,7.782a5.122,5.122,0,0,0-1.381-3.508,4.49,4.49,0,0,0-3.676-1.149,1.9,1.9,0,0,1-1.509-.3,1.573,1.573,0,0,1-.119-1.172,1.265,1.265,0,1,0-2.438-.677,4.063,4.063,0,0,0,.6,3.459,4.036,4.036,0,0,0,3.668,1.217,2.12,2.12,0,0,1,1.7.43,2.547,2.547,0,0,1,.617,1.6l-.311.011V7.7a12.535,12.535,0,0,0-11.383,12.644v10.5a12.648,12.648,0,1,0,25.3,0v-10.5a12.741,12.741,0,0,0-11-12.563m-1.766-.126c.051,0,.1.006.153.006-.072,0-.143,0-.212,0a.422.422,0,0,1,.061-.005ZM236.93,30.85a10.334,10.334,0,0,1-1.258,4.89,10.012,10.012,0,0,1-8.86,5.229A10.118,10.118,0,0,1,216.694,30.85v-7H236.93ZM224.915,20.679V17.718a1.584,1.584,0,0,1,3.162,0v2.961Zm12.015.632h-6.324v-3.6a4.11,4.11,0,1,0-8.221,0v3.6h-5.691v-.968a10.118,10.118,0,1,1,20.236,0v.968Z" transform="translate(-157.87 25.33)" fill="#fff"/>
      </g>
      <path id="Path_3639" data-name="Path 3639" d="M40.962,21.162v3.622c2.755,0,3.8,2.646,3.8,7.786h6.39C51.155,21.052,40.962,21.162,40.962,21.162Z" transform="translate(-7.278 -3.21)" fill="#1b90fb"/>
    </g>
    <rect id="Rectangle_3459" data-name="Rectangle 3459" width="128" height="100" transform="translate(1139 418)" fill="none"/>
  </g>
</svg>
