<svg xmlns="http://www.w3.org/2000/svg" xmlns:xlink="http://www.w3.org/1999/xlink" width="128" height="100" viewBox="0 0 128 100">
  <defs>
    <filter id="路径" x="38.854" y="46.455" width="53.11" height="36.516" filterUnits="userSpaceOnUse">
      <feOffset dy="3" input="SourceAlpha"/>
      <feGaussianBlur stdDeviation="3" result="blur"/>
      <feFlood flood-color="#3d7ffc" flood-opacity="0.369"/>
      <feComposite operator="in" in2="blur"/>
      <feComposite in="SourceGraphic"/>
    </filter>
    <filter id="路径-2" x="43.142" y="30.16" width="53.434" height="37.084" filterUnits="userSpaceOnUse">
      <feOffset dy="3" input="SourceAlpha"/>
      <feGaussianBlur stdDeviation="3" result="blur-2"/>
      <feFlood flood-color="#3d7ffc" flood-opacity="0.369"/>
      <feComposite operator="in" in2="blur-2"/>
      <feComposite in="SourceGraphic"/>
    </filter>
  </defs>
  <g id="feature-icon-snyc" transform="translate(-9224.595 21470)">
    <g id="Group_1389" data-name="Group 1389" transform="translate(8642.219 -22181.424)">
      <g id="Group_1389-2" data-name="Group 1389" transform="translate(601.693 733)">
        <path id="Path_3584" data-name="Path 3584" d="M124.977,356.861v17.19H99.19a17.191,17.191,0,1,1,17.191-17.19Z" transform="translate(-82 -313.884)" fill="#3d7ffc"/>
        <path id="Path_3585" data-name="Path 3585" d="M287.228,121.084a30.035,30.035,0,0,1-11.819,23.907v6.177H257.144a30.084,30.084,0,1,1,30.084-30.084Z" transform="translate(-212.018 -91)" fill="#bfd6fe" opacity="0.93"/>
        <path id="Path_3586" data-name="Path 3586" d="M509.737,238.977m-23.637,0a23.637,23.637,0,1,0,23.637-23.637A23.637,23.637,0,0,0,486.1,238.977Z" transform="translate(-444.197 -202.447)" fill="#bfd6fe" opacity="0.93"/>
      </g>
      <g id="Group_1390" data-name="Group 1390" transform="translate(630.229 747.583)">
        <g transform="matrix(1, 0, 0, 1, -47.85, -36.16)" filter="url(#路径)">
          <path id="路径-3" data-name="路径" d="M6.121.062,5.753.027A1.931,1.931,0,0,1,7.18.583l5.593,3.774a1.438,1.438,0,0,1,.778,1.966A2.141,2.141,0,0,1,11.6,7.5a1.428,1.428,0,0,1-1.17-.392L8.239,5.644A11.447,11.447,0,0,0,9.263,7.9,12.159,12.159,0,0,0,25.645,13,12.983,12.983,0,0,0,31.5,6.715c.392-.79,1.562-1.574,2.34-1.182S35.4,7.113,35.006,7.9a17.742,17.742,0,0,1-7.413,8.647,21.1,21.1,0,0,1-6.465,1.907l-1.334.064A15.52,15.52,0,0,1,5.753,9.868,19.776,19.776,0,0,1,4.746,7.452L3.412,9.47c-.392,0-.778.4-1.562.4a2.016,2.016,0,0,1-1.556-.79,1.79,1.79,0,0,1,0-1.966L3.822,1.765l.018-.187a1.855,1.855,0,0,1,.5-1L4.19.823A1.65,1.65,0,0,1,6.121.062Z" transform="translate(47.85 52.45)" fill="#fff"/>
        </g>
        <g transform="matrix(1, 0, 0, 1, -47.85, -36.16)" filter="url(#路径-2)">
          <path id="路径-4" data-name="路径" d="M29.155,8.465A19.32,19.32,0,0,1,30.53,12.1l1.357-2.059a1.813,1.813,0,0,1,2.732-.4,1.841,1.841,0,0,1,.386,2.75l-3.9,5.909a2.294,2.294,0,0,1-1.135.737l-.427.047a1.415,1.415,0,0,1-1.17-.4l-.269-.176-5.581-3.756A1.844,1.844,0,0,1,22.134,12a1.813,1.813,0,0,1,2.732-.4l2.188,1.463a10.906,10.906,0,0,0-1.018-2.247C23.3,4.925,15.9,2.561,9.655,5.709A13,13,0,0,0,3.8,12c-.392.784-1.562,1.574-2.34,1.176-.392,0-.778-.392-1.17-1.176-.392-.4-.392-.79,0-1.58A17.767,17.767,0,0,1,7.707,1.777C15.506-2.155,25.258.6,29.155,8.465Z" transform="translate(52.14 36.16)" fill="#fff"/>
        </g>
      </g>
    </g>
    <rect id="Rectangle_3455" data-name="Rectangle 3455" width="128" height="100" transform="translate(9224.595 -21470)" fill="none"/>
  </g>
</svg>
