<svg xmlns="http://www.w3.org/2000/svg" width="42" height="42" viewBox="0 0 42 42">
  <g id="icon_star" transform="translate(-9066 19802)">
    <rect id="Rectangle_3450" data-name="Rectangle 3450" width="42" height="42" transform="translate(9066 -19802)" fill="none"/>
    <g id="Path_3669" data-name="Path 3669" transform="translate(9064 -19803.457)" fill="none">
      <path d="M21.188,3.879a2,2,0,0,1,3.624,0l4.621,9.893a2,2,0,0,0,1.561,1.138l10.8,1.366a2,2,0,0,1,1.122,3.439l-7.956,7.5a2,2,0,0,0-.592,1.829l2.048,10.763a2,2,0,0,1-2.934,2.124l-9.515-5.269a2,2,0,0,0-1.938,0l-9.515,5.269a2,2,0,0,1-2.934-2.124l2.048-10.763a2,2,0,0,0-.592-1.829l-7.956-7.5A2,2,0,0,1,4.2,16.275l10.8-1.366a2,2,0,0,0,1.561-1.138Z" stroke="none"/>
      <path d="M 22.99999809265137 7.088314056396484 L 19.28490257263184 15.04130935668945 C 18.55409240722656 16.60577011108398 17.09504127502441 17.66908073425293 15.3819522857666 17.88566017150879 L 6.68206787109375 18.98558235168457 L 13.09684371948242 25.03664970397949 C 14.34490203857422 26.21393966674805 14.89852142333984 27.92304992675781 14.57778167724609 29.6085205078125 L 12.92819595336914 38.27676773071289 L 20.57792282104492 34.04098892211914 C 21.31730270385742 33.6315803527832 22.15484237670898 33.41518020629883 23.00000190734863 33.41518020629883 C 23.84516143798828 33.41518020629883 24.68269157409668 33.6315803527832 25.42206192016602 34.04098129272461 L 33.07180023193359 38.27676391601562 L 31.42222213745117 29.6085205078125 C 31.10147094726562 27.92304992675781 31.65509223937988 26.21393966674805 32.90315246582031 25.03664016723633 L 39.31792449951172 18.98558235168457 L 30.61805152893066 17.88566017150879 C 28.90495109558105 17.66908073425293 27.44590187072754 16.60577011108398 26.7150821685791 15.04129981994629 L 22.99999809265137 7.088314056396484 M 23 2.725543975830078 C 23.72640419006348 2.725543975830078 24.45280647277832 3.110054016113281 24.81204223632812 3.879081726074219 L 29.43315124511719 13.77161026000977 C 29.72375106811523 14.39369964599609 30.31314086914062 14.8232307434082 30.99433135986328 14.90934944152832 L 41.79615020751953 16.27502059936523 C 43.47293090820312 16.48700904846191 44.14710235595703 18.55434036254883 42.91765213012695 19.71408081054688 L 34.96170043945312 27.21892929077148 C 34.46503067016602 27.68744087219238 34.24169158935547 28.37694931030273 34.36933135986328 29.04767990112305 L 36.41753387451172 39.81060791015625 C 36.7343635559082 41.47549057006836 34.96660232543945 42.75514984130859 33.48396301269531 41.93418884277344 L 23.96882247924805 36.66550064086914 C 23.36606216430664 36.33174133300781 22.63394355773926 36.33174133300781 22.03117179870605 36.66550064086914 L 12.51603317260742 41.93418884277344 C 11.03340911865234 42.75514602661133 9.265640258789062 41.47548294067383 9.582462310791016 39.81060791015625 L 11.63067245483398 29.04767990112305 C 11.7583122253418 28.37694931030273 11.53496170043945 27.68744087219238 11.03829193115234 27.21892929077148 L 3.082340240478516 19.71408081054688 C 1.852890014648438 18.55434036254883 2.527072906494141 16.48700904846191 4.203842163085938 16.27502059936523 L 15.00566101074219 14.90934944152832 C 15.68685150146484 14.8232307434082 16.27624130249023 14.39369964599609 16.56684112548828 13.77161026000977 L 21.18795204162598 3.879081726074219 C 21.54719161987305 3.110054016113281 22.27359771728516 2.725543975830078 23 2.725543975830078 Z" stroke="none" fill="#4246fd"/>
    </g>
  </g>
</svg>
