<svg xmlns="http://www.w3.org/2000/svg" width="32" height="32" viewBox="0 0 32 32">
  <g id="icon-win32" transform="translate(-64 -510)">
    <rect id="Rectangle_22" data-name="Rectangle 22" width="32" height="32" transform="translate(64 510)" fill="none"/>
    <path id="Subtraction_225" data-name="Subtraction 225" d="M-9381.071,24157.832h0l-1.241-.172v-7.586h3.5a6.969,6.969,0,0,0-2.636,5.471,7,7,0,0,0,.381,2.285Zm-2.1-.287h0l-7.821-1.078v-6.393h7.822v7.471Zm5.969-8.436h-5.107v-7.676l10.412-1.432v9.023a6.949,6.949,0,0,0-2.547-.479,6.991,6.991,0,0,0-2.758.561Zm-5.969,0H-9391v-6.482l7.822-1.078v7.561Z" transform="translate(9461.452 -23623.547)" fill="#1a1743"/>
    <path id="Path_3721" data-name="Path 3721" d="M-6.647-8.625a2.284,2.284,0,0,0,.764-.121,1.383,1.383,0,0,0,.462-.241,1.253,1.253,0,0,0,.4-.523,1.066,1.066,0,0,0,.06-.221.178.178,0,0,0,.02-.08s0-.007,0-.02V-11.2q0-.06,0-.121a1.023,1.023,0,0,0-.02-.2,1.183,1.183,0,0,0-.241-.462.853.853,0,0,0,.261-.643v-1.729s0-.007,0-.02a.178.178,0,0,0-.02-.08q-.02-.1-.04-.221a1.181,1.181,0,0,0-.422-.543A2.027,2.027,0,0,0-5.9-15.46a2.21,2.21,0,0,0-.8-.1,1.852,1.852,0,0,0-1.246.442,1.083,1.083,0,0,0-.4.764v1.045h1.347v-1.025l.02-.02a.154.154,0,0,1,.02-.06h.02l.02-.02.04-.04q.08-.02.221-.04a.69.69,0,0,1,.281.04.2.2,0,0,1,.1.161v1.709a.018.018,0,0,1-.02.02q0,.02-.04.04a.484.484,0,0,1-.241.04h-.583v1.065h.764a.218.218,0,0,1,.08.04.082.082,0,0,1,.02.06.154.154,0,0,1,.02.06v1.427a.058.058,0,0,0-.02.04.13.13,0,0,1-.06.08.534.534,0,0,1-.3.06.892.892,0,0,1-.281-.06q-.04-.02-.04-.04a.058.058,0,0,1-.02-.04v-1.065H-8.355v1.146l.04.2a1.1,1.1,0,0,0,.342.482,1.224,1.224,0,0,0,.462.281,2.1,2.1,0,0,0,.8.141Zm3.739-5.407a.178.178,0,0,1,.02-.08l.04-.121a.422.422,0,0,1,.141-.221.018.018,0,0,0,.02-.02.154.154,0,0,0,.06-.02,1.249,1.249,0,0,1,.241-.02.78.78,0,0,1,.1.04.018.018,0,0,1,.02.02h.02v.02a.853.853,0,0,1,.1.563,2.8,2.8,0,0,1-.121.683l-1.528,4.6H-.817V-9.67H-2.144l1.065-3.216v-.04a.178.178,0,0,0,.02-.08,1.146,1.146,0,0,0,.06-.2,4.735,4.735,0,0,0,.08-.563,1.851,1.851,0,0,0-.3-1.286A1.409,1.409,0,0,0-2.285-15.6a1.77,1.77,0,0,0-.764.08,1.2,1.2,0,0,0-.482.261,1.572,1.572,0,0,0-.523.744,2,2,0,0,0-.06.3.331.331,0,0,0-.02.1v.945h1.226Z" transform="translate(91.308 543)" fill="#1a1743"/>
  </g>
</svg>
