<svg xmlns="http://www.w3.org/2000/svg" width="48" height="48" viewBox="0 0 48 48">
  <g id="icon_setting" transform="translate(-9044 22176)">
    <rect id="Rectangle_3439" data-name="Rectangle 3439" width="48" height="48" transform="translate(9044 -22176)" fill="none"/>
    <g id="Group_3537" data-name="Group 3537" transform="translate(8974.143 -22275.262)">
      <path id="Path_2461" data-name="Path 2461" d="M340.385,337.8a7.668,7.668,0,1,0,0,15.336,8.031,8.031,0,0,0,1.387-.135,1.442,1.442,0,0,0-.252-2.863,1.465,1.465,0,0,0-.267.025,4.979,4.979,0,0,1-.864.09,4.785,4.785,0,1,1,4.828-4.785,4.459,4.459,0,0,1-.091.852A1.446,1.446,0,0,0,346.3,348a1.509,1.509,0,0,0,.265.024A1.447,1.447,0,0,0,348,346.843a7.318,7.318,0,0,0,.137-1.371,7.564,7.564,0,0,0-2.27-5.419A7.744,7.744,0,0,0,340.385,337.8Z" transform="translate(-246.525 -222.211)" fill="#222529"/>
      <path id="Path_2462" data-name="Path 2462" d="M113.733,119.95a1.343,1.343,0,0,0-1.027-1.052,6.878,6.878,0,0,1-4.469-3.257,6.754,6.754,0,0,1-.623-5.448,1.317,1.317,0,0,0-.407-1.4,19.836,19.836,0,0,0-6.449-3.681,1.36,1.36,0,0,0-1.434.352,6.974,6.974,0,0,1-10.155,0,1.387,1.387,0,0,0-1.437-.352,19.826,19.826,0,0,0-6.447,3.686,1.329,1.329,0,0,0-.407,1.4,6.741,6.741,0,0,1-.619,5.452,6.865,6.865,0,0,1-4.468,3.257,1.353,1.353,0,0,0-1.027,1.054,19.029,19.029,0,0,0,0,7.352,1.343,1.343,0,0,0,1.026,1.052,6.879,6.879,0,0,1,4.469,3.256,6.742,6.742,0,0,1,.618,5.452,1.341,1.341,0,0,0,.408,1.4,19.861,19.861,0,0,0,6.448,3.682,1.364,1.364,0,0,0,1.432-.35,6.975,6.975,0,0,1,10.157,0,1.359,1.359,0,0,0,.991.427,1.424,1.424,0,0,0,.447-.073,19.865,19.865,0,0,0,6.447-3.683,1.337,1.337,0,0,0,.407-1.4,6.727,6.727,0,0,1,.622-5.451,6.861,6.861,0,0,1,4.469-3.256,1.354,1.354,0,0,0,1.026-1.052,19.066,19.066,0,0,0,0-7.356ZM104.179,136.2a16.069,16.069,0,0,1-3.891,2.222,9.192,9.192,0,0,0-12.087,0A16.076,16.076,0,0,1,84.31,136.2a8.867,8.867,0,0,0-1.036-6.31,9.078,9.078,0,0,0-5.015-4.044,15.239,15.239,0,0,1,0-4.448,9.08,9.08,0,0,0,5.015-4.044,8.912,8.912,0,0,0,1.035-6.309,16.08,16.08,0,0,1,3.891-2.222,9.188,9.188,0,0,0,12.087,0,16.078,16.078,0,0,1,3.891,2.222,8.9,8.9,0,0,0,1.032,6.309,9.078,9.078,0,0,0,5.015,4.044,15.516,15.516,0,0,1,.163,2.228,14.476,14.476,0,0,1-.159,2.217,9.078,9.078,0,0,0-5.015,4.043A8.929,8.929,0,0,0,104.179,136.2Z" transform="translate(-0.39 -0.365)" fill="#222529"/>
      <path id="Path_2463" data-name="Path 2463" d="M7.755,0A7.72,7.72,0,0,0,0,7.668a7.721,7.721,0,0,0,7.755,7.668A8.028,8.028,0,0,0,9.142,15.2a1.442,1.442,0,0,0-.252-2.863,1.469,1.469,0,0,0-.267.025,4.979,4.979,0,0,1-.864.09,4.785,4.785,0,1,1,4.828-4.785,4.458,4.458,0,0,1-.091.852A1.446,1.446,0,0,0,13.671,10.2a1.506,1.506,0,0,0,.265.024,1.447,1.447,0,0,0,1.432-1.183,7.319,7.319,0,0,0,.137-1.371,7.564,7.564,0,0,0-2.27-5.42A7.744,7.744,0,0,0,7.755,0Z" transform="translate(101.61 130.929) rotate(-180)" fill="#222529"/>
    </g>
  </g>
</svg>
