<svg xmlns="http://www.w3.org/2000/svg" width="48" height="48" viewBox="0 0 48 48">
  <g id="icon_extension" transform="translate(-9185 22114)">
    <rect id="Rectangle_3443" data-name="Rectangle 3443" width="48" height="48" transform="translate(9185 -22114)" fill="none"/>
    <path id="Path_3671" data-name="Path 3671" d="M19.424,38.1V35.242a3.615,3.615,0,0,0-7.228,0V38.1H3.962A3.964,3.964,0,0,1,0,34.142V25.9H2.862a3.613,3.613,0,0,0,0-7.225H0V10.439A3.961,3.961,0,0,1,3.947,6.473h5.13a6.747,6.747,0,0,1,13.483,0h5.1a3.979,3.979,0,0,1,3.963,3.967v5.1a6.747,6.747,0,0,1,0,13.484v5.1A3.972,3.972,0,0,1,27.676,38.1Zm.4-.4h7.851a3.565,3.565,0,0,0,3.545-3.565v-5.5h.126A6.347,6.347,0,0,0,37.7,22.422a6.348,6.348,0,0,1-6.351,6.211h-.126v5.5A3.565,3.565,0,0,1,27.674,37.7H19.823Zm-15.866,0H11.8V35.237a4.015,4.015,0,0,1,3.918-3.917h0A4.015,4.015,0,0,0,11.8,35.237v2.458H3.957Zm-.045,0h0Zm-.046,0h0Zm-.046,0h0Zm18.338-2.329.009-.126Zm-18.21,0h0Zm15.875-.124Zm-3.876-6.626a6.75,6.75,0,0,1,6.61,6.352h5.106a.829.829,0,0,0,.816-.828V25.9h2.86a3.613,3.613,0,0,0,0-7.225h-2.86V10.439a.831.831,0,0,0-.825-.83h-8.23V6.745a3.609,3.609,0,1,0-7.219,0V9.607H3.959a.824.824,0,0,0-.825.822v5.117a6.747,6.747,0,0,1,0,13.483v5.1a.823.823,0,0,0,.24.586.8.8,0,0,0,.572.242H9.081a6.749,6.749,0,0,1,6.733-6.35ZM.418,34.506c0-.023,0-.047-.006-.07C.414,34.459.416,34.483.418,34.506Zm-.008-.09v0Zm0-.045c0-.024,0-.048,0-.071C.4,34.323.406,34.347.407,34.371ZM.4,34.142Zm2.335-.01v-5.5h.128A6.348,6.348,0,0,0,9.21,22.286a6.348,6.348,0,0,1-6.348,6.348H2.734Zm13.129-2.813h0ZM11.852,30.4a6.321,6.321,0,0,1,4.087-1.389l-.125,0A6.319,6.319,0,0,0,11.852,30.4ZM37.7,22.291Zm-8.819-4.018h2.461a4.012,4.012,0,0,1,4.01,4.01,4.012,4.012,0,0,0-4.01-4.01ZM.4,18.274H2.862a4.011,4.011,0,0,1,4.01,4.01,4.011,4.011,0,0,0-4.01-4.01Zm30.82-2.335v0ZM2.734,10.428v0ZM19.823,9.21h7.832a1.228,1.228,0,0,1,1.223,1.229A1.228,1.228,0,0,0,27.655,9.21ZM2.735,10.385A1.221,1.221,0,0,1,3.959,9.207h7.846V6.745a4.009,4.009,0,1,1,8.018,0,4.009,4.009,0,1,0-8.018,0V9.207H3.954A1.221,1.221,0,0,0,2.735,10.385Zm19.43-3.51v0Z" transform="translate(9191.601 -22110.049)" fill="#212121"/>
  </g>
</svg>
