<svg xmlns="http://www.w3.org/2000/svg" width="48" height="48" viewBox="0 0 48 48">
  <g id="icon_tab_searching" transform="translate(-9116 22176)">
    <rect id="Rectangle_3438" data-name="Rectangle 3438" width="48" height="48" transform="translate(9116 -22176)" fill="none"/>
    <g id="Group_3538" data-name="Group 3538" transform="translate(9095.864 -22181.281)">
      <path id="Path_3555" data-name="Path 3555" d="M710.77,414.218l-5.281-5.278a7.45,7.45,0,0,0,1.344-4.323,7.679,7.679,0,1,0-7.681,7.681,7.433,7.433,0,0,0,4.319-1.344l5.278,5.278a1.392,1.392,0,0,0,2.017,0,1.257,1.257,0,0,0,0-2.014Zm-11.523-4.8a4.8,4.8,0,1,1,4.8-4.8A4.753,4.753,0,0,1,699.248,409.418Z" transform="translate(-643.136 -371.042)" fill="#222529"/>
      <path id="Path_3556" data-name="Path 3556" d="M48.435,42.7H28.757V25.417H48.435a1.44,1.44,0,1,0,0-2.881H28.757V15.82h28.8V21.1a1.44,1.44,0,0,0,2.881,0V14.859a1.926,1.926,0,0,0-1.919-1.919H27.8a1.926,1.926,0,0,0-1.919,1.919v28.8A1.922,1.922,0,0,0,27.8,45.573H48.435a1.439,1.439,0,1,0,0-2.878Z" fill="#222529"/>
      <path id="Path_3557" data-name="Path 3557" d="M211.393,155.183a1.577,1.577,0,0,0,0,3.141h.961a1.577,1.577,0,0,0,0-3.141Zm-6.719,0a1.577,1.577,0,0,0,0,3.141h.961a1.577,1.577,0,0,0,0-3.141Zm-6.719,0a1.577,1.577,0,0,0,0,3.141h.961a1.577,1.577,0,0,0,0-3.141Z" transform="translate(-164.878 -137.443)" fill="#222529"/>
    </g>
  </g>
</svg>
