<svg xmlns="http://www.w3.org/2000/svg" width="48" height="48" viewBox="0 0 48 48">
  <g id="icon_qa" transform="translate(-9242 22114)">
    <g id="quickaccess_sync" transform="translate(9242 -22114)">
      <rect id="Rectangle_1170" data-name="Rectangle 1170" width="48" height="48" fill="none"/>
      <g id="q" transform="translate(17339.109 12499.106)" fill="none">
        <path d="M-17306.336-12462.108a1.09,1.09,0,0,1-1.027-1.148v-9.211a1.1,1.1,0,0,1,1.027-1.152h8.2a1.09,1.09,0,0,1,1.023,1.152v9.211a1.084,1.084,0,0,1-1.023,1.148Zm-12.812,0a1.093,1.093,0,0,1-1.035-1.148v-9.211a1.1,1.1,0,0,1,1.035-1.152h8.2a1.093,1.093,0,0,1,1.027,1.152v9.211a1.087,1.087,0,0,1-1.027,1.148Zm-12.824,0a1.087,1.087,0,0,1-1.027-1.148v-9.211a1.093,1.093,0,0,1,1.027-1.152h8.207a1.1,1.1,0,0,1,1.027,1.152v9.211a1.1,1.1,0,0,1-1.027,1.148Zm25.637-14.387a1.1,1.1,0,0,1-1.027-1.152v-9.2a1.1,1.1,0,0,1,1.027-1.152h8.2a1.09,1.09,0,0,1,1.023,1.152v9.2a1.09,1.09,0,0,1-1.023,1.152Zm-12.812,0a1.1,1.1,0,0,1-1.035-1.152v-9.2a1.1,1.1,0,0,1,1.035-1.152h8.2a1.093,1.093,0,0,1,1.027,1.152v9.2a1.093,1.093,0,0,1-1.027,1.152Zm-12.824,0a1.093,1.093,0,0,1-1.027-1.152v-9.2a1.093,1.093,0,0,1,1.027-1.152h8.207a1.1,1.1,0,0,1,1.027,1.152v9.2a1.1,1.1,0,0,1-1.027,1.152Z" stroke="none"/>
        <path d="M -17299.712890625 -12464.7080078125 L -17299.712890625 -12471.0205078125 L -17304.763671875 -12471.0205078125 L -17304.763671875 -12464.7080078125 L -17299.712890625 -12464.7080078125 M -17312.525390625 -12464.7080078125 L -17312.525390625 -12471.0205078125 L -17317.583984375 -12471.0205078125 L -17317.583984375 -12464.7080078125 L -17312.525390625 -12464.7080078125 M -17325.337890625 -12464.7080078125 L -17325.337890625 -12471.0205078125 L -17330.400390625 -12471.0205078125 L -17330.400390625 -12464.7080078125 L -17325.337890625 -12464.7080078125 M -17299.712890625 -12479.0947265625 L -17299.712890625 -12485.3994140625 L -17304.763671875 -12485.3994140625 L -17304.763671875 -12479.0947265625 L -17299.712890625 -12479.0947265625 M -17312.525390625 -12479.0947265625 L -17312.525390625 -12485.3994140625 L -17317.583984375 -12485.3994140625 L -17317.583984375 -12479.0947265625 L -17312.525390625 -12479.0947265625 M -17325.337890625 -12479.0947265625 L -17325.337890625 -12485.3994140625 L -17330.400390625 -12485.3994140625 L -17330.400390625 -12479.0947265625 L -17325.337890625 -12479.0947265625 M -17298.13671875 -12462.1083984375 L -17306.3359375 -12462.1083984375 C -17306.90234375 -12462.1083984375 -17307.36328125 -12462.6162109375 -17307.36328125 -12463.2568359375 L -17307.36328125 -12472.4677734375 C -17307.36328125 -12473.1044921875 -17306.90234375 -12473.6201171875 -17306.3359375 -12473.6201171875 L -17298.13671875 -12473.6201171875 C -17297.56640625 -12473.6201171875 -17297.11328125 -12473.1044921875 -17297.11328125 -12472.4677734375 L -17297.11328125 -12463.2568359375 C -17297.11328125 -12462.6162109375 -17297.56640625 -12462.1083984375 -17298.13671875 -12462.1083984375 Z M -17310.953125 -12462.1083984375 L -17319.1484375 -12462.1083984375 C -17319.71875 -12462.1083984375 -17320.18359375 -12462.6162109375 -17320.18359375 -12463.2568359375 L -17320.18359375 -12472.4677734375 C -17320.18359375 -12473.1044921875 -17319.71875 -12473.6201171875 -17319.1484375 -12473.6201171875 L -17310.953125 -12473.6201171875 C -17310.3828125 -12473.6201171875 -17309.92578125 -12473.1044921875 -17309.92578125 -12472.4677734375 L -17309.92578125 -12463.2568359375 C -17309.92578125 -12462.6162109375 -17310.3828125 -12462.1083984375 -17310.953125 -12462.1083984375 Z M -17323.765625 -12462.1083984375 L -17331.97265625 -12462.1083984375 C -17332.54296875 -12462.1083984375 -17333 -12462.6162109375 -17333 -12463.2568359375 L -17333 -12472.4677734375 C -17333 -12473.1044921875 -17332.54296875 -12473.6201171875 -17331.97265625 -12473.6201171875 L -17323.765625 -12473.6201171875 C -17323.2109375 -12473.6201171875 -17322.73828125 -12473.1044921875 -17322.73828125 -12472.4677734375 L -17322.73828125 -12463.2568359375 C -17322.73828125 -12462.6162109375 -17323.2109375 -12462.1083984375 -17323.765625 -12462.1083984375 Z M -17298.13671875 -12476.4951171875 L -17306.3359375 -12476.4951171875 C -17306.90234375 -12476.4951171875 -17307.36328125 -12477.0107421875 -17307.36328125 -12477.6474609375 L -17307.36328125 -12486.8466796875 C -17307.36328125 -12487.4833984375 -17306.90234375 -12487.9990234375 -17306.3359375 -12487.9990234375 L -17298.13671875 -12487.9990234375 C -17297.56640625 -12487.9990234375 -17297.11328125 -12487.4833984375 -17297.11328125 -12486.8466796875 L -17297.11328125 -12477.6474609375 C -17297.11328125 -12477.0107421875 -17297.56640625 -12476.4951171875 -17298.13671875 -12476.4951171875 Z M -17310.953125 -12476.4951171875 L -17319.1484375 -12476.4951171875 C -17319.71875 -12476.4951171875 -17320.18359375 -12477.0107421875 -17320.18359375 -12477.6474609375 L -17320.18359375 -12486.8466796875 C -17320.18359375 -12487.4833984375 -17319.71875 -12487.9990234375 -17319.1484375 -12487.9990234375 L -17310.953125 -12487.9990234375 C -17310.3828125 -12487.9990234375 -17309.92578125 -12487.4833984375 -17309.92578125 -12486.8466796875 L -17309.92578125 -12477.6474609375 C -17309.92578125 -12477.0107421875 -17310.3828125 -12476.4951171875 -17310.953125 -12476.4951171875 Z M -17323.765625 -12476.4951171875 L -17331.97265625 -12476.4951171875 C -17332.54296875 -12476.4951171875 -17333 -12477.0107421875 -17333 -12477.6474609375 L -17333 -12486.8466796875 C -17333 -12487.4833984375 -17332.54296875 -12487.9990234375 -17331.97265625 -12487.9990234375 L -17323.765625 -12487.9990234375 C -17323.2109375 -12487.9990234375 -17322.73828125 -12487.4833984375 -17322.73828125 -12486.8466796875 L -17322.73828125 -12477.6474609375 C -17322.73828125 -12477.0107421875 -17323.2109375 -12476.4951171875 -17323.765625 -12476.4951171875 Z" stroke="none" fill="#212121"/>
      </g>
    </g>
  </g>
</svg>
