<svg xmlns="http://www.w3.org/2000/svg" width="48" height="48" viewBox="0 0 48 48">
  <g id="icon_password" transform="translate(-9044 22249)">
    <rect id="Rectangle_3436" data-name="Rectangle 3436" width="48" height="48" transform="translate(9044 -22249)" fill="none"/>
    <path id="Fill_1" data-name="Fill 1" d="M18.522,38.411h-.1A18.538,18.538,0,0,1,12.8,37.186l-2.477-1.1L14.943,26a8.3,8.3,0,0,1-2.751-10.253,8.125,8.125,0,0,1,7.348-4.764,7.925,7.925,0,0,1,3.42.774,8.32,8.32,0,0,1,3.918,10.959,8.1,8.1,0,0,1-7.326,4.741,7.962,7.962,0,0,1-2.16-.3L16.231,29.69a10.463,10.463,0,0,0,2.077.447,1.527,1.527,0,0,1,.634.138A1.389,1.389,0,0,1,19.6,32.1a1.352,1.352,0,0,1-1.225.79h-.037a13.268,13.268,0,0,1-3.255-.689l-1.141,2.489a15.848,15.848,0,0,0,4.7.985,1.357,1.357,0,0,1,.769.253l.081.049a1.256,1.256,0,0,1,.452,1.778C19.627,38.307,19.2,38.411,18.522,38.411Zm1.015-24.678a5.42,5.42,0,0,0-4.9,3.175,5.546,5.546,0,0,0,2.613,7.306,5.284,5.284,0,0,0,2.279.516,5.42,5.42,0,0,0,4.9-3.175,5.549,5.549,0,0,0-2.613-7.306A5.284,5.284,0,0,0,19.537,13.733ZM23.55,37.889h-.025a1.311,1.311,0,0,1-.657-.164,1.253,1.253,0,0,1-.374-1.786,1.3,1.3,0,0,1,.553-.5,16.689,16.689,0,0,0,10.6-8.153,1.371,1.371,0,0,1,.962-.752,1.338,1.338,0,0,1,.243-.022A1.337,1.337,0,0,1,36.1,28.336a3.172,3.172,0,0,1-.138.323,18.754,18.754,0,0,1-11.574,9.112A3.448,3.448,0,0,1,23.55,37.889Zm-.44-5.454a1.451,1.451,0,0,1-.619-.144,1.408,1.408,0,0,1,.277-2.619,10.729,10.729,0,0,0,6.559-5.793,11.06,11.06,0,0,0,.732-7.081c-.042-.141-.087-.264-.126-.373a1.736,1.736,0,0,1-.153-.768,1.365,1.365,0,0,1,1.349-1.277q.047,0,.094,0a1.326,1.326,0,0,1,1.017.637c1.273,2.693,1.09,6.626-.467,10.02A13.627,13.627,0,0,1,23.6,32.335,1.224,1.224,0,0,1,23.11,32.435ZM6.187,32.278a1.334,1.334,0,0,1-.577-.13,1.382,1.382,0,0,1-.651-1.826,1.337,1.337,0,0,1,.412-.5A5.665,5.665,0,0,0,6.607,28.1a5.73,5.73,0,0,0-.081-4.915,13.958,13.958,0,0,1,.014-7.634A1.332,1.332,0,0,1,9,15.015a1.423,1.423,0,0,1,.147,1.224,11.1,11.1,0,0,0,.23,6.753,8.51,8.51,0,0,1-.337,6.266A8.32,8.32,0,0,1,7.1,31.908l-.017.017-.112.1A1.343,1.343,0,0,1,6.187,32.278ZM1.33,30.117a1.3,1.3,0,0,1-.562-.127,1.369,1.369,0,0,1-.645-1.8A1.44,1.44,0,0,1,.3,27.924a4.093,4.093,0,0,0,.72-1.054A4.119,4.119,0,0,0,1.206,23.8l-.059-.264c-.079-.356-.154-.692-.215-1.078a1.684,1.684,0,0,1-.107-.634.119.119,0,0,1-.006-.029,1.331,1.331,0,0,1,1.336-1.314,1.326,1.326,0,0,1,.683.191,1.588,1.588,0,0,1,.749,1.36,15.832,15.832,0,0,0,.377,1.726,6.9,6.9,0,0,1-.536,4.258A6.715,6.715,0,0,1,2.4,29.572,1.332,1.332,0,0,1,1.33,30.117Zm35.27-5.5a1.3,1.3,0,0,1-1.253-1.131,1.422,1.422,0,0,1,.009-.53A16.609,16.609,0,0,0,30.1,6.747a3.664,3.664,0,0,1-.835-.985,1.181,1.181,0,0,1,.544-1.685,1.369,1.369,0,0,1,.659-.151,1.672,1.672,0,0,1,.68.139A19.1,19.1,0,0,1,38,23.128a3.081,3.081,0,0,1-.179.631,1.3,1.3,0,0,1-1.221.854ZM2.129,18.432a1.323,1.323,0,0,1-.681-.19,1.345,1.345,0,0,1-.637-1.028,1.787,1.787,0,0,1-.02-.326A19.454,19.454,0,0,1,2.4,11.1,18.944,18.944,0,0,1,19.534,0a18.5,18.5,0,0,1,7.652,1.654,1.715,1.715,0,0,1,.516.516,1.431,1.431,0,0,1-.645,1.861,1.172,1.172,0,0,1-.585.171,2.456,2.456,0,0,1-.921-.26,15.876,15.876,0,0,0-6.024-1.186A16.234,16.234,0,0,0,4.847,12.261a16.673,16.673,0,0,0-1.311,4.344c-.009.065-.015.14-.023.22a2.315,2.315,0,0,1-.216.927A1.36,1.36,0,0,1,2.129,18.432Zm7.889-5.576a1.342,1.342,0,0,1-1.147-.644,1.626,1.626,0,0,1,.455-1.9A13.424,13.424,0,0,1,19.589,5.5a13.08,13.08,0,0,1,5.649,1.281A13.4,13.4,0,0,1,29.9,10.463a1.308,1.308,0,0,1,.222.265,1.432,1.432,0,0,1,.112.2,1.35,1.35,0,0,1-1.217,1.92q-.049,0-.1,0c-.519-.035-.786-.331-1.191-.778l-.088-.1a10.723,10.723,0,0,0-3.54-2.7,10.518,10.518,0,0,0-4.546-1.031,10.711,10.711,0,0,0-8.316,3.969,1.363,1.363,0,0,1-.484.428l-.02.013A1.331,1.331,0,0,1,10.018,12.856Z" transform="translate(9048.795 -22244.207)" fill="#222529"/>
  </g>
</svg>
