<svg xmlns="http://www.w3.org/2000/svg" width="48" height="48" viewBox="0 0 48 48">
  <g id="icon_maxnote" transform="translate(-9116 22249)">
    <rect id="Rectangle_3435" data-name="Rectangle 3435" width="48" height="48" transform="translate(9116 -22249)" fill="none"/>
    <g id="组_177" data-name="组 177" transform="translate(9119.138 -22245.852)">
      <g id="收藏图标_bee" data-name="收藏图标 bee" transform="translate(0.992 0.987)">
        <path id="路径_2085" data-name="路径 2085" d="M19.346,38.035l-6.7-3.846a3.647,3.647,0,0,1-1.712-2.952V29.774a10.792,10.792,0,0,1-1.786,0h0a8.783,8.783,0,0,1-8.138-9.254A8.808,8.808,0,0,1,9.1,11.166a13.968,13.968,0,0,1,2.481.223,9.453,9.453,0,0,1,2.481-3.1A6.227,6.227,0,0,0,11.58,3.922a2.283,2.283,0,0,1-.546-2.183.918.918,0,0,1,1.141-.719h.248A12.405,12.405,0,0,1,15.9,7.147a11.363,11.363,0,0,1,9.924,0,12.628,12.628,0,0,1,3.6-5.954.918.918,0,0,1,1.24.3.744.744,0,0,1,0,.248A2.233,2.233,0,0,1,30.138,3.9a6.351,6.351,0,0,0-2.481,4.416,9.13,9.13,0,0,1,2.481,3.052,13.67,13.67,0,0,1,2.481-.2,8.708,8.708,0,0,1,8.088,9.353,10.247,10.247,0,0,1-2.307,6.6,7.443,7.443,0,0,1-5.657,2.754,11.834,11.834,0,0,1-1.886-.174v1.538a3.647,3.647,0,0,1-1.687,2.952s-6.624,3.846-6.674,3.846l-1.637,2.679Zm-5.93-6.8a1.216,1.216,0,0,0,.447.794l6.575,3.722a1.811,1.811,0,0,0,.893,0l6.55-3.8a1.216,1.216,0,0,0,.447-.794V29l-1.116-.4a20,20,0,0,1-4.689-3.473,15.655,15.655,0,0,1-1.662-2.059,15.655,15.655,0,0,1-1.637,2.134,26.175,26.175,0,0,1-4.788,3.473,5.384,5.384,0,0,1-1.017.471ZM25.97,16.351a10.743,10.743,0,0,0-1.762,1.588,14.489,14.489,0,0,0-1.861,2.481A12.9,12.9,0,0,0,24.209,22.9a11.487,11.487,0,0,0,8.46,3.9,6.078,6.078,0,0,0,5.557-6.277,6.078,6.078,0,0,0-5.557-6.475,11.115,11.115,0,0,0-6.7,2.307ZM3.492,20.519a6.078,6.078,0,0,0,5.582,6.475,11.462,11.462,0,0,0,8.46-3.9A12.9,12.9,0,0,0,19.4,20.619a14.489,14.489,0,0,0-1.861-2.481A10.743,10.743,0,0,0,15.9,16.351a11.065,11.065,0,0,0-6.7-2.307,6.078,6.078,0,0,0-5.706,6.475Zm10.916-8.212h.149a14.291,14.291,0,0,1,4.689,3.6,19.451,19.451,0,0,1,1.613,2.059A19.451,19.451,0,0,1,22.522,15.9a14.638,14.638,0,0,1,4.714-3.449h0l.422-.174a7.9,7.9,0,0,0-13.621-.149Z" transform="translate(-0.992 -0.987)" fill="#222529" stroke="#222529" stroke-width="0.5"/>
        <path id="矩形_1166" data-name="矩形 1166" d="M6,13h6.848a.62.62,0,0,1,.62.62h-.025a.62.62,0,0,1-.62.62H6Z" transform="translate(6.424 16.804)" fill="#222529" stroke="#222529" stroke-width="0.2"/>
        <path id="矩形_1167" data-name="矩形 1167" d="M6,12h4.367a.62.62,0,0,1,.62.62h-.025a.62.62,0,0,1-.62.62H6Z" transform="translate(6.424 15.323)" fill="#222529" stroke="#222529" stroke-width="0.2"/>
      </g>
    </g>
  </g>
</svg>
