<svg xmlns="http://www.w3.org/2000/svg" width="48" height="48" viewBox="0 0 48 48">
  <g id="icon_data_cleaning" transform="translate(-9044 22321)">
    <rect id="Rectangle_3431" data-name="Rectangle 3431" width="48" height="48" transform="translate(9044 -22321)" fill="none"/>
    <path id="Path_3665" data-name="Path 3665" d="M121.019,77.388,113.362,73.5,117.65,65a1.576,1.576,0,0,0-2.209-2.248l-4.748,9.4-6.6-3.34a4.451,4.451,0,0,0-1.975-.536,2.368,2.368,0,0,0-2.109,1.11l-.056.109C95.1,80.185,81.091,86.078,80.945,86.139a2.114,2.114,0,0,0-1.215,1.346,2.572,2.572,0,0,0,.363,2.021l.171.258,25.581,15.842a4.609,4.609,0,0,0,2.342.823,1.884,1.884,0,0,0,1.229-.4l.071-.063a41.519,41.519,0,0,0,8.763-12.595,43.562,43.562,0,0,0,3.757-12.154c.248-2.562-.506-3.492-.988-3.827Zm-1.831,3.547A37.034,37.034,0,0,1,117.9,86.36c-4.621-2.27-15.174-8.357-18.635-10.366a26.891,26.891,0,0,0,3.037-4.845,2.652,2.652,0,0,1,.519.2c1.461.736,12.462,6.309,15.8,8l.55.278a4.851,4.851,0,0,1,.008,1.3ZM106.3,95.363a1.577,1.577,0,0,0-2.187-2.272L99.2,97.877a1.392,1.392,0,0,0-.153.175L91.571,93.42,96.6,89.974a1.59,1.59,0,0,0,.414-2.2,1.571,1.571,0,0,0-2.184-.416l-5.652,3.874a1.536,1.536,0,0,0-.423.439l-5.54-3.429A47.942,47.942,0,0,0,97.386,78.191c3.57,2.077,14.806,8.571,19.6,10.884a40.246,40.246,0,0,1-9.036,14.427,4.253,4.253,0,0,1-.619-.324l-5.532-3.426,4.507-4.388Z" transform="translate(8967.148 -22381.43)" fill="#222529"/>
  </g>
</svg>
