<svg xmlns="http://www.w3.org/2000/svg" width="32" height="32" viewBox="0 0 32 32">
  <g id="icon-mac" transform="translate(-208 -511)">
    <path id="Path_3514" data-name="Path 3514" d="M23.589,108.8a1.577,1.577,0,0,1,1.573,1.573v12.738a1.577,1.577,0,0,1-1.573,1.573H15.884l1.415,2.831a.828.828,0,0,1-.315,1.022.473.473,0,0,1-.315.079h-8.1a.743.743,0,0,1-.786-.786c0-.157,0-.236.079-.315l1.415-2.831H1.573A1.577,1.577,0,0,1,0,123.111V110.373A1.577,1.577,0,0,1,1.573,108.8ZM14.7,113.361c-.865-.079-1.651.472-2.123.472-.393,0-1.022-.472-1.73-.472a2.687,2.687,0,0,0-2.2,1.337c-.944,1.573-.236,4.01.629,5.347l.157.236c.393.55.865,1.179,1.494,1.1.708,0,.944-.472,1.73-.472s1.022.472,1.73.393c.708,0,1.179-.629,1.651-1.337a6.336,6.336,0,0,0,.708-1.494H16.67a2.28,2.28,0,0,1-1.337-2.123,2.529,2.529,0,0,1,1.179-2.044A2.176,2.176,0,0,0,14.7,113.361Zm0-2.595a2.521,2.521,0,0,0-1.573.786,2.336,2.336,0,0,0-.55,1.651,2.053,2.053,0,0,0,1.573-.786A2.336,2.336,0,0,0,14.7,110.766Z" transform="translate(211.419 408.293)" fill="#1a1743"/>
    <rect id="Rectangle_3243" data-name="Rectangle 3243" width="32" height="32" transform="translate(208 511)" fill="none"/>
  </g>
</svg>
