<svg xmlns="http://www.w3.org/2000/svg" xmlns:xlink="http://www.w3.org/1999/xlink" width="836" height="505" viewBox="0 0 836 505">
  <defs>
    <filter id="Rectangle_3416_-_Outline">
      <feOffset dy="3" input="SourceAlpha"/>
      <feGaussianBlur stdDeviation="3" result="blur"/>
      <feFlood flood-color="#fff" flood-opacity="0.2" result="color"/>
      <feComposite operator="out" in="SourceGraphic" in2="blur"/>
      <feComposite operator="in" in="color"/>
      <feComposite operator="in" in2="SourceGraphic"/>
    </filter>
    <linearGradient id="linear-gradient" x1="0.5" x2="0.5" y2="1" gradientUnits="objectBoundingBox">
      <stop offset="0" stop-color="#5e5f5f"/>
      <stop offset="1"/>
    </linearGradient>
    <filter id="Rectangle_3417">
      <feOffset dy="1" input="SourceAlpha"/>
      <feGaussianBlur stdDeviation="1" result="blur-2"/>
      <feFlood flood-color="#fff" flood-opacity="0.42" result="color-2"/>
      <feComposite operator="out" in="SourceGraphic" in2="blur-2"/>
      <feComposite operator="in" in="color-2"/>
      <feComposite operator="in" in2="SourceGraphic"/>
    </filter>
    <linearGradient id="linear-gradient-2" x1="0.5" y1="0.15" x2="0.5" y2="1" gradientUnits="objectBoundingBox">
      <stop offset="0" stop-color="#7c7c7c"/>
      <stop offset="0.315" stop-color="#595858"/>
      <stop offset="0.806" stop-color="#434343"/>
      <stop offset="1" stop-color="#4c4c4c"/>
    </linearGradient>
    <filter id="Rectangle_3418" x="326" y="479" width="184" height="13" filterUnits="userSpaceOnUse">
      <feOffset dy="1" input="SourceAlpha"/>
      <feGaussianBlur stdDeviation="1.5" result="blur-3"/>
      <feFlood flood-opacity="0.729" result="color-3"/>
      <feComposite operator="out" in="SourceGraphic" in2="blur-3"/>
      <feComposite operator="in" in="color-3"/>
      <feComposite operator="in" in2="SourceGraphic"/>
    </filter>
    <linearGradient id="linear-gradient-3" x1="0.716" y1="0.034" x2="0.031" y2="0.974" gradientUnits="objectBoundingBox">
      <stop offset="0" stop-color="#fff" stop-opacity="0.102"/>
      <stop offset="1" stop-color="#959595" stop-opacity="0.031"/>
    </linearGradient>
  </defs>
  <g id="laptop-frame" transform="translate(-14934 20604)">
    <path id="Subtraction_222" data-name="Subtraction 222" d="M729,496H39A38.967,38.967,0,0,1,0,457V39A38.967,38.967,0,0,1,39,0H729a38.967,38.967,0,0,1,39,39V457a38.967,38.967,0,0,1-39,39ZM36,37A12.013,12.013,0,0,0,24,49V430a12.013,12.013,0,0,0,12,12H732a12.014,12.014,0,0,0,12-12V49a12.014,12.014,0,0,0-12-12Z" transform="translate(14968 -20604)"/>
    <g data-type="innerShadowGroup">
      <path id="Rectangle_3416_-_Outline-2" data-name="Rectangle 3416 - Outline" d="M39,8A31.035,31.035,0,0,0,8,39V457a31.035,31.035,0,0,0,31,31H729a31.035,31.035,0,0,0,31-31V39A31.035,31.035,0,0,0,729,8H39m0-8H729a39,39,0,0,1,39,39V457a39,39,0,0,1-39,39H39A39,39,0,0,1,0,457V39A39,39,0,0,1,39,0Z" transform="translate(14968 -20604)" fill="#1d1d1d"/>
      <g transform="matrix(1, 0, 0, 1, 14934, -20604)" filter="url(#Rectangle_3416_-_Outline)">
        <path id="Rectangle_3416_-_Outline-3" data-name="Rectangle 3416 - Outline" d="M39,8A31.035,31.035,0,0,0,8,39V457a31.035,31.035,0,0,0,31,31H729a31.035,31.035,0,0,0,31-31V39A31.035,31.035,0,0,0,729,8H39m0-8H729a39,39,0,0,1,39,39V457a39,39,0,0,1-39,39H39A39,39,0,0,1,0,457V39A39,39,0,0,1,39,0Z" transform="translate(34)" fill="#fff"/>
      </g>
    </g>
    <g data-type="innerShadowGroup">
      <path id="Rectangle_3417-2" data-name="Rectangle 3417" d="M2,0H834a2,2,0,0,1,2,2V4a22,22,0,0,1-22,22H22A22,22,0,0,1,0,4V2A2,2,0,0,1,2,0Z" transform="translate(14934 -20125)" fill="url(#linear-gradient)"/>
      <g transform="matrix(1, 0, 0, 1, 14934, -20604)" filter="url(#Rectangle_3417)">
        <path id="Rectangle_3417-3" data-name="Rectangle 3417" d="M2,0H834a2,2,0,0,1,2,2V4a22,22,0,0,1-22,22H22A22,22,0,0,1,0,4V2A2,2,0,0,1,2,0Z" transform="translate(0 479)" fill="#fff"/>
      </g>
    </g>
    <g data-type="innerShadowGroup">
      <path id="Rectangle_3418-2" data-name="Rectangle 3418" d="M0,0H184a0,0,0,0,1,0,0V1a12,12,0,0,1-12,12H12A12,12,0,0,1,0,1V0A0,0,0,0,1,0,0Z" transform="translate(15260 -20125)" fill="url(#linear-gradient-2)"/>
      <g transform="matrix(1, 0, 0, 1, 14934, -20604)" filter="url(#Rectangle_3418)">
        <path id="Rectangle_3418-3" data-name="Rectangle 3418" d="M0,0H184a0,0,0,0,1,0,0V1a12,12,0,0,1-12,12H12A12,12,0,0,1,0,1V0A0,0,0,0,1,0,0Z" transform="translate(326 479)" fill="#fff"/>
      </g>
    </g>
    <path id="Path_3662" data-name="Path 3662" d="M29,426.27a11.5,11.5,0,0,1-11.5-11.5v-381A11.5,11.5,0,0,1,29,22.27H606.415l-420.923,404Z" transform="translate(14975 -20588.77)" fill="url(#linear-gradient-3)" style="mix-blend-mode: screen;isolation: isolate"/>
  </g>
</svg>
