<svg xmlns="http://www.w3.org/2000/svg" xmlns:xlink="http://www.w3.org/1999/xlink" width="40" height="40" viewBox="0 0 40 40"><defs><style>.a{clip-rule:evenodd;}.b{fill:url(#a);}.c{fill:#fff;}.c,.e{fill-rule:evenodd;}.d{clip-path:url(#b);}.e{fill:gray;}</style><linearGradient id="a" x1="0.067" y1="0.25" x2="0.933" y2="0.75" gradientUnits="objectBoundingBox"><stop offset="0" stop-color="#2a48ba"/><stop offset="1" stop-color="#35e4c5"/></linearGradient><clipPath id="b"><path class="a" d="M5.19,2.157H26.634l4.037,3.72V19.822H23.994V8.145H11.628V19.822H5.19V2.157ZM21.044,19.822H14.579V11.777h6.465Z" transform="translate(-5.19 -2.157)"/></clipPath></defs><g transform="translate(257 -634.001)"><g transform="translate(-257 634.001)"><path class="b" d="M6,40a6,6,0,0,1-6-6V6A6,6,0,0,1,6,0H34a6,6,0,0,1,6,6V34a6,6,0,0,1-6,6Z"/><path class="c" d="M5.19,2.157H26.667l4.044,3.72V19.822H24.023V8.145H11.638V19.822H5.19V2.157ZM21.068,19.822H14.593V11.777h6.475Z" transform="translate(2.098 9.058)"/><g class="d" transform="translate(7.307 11.215)"><g transform="translate(14.584 5.979)"><path class="e" d="M7.182,2.987l10.109-.014L7.246,4.362Z" transform="translate(-7.182 -2.973)"/></g></g></g></g></svg>