<svg xmlns="http://www.w3.org/2000/svg" xmlns:xlink="http://www.w3.org/1999/xlink" width="620" height="468" viewBox="0 0 620 468">
  <defs>
    <linearGradient id="linear-gradient" x1="0.159" y1="0.09" x2="0.841" y2="0.91" gradientUnits="objectBoundingBox">
      <stop offset="0" stop-color="#2a48ba"/>
      <stop offset="1" stop-color="#35e4c5"/>
    </linearGradient>
    <clipPath id="clip-path">
      <path id="路径_222" data-name="路径 222" d="M2.679,1.413H24.461l4.1,3.771V19.317H21.78V7.483H9.216V19.317H2.679Zm16.1,17.9H12.216V11.164h6.567Z" transform="translate(-2.679 -1.413)"/>
    </clipPath>
    <linearGradient id="linear-gradient-2" x1="0.159" y1="0.09" x2="0.841" y2="0.91" gradientUnits="objectBoundingBox">
      <stop offset="0" stop-color="#fff"/>
      <stop offset="1" stop-color="#e5f0ff"/>
    </linearGradient>
    <filter id="Path_1924" x="154.46" y="106.648" width="318.519" height="318.518" filterUnits="userSpaceOnUse">
      <feOffset dy="3" input="SourceAlpha"/>
      <feGaussianBlur stdDeviation="32" result="blur"/>
      <feFlood flood-opacity="0.302"/>
      <feComposite operator="in" in2="blur"/>
      <feComposite in="SourceGraphic"/>
    </filter>
  </defs>
  <g id="pic-features-2" transform="translate(-6448 20874)">
    <rect id="Rectangle_3425" data-name="Rectangle 3425" width="620" height="468" transform="translate(6448 -20874)" fill="none"/>
    <g id="Group_3532" data-name="Group 3532" transform="translate(5798 -22206.75)">
      <rect id="Rectangle_27" data-name="Rectangle 27" width="620" height="465" transform="translate(650 1334.75)" fill="none"/>
      <g id="Web-开发" transform="translate(665.895 1363.384)">
        <g id="Web-development" transform="translate(0 0)">
          <g id="plant" transform="translate(1.064 172.511)">
            <path id="Path_123" d="M25.435,3.629a46.569,46.569,0,0,1,.9,6.134c0,2.165-8.5,11.907-2.807,18.4s5.513,8.3,4.25,13.712-1.985,8.479,2.887,12.99c2.967,2.747,6.13,7.432,8.317,11.208.019.051,5.167,18.417,3.952,28.664.27.27,2.4.12,2.4.12S44.92,22.392,25.435,3.629Z" transform="translate(-5.588 -1.238)" fill="#baddfe"/>
            <path id="Path_124" d="M49.139,94.045S54.456,8.663,66,.544c-.445.059.667,9.742.79,10.514.428,2.685,1.6,5.192,1.885,7.964a23.284,23.284,0,0,1-.341,8.3,7.349,7.349,0,0,1-2.072,3.42,8.162,8.162,0,0,0-1.705,4.3,20.21,20.21,0,0,0,.057,8.1c.722,2.9,1.142,5.015.077,7.886a15.624,15.624,0,0,1-4.923,6.75C54.82,61.705,52.655,79.4,52.249,94.165A21.6,21.6,0,0,1,49.139,94.045Z" transform="translate(-11.792 -0.544)" fill="#baddfe"/>
            <path id="Path_125" d="M40.055,102.081S15.97,52.692,1.626,42.273a15.638,15.638,0,0,1,0,9.067C0,56.077.815,66.763,9.475,70.013S17.052,78,18.947,82.733s8.93,3.518,12.449,7.848,6.9,12.855,6.9,12.855Z" transform="translate(-0.949 -9.933)" fill="#baddfe"/>
            <path id="Path_126" d="M46.73,108.126S74.673,51.913,91.312,40.055a17.465,17.465,0,0,0,0,10.318c1.883,5.39.942,17.557-9.1,21.253S73.416,80.713,71.218,86.1s-10.36,4-14.441,8.931-8.007,14.631-8.007,14.631Z" transform="translate(-11.25 -9.431)" fill="#baddfe"/>
            <path id="Path_127" d="M51.162,176.568H38.315a11.518,11.518,0,0,1-11.441-10.183l-5.262-45.115H67.865L62.6,166.384a11.518,11.518,0,0,1-11.441,10.183Z" transform="translate(-5.598 -27.707)" fill="#224380"/>
            <path id="Path_2214" d="M21.648,117.979h45.26a2.073,2.073,0,0,1,2.073,2.073v2.756a2.073,2.073,0,0,1-2.073,2.073H21.648a2.073,2.073,0,0,1-2.073-2.073v-2.756A2.073,2.073,0,0,1,21.648,117.979Z" transform="translate(-5.14 -26.967)" fill="#1b90fb"/>
          </g>
          <g id="element" transform="translate(0)">
            <g id="Group_36" transform="translate(15.963 95.287)">
              <g id="Group_26" transform="translate(3.615 28.917)">
                <path id="Path_129" d="M5.324,10.816a5.27,5.27,0,1,1,5.27-5.27A5.274,5.274,0,0,1,5.324,10.816Zm0-8.884A3.615,3.615,0,1,0,8.939,5.548,3.62,3.62,0,0,0,5.324,1.932Z" transform="translate(-0.054 -0.276)" fill="#ef4923"/>
              </g>
              <g id="Group_27" transform="translate(0 0)">
                <path id="Path_130" d="M5.659,11.5a5.27,5.27,0,1,1,5.27-5.27,5.274,5.274,0,0,1-5.27,5.27Z" transform="translate(-0.389 -0.964)" fill="#f3c04c"/>
              </g>
              <g id="Group_35" transform="translate(23.975 6.357)">
                <g id="Group_30" transform="translate(5.115 0)">
                  <g id="Group_28">
                    <path id="Path_131" d="M1.751,5.463a.826.826,0,0,1-.826-.826V.994a.827.827,0,1,1,1.653,0V4.636a.826.826,0,0,1-.827.826Z" transform="translate(-0.925 -0.167)" fill="#f3c04c"/>
                  </g>
                  <g id="Group_29" transform="translate(0 6.377)">
                    <path id="Path_132" d="M1.751,5.691a.826.826,0,0,1-.826-.826V1.222a.827.827,0,1,1,1.653,0V4.864a.826.826,0,0,1-.827.826Z" transform="translate(-0.925 -0.395)" fill="#f3c04c"/>
                  </g>
                </g>
                <g id="Group_34" transform="translate(0 5.009)">
                  <g id="Group_32" transform="translate(6.956 0.003)">
                    <g id="Group_31" transform="translate(0)">
                      <path id="Path_133" d="M4.4,2.284H1.128a.825.825,0,1,1,0-1.65H4.4a.825.825,0,1,1,0,1.65Z" transform="translate(-0.3 -0.634)" fill="#f3c04c"/>
                    </g>
                  </g>
                  <g id="Group_33" transform="translate(0 0)">
                    <path id="Path_134" d="M4.425,2.283H1.151a.827.827,0,0,1,0-1.653H4.425a.827.827,0,0,1,0,1.653Z" transform="translate(-0.325 -0.63)" fill="#f3c04c"/>
                  </g>
                </g>
              </g>
            </g>
            <g id="Group_47" transform="translate(398.473 315.051)">
              <g id="Group_37" transform="translate(3.557 29.824)">
                <path id="Path_135" d="M5.51,11.818A5.319,5.319,0,0,1,.327,6.384,5.32,5.32,0,0,1,5.51.95a5.319,5.319,0,0,1,5.182,5.434A5.319,5.319,0,0,1,5.51,11.818Z" transform="translate(-0.325 -0.95)" fill="#499d75"/>
              </g>
              <g id="Group_38" transform="translate(0 0)">
                <path id="Path_136" d="M5.92,11.334A5.319,5.319,0,0,1,.737,5.9,5.319,5.319,0,0,1,5.92.467,5.319,5.319,0,0,1,11.1,5.9,5.319,5.319,0,0,1,5.92,11.334Zm0-9.163A3.65,3.65,0,0,0,2.363,5.9,3.65,3.65,0,0,0,5.92,9.629,3.65,3.65,0,0,0,9.477,5.9,3.65,3.65,0,0,0,5.92,2.171Z" transform="translate(-0.735 -0.467)" fill="#fff"/>
              </g>
              <g id="Group_46" transform="translate(23.587 6.551)">
                <g id="Group_41" transform="translate(5.033 0)">
                  <g id="Group_39" transform="translate(0)">
                    <path id="Path_137" d="M1.478,6.384a.834.834,0,0,1-.813-.852V1.772A.833.833,0,0,1,1.478.92a.833.833,0,0,1,.813.852V5.531a.834.834,0,0,1-.813.852Z" transform="translate(-0.665 -0.92)" fill="#fff"/>
                  </g>
                  <g id="Group_40" transform="translate(0 6.577)">
                    <path id="Path_138" d="M1.478,5.871a.834.834,0,0,1-.813-.852V1.259A.834.834,0,0,1,1.478.407a.834.834,0,0,1,.813.852V5.018a.834.834,0,0,1-.813.852Z" transform="translate(-0.665 -0.407)" fill="#fff"/>
                  </g>
                </g>
                <g id="Group_45" transform="translate(0 5.168)">
                  <g id="Group_43" transform="translate(6.845 0)">
                    <g id="Group_42" transform="translate(0)">
                      <path id="Path_139" d="M4.037,2.293H.816A.833.833,0,0,1,0,1.44.832.832,0,0,1,.816.588H4.037a.833.833,0,0,1,.813.852.833.833,0,0,1-.813.852Z" transform="translate(-0.003 -0.588)" fill="#fff"/>
                    </g>
                  </g>
                  <g id="Group_44" transform="translate(0 0)">
                    <path id="Path_140" d="M4.2,2.293H.984A.833.833,0,0,1,.171,1.44.833.833,0,0,1,.984.588H4.2a.833.833,0,0,1,.813.852.833.833,0,0,1-.813.852Z" transform="translate(-0.171 -0.588)" fill="#fff"/>
                  </g>
                </g>
              </g>
            </g>
            <path id="Path_141" d="M718.293,279.651a8.106,8.106,0,1,1,7.83-10.194h0a8.108,8.108,0,0,1-7.83,10.194Zm0-14.661a6.558,6.558,0,1,0,6.335,4.871A6.526,6.526,0,0,0,718.289,264.989Z" transform="translate(-151.714 -209.585)" fill="#f8b91e"/>
            <path id="Path_142" d="M713.189,386.9a5.026,5.026,0,1,1,4.865-6.321h0a5.027,5.027,0,0,1-3.562,6.15,5.075,5.075,0,0,1-1.3.17Z" transform="translate(-151.26 -235.1)" fill="#499d75"/>
            <path id="Path_143" d="M676.448,30.2v-.246c0-16.372-13.6-29.644-30.37-29.644a30.458,30.458,0,0,0-26.892,15.868,15.442,15.442,0,0,0-8.551-2.546c-8.349,0-15.118,6.514-15.118,14.549v.145a24.116,24.116,0,0,0-14.582,21.9c0,13.342,11.3,24.161,25.242,24.161a26.3,26.3,0,0,0,3.26-.2H668.87c.337-.04.675-.077,1.014-.1a16.921,16.921,0,0,0,3.519-.393v-.109c12.083-1.467,21.4-10.741,21.4-21.965C694.8,41.355,687.015,32.727,676.448,30.2Z" transform="translate(-96.342 -0.309)" fill="#e7f4fe"/>
            <path id="Path_144" d="M48.875,154.244v-.125a15.312,15.312,0,0,0-15.494-15.124,15.537,15.537,0,0,0-13.72,8.1,7.873,7.873,0,0,0-4.362-1.3,7.572,7.572,0,0,0-7.713,7.422v.075a12.3,12.3,0,0,0-7.44,11.174,12.612,12.612,0,0,0,12.878,12.327,13.5,13.5,0,0,0,1.663-.1h30.32c.172-.02.344-.038.517-.052a8.619,8.619,0,0,0,1.8-.2v-.056c6.165-.748,10.916-5.481,10.916-11.206C58.236,159.935,54.266,155.534,48.875,154.244Z" transform="translate(-0.145 -126.401)" fill="#dae7ff"/>
          </g>
          <g id="computer" transform="translate(91.394 7.065)">
            <path id="Path_2211" d="M8.371.066h374a7.867,7.867,0,0,1,7.867,7.867V271.607a7.867,7.867,0,0,1-7.867,7.867h-374A7.867,7.867,0,0,1,.5,271.607V7.933A7.867,7.867,0,0,1,8.371.066Z" transform="translate(-0.504 -0.066)" fill="#102b5e"/>
            <path id="Path_2210" d="M20.453,13.815H378.037a4.245,4.245,0,0,1,4.245,4.245V239.2a4.245,4.245,0,0,1-4.245,4.245H20.453a4.245,4.245,0,0,1-4.245-4.245V18.06A4.245,4.245,0,0,1,20.453,13.815Z" transform="translate(-4.037 -3.16)" fill="#edf2f9"/>
            <g id="Group_63" transform="translate(121.065 252.434)">
              <path id="Path_2213" d="M51.839.788H123.17V64.083H51.839Z" transform="translate(-12.22 -0.788)" fill="#102b5e"/>
              <path id="Path_165" d="M148.318,89.689H.717s2.234-16.6,73.857-16.6S148.318,89.689,148.318,89.689Z" transform="translate(-0.717 -17.055)" fill="#102b5e"/>
            </g>
            <g id="Group_685" data-name="Group 685" transform="translate(11.44 27.285)">
              <g id="browser">
                <path id="Path" d="M367.057,26.381V210.9a4.711,4.711,0,0,1-4.965,4.4H5.216a4.71,4.71,0,0,1-4.964-4.4V26.381Z" transform="translate(-0.252 -1.98)" fill="#f3f9ff"/>
                <ellipse id="Oval" cx="4.647" cy="4.643" rx="4.647" ry="4.643" transform="translate(17.926 8.213)" fill="#ffcb01"/>
                <ellipse id="Oval-2" data-name="Oval" cx="4.647" cy="4.643" rx="4.647" ry="4.643" transform="translate(34.472 8.213)" fill="#44d690"/>
                <path id="Path-2" data-name="Path" d="M71.509,108H37.632c-2.216,0-4.012-1.493-4.012-3.335V76.5c0-1.842,1.8-3.335,4.012-3.335H71.509c2.216,0,4.012,1.493,4.012,3.335v28.16C75.521,106.505,73.725,108,71.509,108Z" transform="translate(88.648 18.322)" fill="#dae7ff"/>
                <path id="Path-3" data-name="Path" d="M71.509,108H37.632c-2.216,0-4.012-1.493-4.012-3.335V76.5c0-1.842,1.8-3.335,4.012-3.335H71.509c2.216,0,4.012,1.493,4.012,3.335v28.16C75.521,106.505,73.725,108,71.509,108Z" transform="translate(88.648 59.461)" fill="#dae7ff"/>
                <path id="Path-4" data-name="Path" d="M71.509,108H37.632c-2.216,0-4.012-1.493-4.012-3.335V76.5c0-1.842,1.8-3.335,4.012-3.335H71.509c2.216,0,4.012,1.493,4.012,3.335v28.16C75.521,106.505,73.725,108,71.509,108Z" transform="translate(182.102 18.322)" fill="#dae7ff"/>
                <path id="Path-5" data-name="Path" d="M71.509,108H37.632c-2.216,0-4.012-1.493-4.012-3.335V76.5c0-1.842,1.8-3.335,4.012-3.335H71.509c2.216,0,4.012,1.493,4.012,3.335v28.16C75.521,106.505,73.725,108,71.509,108Z" transform="translate(182.102 59.461)" fill="#dae7ff"/>
                <path id="Path-6" data-name="Path" d="M71.509,108H37.632c-2.216,0-4.012-1.493-4.012-3.335V76.5c0-1.842,1.8-3.335,4.012-3.335H71.509c2.216,0,4.012,1.493,4.012,3.335v28.16C75.521,106.505,73.725,108,71.509,108Z" transform="translate(41.921 18.322)" fill="#dae7ff"/>
                <path id="Path-7" data-name="Path" d="M71.509,108H37.632c-2.216,0-4.012-1.493-4.012-3.335V76.5c0-1.842,1.8-3.335,4.012-3.335H71.509c2.216,0,4.012,1.493,4.012,3.335v28.16C75.521,106.505,73.725,108,71.509,108Z" transform="translate(41.921 59.461)" fill="#dae7ff"/>
                <path id="Path-8" data-name="Path" d="M71.509,108H37.632c-2.216,0-4.012-1.493-4.012-3.335V76.5c0-1.842,1.8-3.335,4.012-3.335H71.509c2.216,0,4.012,1.493,4.012,3.335v28.16C75.521,106.505,73.725,108,71.509,108Z" transform="translate(135.375 18.322)" fill="#dae7ff"/>
                <path id="Path-9" data-name="Path" d="M71.509,108H37.632c-2.216,0-4.012-1.493-4.012-3.335V76.5c0-1.842,1.8-3.335,4.012-3.335H71.509c2.216,0,4.012,1.493,4.012,3.335v28.16C75.521,106.505,73.725,108,71.509,108Z" transform="translate(135.375 59.461)" fill="#dae7ff"/>
                <path id="Path-10" data-name="Path" d="M71.509,108H37.632c-2.216,0-4.012-1.493-4.012-3.335V76.5c0-1.842,1.8-3.335,4.012-3.335H71.509c2.216,0,4.012,1.493,4.012,3.335v28.16C75.521,106.505,73.725,108,71.509,108Z" transform="translate(228.05 18.322)" fill="#dae7ff"/>
                <path id="Path-11" data-name="Path" d="M71.509,108H37.632c-2.216,0-4.012-1.493-4.012-3.335V76.5c0-1.842,1.8-3.335,4.012-3.335H71.509c2.216,0,4.012,1.493,4.012,3.335v28.16C75.521,106.505,73.725,108,71.509,108Z" transform="translate(228.05 59.461)" fill="#dae7ff"/>
                <rect id="Rectangle_7" data-name="Rectangle 7" width="366.961" height="25.194" fill="#baddfe"/>
                <g id="Group_191" data-name="Group 191" transform="translate(4.381 6.573)">
                  <path id="Rectangle_187" data-name="Rectangle 187" d="M5,0H45.389a5,5,0,0,1,5,5V18.622a0,0,0,0,1,0,0H0a0,0,0,0,1,0,0V5A5,5,0,0,1,5,0Z" fill="#f3f9ff"/>
                  <circle id="Ellipse_7" data-name="Ellipse 7" cx="4.929" cy="4.929" r="4.929" transform="translate(4.382 4.382)" fill="#baddfe"/>
                  <rect id="Rectangle_190" data-name="Rectangle 190" width="26.29" height="7.668" rx="2" transform="translate(17.527 5.477)" fill="#baddfe"/>
                </g>
                <g id="Group_189" data-name="Group 189" transform="translate(54.77 6.573)">
                  <path id="Rectangle_188" data-name="Rectangle 188" d="M5,0H46.484a5,5,0,0,1,5,5V18.622a0,0,0,0,1,0,0H0a0,0,0,0,1,0,0V5A5,5,0,0,1,5,0Z" fill="#dae7ff"/>
                  <circle id="Ellipse_8" data-name="Ellipse 8" cx="4.929" cy="4.929" r="4.929" transform="translate(6.572 4.382)" fill="#baddfe"/>
                  <rect id="Rectangle_191" data-name="Rectangle 191" width="26.29" height="7.668" rx="2" transform="translate(19.717 5.477)" fill="#baddfe"/>
                </g>
                <g id="Group_190" data-name="Group 190" transform="translate(106.254 6.573)">
                  <path id="Rectangle_189" data-name="Rectangle 189" d="M5,0H46.484a5,5,0,0,1,5,5V18.622a0,0,0,0,1,0,0H0a0,0,0,0,1,0,0V5A5,5,0,0,1,5,0Z" transform="translate(0)" fill="#dae7ff"/>
                  <circle id="Ellipse_9" data-name="Ellipse 9" cx="4.929" cy="4.929" r="4.929" transform="translate(6.572 4.382)" fill="#baddfe"/>
                  <rect id="Rectangle_192" data-name="Rectangle 192" width="26.29" height="7.668" rx="2" transform="translate(19.717 5.477)" fill="#baddfe"/>
                </g>
              </g>
              <g id="Layer_x0020_1" transform="translate(323.972 174.84)">
                <g id="_2316807404336" transform="translate(0 0)">
                  <path id="路径_221" data-name="路径 221" d="M2.679,1.413H24.461l4.1,3.771V19.317H21.78V7.483H9.216V19.317H2.679Zm16.1,17.9H12.216V11.164h6.567Z" transform="translate(-2.679 -1.413)" fill-rule="evenodd" fill="url(#linear-gradient)"/>
                  <g id="组_195" data-name="组 195" clip-path="url(#clip-path)">
                    <g id="组_194" data-name="组 194" transform="translate(14.814 6.059)">
                      <path id="_1" d="M20.834,8.856H31.1L20.9,10.263Z" transform="translate(-20.834 -8.856)" fill="#2d5dd1" fill-rule="evenodd"/>
                    </g>
                  </g>
                  <path id="路径_223" data-name="路径 223" d="M2.679,1.413H24.461l4.1,3.771V19.317H21.78V7.483H9.216V19.317H2.679Zm16.1,17.9H12.216V11.164h6.567Z" transform="translate(-2.679 -1.413)" fill="none" fill-rule="evenodd"/>
                </g>
              </g>
              <g id="searchbarDefult" transform="translate(95.3 46.008)">
                <rect id="Rectangle_842" data-name="Rectangle 842" width="177.456" height="23.004" rx="11.502" transform="translate(0 0)" fill="#baddfe"/>
                <circle id="Ellipse_171" data-name="Ellipse 171" cx="6.025" cy="6.025" r="6.025" transform="translate(4.382 5.477)" fill="#f3f9ff"/>
                <g id="Group_684" data-name="Group 684" transform="translate(159.36 6.764)">
                  <g id="Ellipse_172" data-name="Ellipse 172" fill="none" stroke="#f3f9ff" stroke-width="1">
                    <circle cx="3.894" cy="3.894" r="3.894" stroke="none"/>
                    <circle cx="3.894" cy="3.894" r="3.394" fill="none"/>
                  </g>
                  <rect id="Rectangle_843" data-name="Rectangle 843" width="0.779" height="4.673" transform="translate(5.861 6.411) rotate(-45)" fill="#f3f9ff"/>
                </g>
              </g>
            </g>
            <path id="Path_2207" d="M18.512,13.815H380.364a2.385,2.385,0,0,1,2.387,2.383V30.7H15.946V16.377A2.564,2.564,0,0,1,18.512,13.815Z" transform="translate(-4.506 -3.16)" fill="#224380"/>
            <circle id="Ellipse_1" cx="4.608" cy="4.608" r="4.608" transform="translate(22.159 14.489)" fill="#ff8b66"/>
            <circle id="Ellipse_2" cx="4.608" cy="4.608" r="4.608" transform="translate(40.591 14.489)" fill="#ffcb01"/>
            <path id="Ellipse_3" d="M4.608,0A4.608,4.608,0,1,1,0,4.608,4.608,4.608,0,0,1,4.608,0Z" transform="translate(59.025 14.489)" fill="#44d690"/>
          </g>
          <path id="Path_213" data-name="Path 213" d="M0,3.175V.292H15.713V3.175H9.719V22.808H6.026V3.175ZM34.633,22.808l-1.62-4.6H23.585l-1.62,4.6H18.11L26.177.259h4.276l8.067,22.549ZM24.59,15.324h7.419L28.315,4.73ZM42.02.292h8.585a7.867,7.867,0,0,1,5.378,1.685,5.451,5.451,0,0,1,1.911,4.276q0,3.791-4.374,4.989a5.637,5.637,0,0,1,3.548,1.96,5.56,5.56,0,0,1,1.345,3.677,5.294,5.294,0,0,1-2.009,4.26,8.151,8.151,0,0,1-5.378,1.668H42.02Zm3.693,2.883V9.849h4.568a4.219,4.219,0,0,0,2.835-.875,3.048,3.048,0,0,0,1.021-2.446,3.1,3.1,0,0,0-1.021-2.462,4.168,4.168,0,0,0-2.835-.891Zm0,16.75H50.7a4.314,4.314,0,0,0,2.948-.94,3.29,3.29,0,0,0,1.069-2.608,3.345,3.345,0,0,0-1.134-2.657,4.423,4.423,0,0,0-3.013-.988h-4.86ZM69.428,3.013a4.129,4.129,0,0,0-2.689.842A2.968,2.968,0,0,0,65.7,6.3a2.779,2.779,0,0,0,1.231,2.446,8.484,8.484,0,0,0,2.981,1.231q1.749.389,3.5.891a6.285,6.285,0,0,1,2.981,1.863,5.548,5.548,0,0,1,1.231,3.855,6,6,0,0,1-2.106,4.471,7.9,7.9,0,0,1-5.637,1.976,9.31,9.31,0,0,1-5.734-1.652,5.392,5.392,0,0,1-2.2-4.568H65.9A3.449,3.449,0,0,0,67,19.179a4.132,4.132,0,0,0,2.851.875,4.282,4.282,0,0,0,2.964-.972,2.993,2.993,0,0,0,1.085-2.3,3.008,3.008,0,0,0-.664-2.073,4.065,4.065,0,0,0-1.717-1.118,21.355,21.355,0,0,0-2.316-.664q-1.264-.292-2.543-.68a10.854,10.854,0,0,1-2.333-1,4.675,4.675,0,0,1-1.717-1.8,5.844,5.844,0,0,1-.664-2.9A5.915,5.915,0,0,1,64.066,1.8,8.226,8.226,0,0,1,69.574,0a8.656,8.656,0,0,1,5.41,1.555,5.95,5.95,0,0,1,2.252,4.5H73.154a3.263,3.263,0,0,0-1.1-2.171A3.777,3.777,0,0,0,69.428,3.013Z" transform="translate(430.721 378.549) rotate(-12)" fill="#fff"/>
          <g id="girl" transform="translate(30.112 129.526)">
            <ellipse id="Ellipse_4" cx="19.927" cy="3.277" rx="19.927" ry="3.277" transform="translate(99.063 265.002)" fill="#baddfe"/>
            <ellipse id="Ellipse_5" cx="17.519" cy="2.57" rx="17.519" ry="2.57" transform="translate(14.14 263.139)" fill="#baddfe"/>
            <path id="Path_166" d="M373.738,165.764l-16.212-.793A53.4,53.4,0,0,0,354.172,183c0,9.782.56,7.407.7,12.857s-13.974,33.4-16.488,44.859c-2.015,9.177-7.467,29.013-9.558,36.55a4.108,4.108,0,0,0,1.818,4.606h0a4.107,4.107,0,0,0,5.207-.767c8.772-9.845,39.758-46.2,43.153-72.355,3.96-30.5,4.378-31.62,4.378-31.62Z" transform="translate(-306.089 -33.019)" fill="#224380"/>
            <path id="Path_167" d="M383.831,305.554s-2.236,4.521-.139,5.918,11.6,8.106,11.738,11.041-.373,2.934-6.335,1.4-18.539-7.127-18.539-10.76,4.751-12.019,4.751-12.019Z" transform="translate(-351.679 -60.197)" fill="#102b5e"/>
            <path id="Path_168" d="M337.358,198.377a6.693,6.693,0,0,0-1.421,5.264c1.258,7.924,4.162,31.48-3.491,43.031-.066.109,14.789-21.034,14.317-41.979C346.417,189.3,340.48,194.526,337.358,198.377Z" transform="translate(-272.501 -38.875)" fill="#224380"/>
            <path id="Path_169" d="M323.255,68.564,313.166,86.58l-12.222-9.113,13.582-17.9Z" transform="translate(-223.769 -11.979)" fill="#fac896"/>
            <path id="Path_170" d="M194.7,122.318a10.581,10.581,0,0,1,13.082-3.842c12.006,5.283,33.7,14.543,39.667,15.239,5.311.56,21.94,1.817,20.683,9.782-1.538,3.773-3.254,4.532-16.63,3.494a314.041,314.041,0,0,1-50.576-8.551,10.584,10.584,0,0,1-6.226-16.119Z" transform="translate(-82.256 -23.559)" fill="#fac896"/>
            <path id="Path_171" d="M297.194,143.331l8.164,24.553a1.6,1.6,0,0,1-.375,1.626c-2.043,2.086-8.776,7.873-20.418,7.668a1.6,1.6,0,0,1-1.247-.64c-1.322-1.748-4.628-6.7-5.774-8.422a1.592,1.592,0,0,1-.21-1.3l4.26-15.719a1.269,1.269,0,0,0,.03-.134l2.488-13.807a1.6,1.6,0,0,1,1.921-1.281l9.335,2.055a1.6,1.6,0,0,1,1.242,1.345l.516,3.771a1.585,1.585,0,0,0,.066.286Z" transform="translate(-187.013 -27.203)" fill="#1eaf69"/>
            <path id="Path_200" d="M323.651,166.4l-34.61-.56s-10.341,21.1,10.2,41.924c5.869,7.407,12.3,12.717,20.961,52.964,4.811,16.163,8.225,25.052,9.885,29.023a4.289,4.289,0,0,0,3.9,2.63h0a4.3,4.3,0,0,0,4.372-4.322c-.066-14.162-.5-58.644-3.342-74.429C331.646,194.911,329.853,175.207,323.651,166.4Z" transform="translate(-227.263 -33.192)" fill="#224380"/>
            <path id="Path_201" d="M354.238,163.712l-4.445,15a5.345,5.345,0,0,1-5.861,3.783c-8.3-1.164-25.106-4.219-26.2-9.982,0-.026,1.8-9.385,3.013-10.183S354.238,163.712,354.238,163.712Z" transform="translate(-268.189 -32.456)" fill="#102b5e"/>
            <path id="Path_202" d="M306.074,142.135s-3.88,15.688-11.759,20.79c.08.176-6.2-10.325-6.2-10.325l12.966-17.689Z" transform="translate(-196.323 -27.018)" fill="#499d75"/>
            <path id="Path_203" d="M319.641,134.825c-1.041,5.275-4.132,19.788-7.438,23.417a2.271,2.271,0,0,1-1.8.712c-2.187-.1-9.321-.026-13.649.028a2.374,2.374,0,0,1-2.255-3.2l9.709-26.584a2.382,2.382,0,0,1,3.126-1.393l10.852,4.361a2.37,2.37,0,0,1,1.452,2.661Z" transform="translate(-214.926 -25.565)" fill="#fff"/>
            <path id="Path_204" d="M316.515,137.931,316,140.372s-8.036-1.921-9.387,0-7.313,20.01-7.313,20.01h-4.473l5.683-25.463,11.643.811Z" transform="translate(-212.132 -27.02)" fill="#dfccc3"/>
            <path id="Path_205" d="M312.443,73.157,308.65,79.75l-5.568-5.363c-1.668-1.608.467-4.068,2.865-3.3Z" transform="translate(-214.193 -14.249)" fill="#f39c55"/>
            <path id="Path_206" d="M286.1,44.1a4.035,4.035,0,0,1,6.789.272c1.469,2.52,2.467,5.81.894,9.166-3.289,7.019-10.237-5.788-10.237-5.788Z" transform="translate(-181.173 -8.548)" fill="#f0b701"/>
            <ellipse id="Ellipse_6" cx="11.645" cy="12.873" rx="11.645" ry="12.873" transform="translate(86.048 36.364)" fill="#fac896"/>
            <path id="Path_207" d="M293.823,54.195c3.346-1.635,7.017-3.362,9.91-3.527l2.925,1.14s.106,1.2.118,3.018c-1.321,2.111-3.748,4.882-7.252,4.555a48.8,48.8,0,0,0-9.765.008S288.4,56.843,293.823,54.195Z" transform="translate(-198.217 -10.203)" fill="#f39c55"/>
            <path id="Path_208" d="M397.7,41.643c1.065-5.25-4.486-11.3-9.05-14.941-6.345-5.065-12.022.607-22.388-3.018-10.187-3.563-8.488-10.366-17.86-13.836-11.766-4.354-17.422,5.256-30.437,1.51C306.551,8.07,304.094-1.289,297.594.289c-6.179,1.5-9.084,11.2-9.559,17.105-.948,11.812,6.493,25.093,15.6,26.664,7.477,1.291,10.788-6.232,17.608-4.276,7.154,2.051,5.719,10.965,15.344,17.356,1.054.7,10.53,6.823,18.362,3.522,7.105-3,8.757-12.015,12.075-11.32,2.515.527,1.706,5.742,6.037,8.553,3.366,2.184,8.434,2,9.637,0,1.417-2.354-2.895-6.6-1.587-8.054,1.093-1.213,4.962-.355,8.264-1.465C393.288,47.064,397.528,42.505,397.7,41.643Z" transform="translate(-287.953 -0.111)" fill="#f0b701"/>
            <path id="Path_209" d="M269.642,315.9s-.036,5.89,2.733,6.261,16.3,2.246,17.769,5.038.944,3.033-5.833,4.354-23.278,2.15-23.768-1.718c-.6-4.731-.572-13.948-.572-13.948Z" transform="translate(-158.534 -63.143)" fill="#102b5e"/>
            <path id="Path_213-2" data-name="Path_213" d="M203.95,75.757s31.147-5.957,40.37-9.73c6.009-2.236,3.286-4.664,12.231-7.364,4.192-.32,5.833-3.061,8.209-2.921s.014,5.065-2.362,6.043-4.942,2.7-4.942,3.96,3.074,8.244-3.354,11.04c-3.494,1.956-43.583,20.721-43.583,20.721h0C199.41,101.2,192.406,77.66,203.95,75.757Z" transform="translate(-83.882 -11.215)" fill="#fac896"/>
            <path id="Path_214" d="M314.829,103.006c.08-4.526-.022-20.895-5.763-22.773a1.392,1.392,0,0,0-.762-.009c-3.215.772-27.659,5.256-38.175,3.338-8.525.978-4.758,19.061-4.758,19.061l31.96,4.052,7.529.56L313.7,104.5a1.594,1.594,0,0,0,1.126-1.5Z" transform="translate(-186.221 -16.093)" fill="#1eaf69"/>
            <path id="Path_256" d="M292.137,108.436s-2.874-3.442-10.2-4.942c-6.757-1.383-12.947-5.143-13.993-4.1-7.47,7.469,16.488,11.421,16.488,11.421Z" transform="translate(-165.082 -19.893)" fill="#499d75"/>
            <g id="Group_69" transform="translate(28.491 64.568)">
              <path id="Path_257" d="M32.615,22.94l16.6,9.377a2.351,2.351,0,0,1,1.179,2.35c-.659,5-3.275,20.241-10.856,21.757C39.4,56.425,5.3,47.62.27,41.611c-.279.141,16.747-27.7,16.747-27.7Z" transform="translate(50.737 -3.403)" fill="#e62822"/>
              <g id="Group_68" transform="translate(0 0)">
                <path id="Path_258" d="M19.412,35.5c5.144-4.531,22.614-24.652,29.539-33.8C50.3-.078,52.44.482,61.709,5.548,68.927,9.5,76.292,16.05,83.619,20.32l16.6,9.377a2.345,2.345,0,0,1,1.178,2.351c-.594,4.513-2.783,17.363-8.775,20.943a4.609,4.609,0,0,1-3.539.44C85.2,52.4,74.266,49.394,65.049,46.015l-.008,0c-.5,2.7-1.114,5.292-1.8,7.748A93.753,93.753,0,0,1,51.274,80.294a1.589,1.589,0,0,1-1.173.7C22.771,83.51.267,49.892.267,49.892S13.543,40.668,19.412,35.5Z" transform="translate(-0.267 -0.782)" fill="#1eaf69"/>
                <path id="Path_390" d="M53.451,56.514c-.026.13-.054.251-.08.383-.489,2.568-1.074,5.029-1.724,7.369-.011.039-.023.075-.034.114-.513-2.881-2.9-6.083-5.157-8.621a2.881,2.881,0,0,1-.713-2.4C47.882,54.363,50.761,55.516,53.451,56.514Z" transform="translate(11.33 -11.278)" fill="#1eaf69"/>
              </g>
            </g>
            <path id="Path_392" d="M288.641,61.338s1.546,4.882,1.112,5.532-2.127-.08-2.331-.153S288.641,61.338,288.641,61.338Z" transform="translate(-179.505 -12.332)" fill="#fac896"/>
            <path id="Path_394" d="M308.579,60.62s-.6-3.643-2.507-2.292-2.593,6.129,0,6.265S308.579,60.62,308.579,60.62Z" transform="translate(-211.839 -11.672)" fill="#fac896"/>
          </g>
        </g>
      </g>
      <g id="Group_1282" data-name="Group 1282" transform="translate(1054.148 1485.137)">
        <rect id="Rectangle_3258" data-name="Rectangle 3258" width="138.021" height="279.329" rx="17" transform="translate(0.057 0)" fill="#fff"/>
        <path id="Rectangle_3258_-_Outline" data-name="Rectangle 3258 - Outline" d="M10.265,2.415a7.85,7.85,0,0,0-7.85,7.85V268.7a7.85,7.85,0,0,0,7.85,7.85H127.4a7.849,7.849,0,0,0,7.85-7.85V10.265a7.85,7.85,0,0,0-7.85-7.85H10.265m0-2.415H127.4a10.265,10.265,0,0,1,10.265,10.265V268.7A10.265,10.265,0,0,1,127.4,278.96H10.265A10.265,10.265,0,0,1,0,268.7V10.265A10.265,10.265,0,0,1,10.265,0Z" transform="translate(0 0.304)" fill="#030615"/>
        <path id="Path_3539" data-name="Path 3539" d="M10.265,0H127.4a10.265,10.265,0,0,1,10.265,10.265V268.7A10.265,10.265,0,0,1,127.4,278.96H10.265A10.265,10.265,0,0,1,0,268.7V10.265A10.265,10.265,0,0,1,10.265,0Z" transform="translate(0 0.304)" fill="#fff"/>
        <path id="Rectangle_3260_-_Outline" data-name="Rectangle 3260 - Outline" d="M10.265,2.415a7.85,7.85,0,0,0-7.85,7.85V268.7a7.85,7.85,0,0,0,7.85,7.85H127.4a7.849,7.849,0,0,0,7.85-7.85V10.265a7.85,7.85,0,0,0-7.85-7.85H10.265m0-2.415H127.4a10.265,10.265,0,0,1,10.265,10.265V268.7A10.265,10.265,0,0,1,127.4,278.96H10.265A10.265,10.265,0,0,1,0,268.7V10.265A10.265,10.265,0,0,1,10.265,0Z" transform="translate(0 0.304)" fill="#102b5e"/>
        <g id="Group_1277" data-name="Group 1277" transform="translate(2.12 12388.684)">
          <g id="Group_1274" data-name="Group 1274" transform="translate(0 102.278)">
            <rect id="Rectangle_3265" data-name="Rectangle 3265" width="132.283" height="25.722" transform="translate(0 -12312.072)" fill="#dfeaff"/>
            <ellipse id="Ellipse_193" data-name="Ellipse 193" cx="7.349" cy="7.961" rx="7.349" ry="7.961" transform="translate(8.574 -12307.173)" fill="#fff" opacity="0.48"/>
            <path id="Path_3526" data-name="Path 3526" d="M2.415,0H54.343a2.415,2.415,0,0,1,2.415,2.415V4.227a2.415,2.415,0,0,1-2.415,2.415H2.415A2.415,2.415,0,0,1,0,4.227V2.415A2.415,2.415,0,0,1,2.415,0Z" transform="translate(37.731 -12302.64)" fill="#fff" opacity="0.48"/>
          </g>
          <g id="Group_1273" data-name="Group 1273" transform="translate(0 68.986)">
            <rect id="Rectangle_3265-2" data-name="Rectangle 3265" width="132.283" height="25.722" transform="translate(0 -12312.502)" fill="#dfeaff"/>
            <ellipse id="Ellipse_193-2" data-name="Ellipse 193" cx="7.349" cy="7.349" rx="7.349" ry="7.349" transform="translate(8.574 -12306.378)" fill="#fff" opacity="0.48"/>
            <path id="Path_3525" data-name="Path 3525" d="M2.415,0H54.343a2.415,2.415,0,0,1,2.415,2.415V4.227a2.415,2.415,0,0,1-2.415,2.415H2.415A2.415,2.415,0,0,1,0,4.227V2.415A2.415,2.415,0,0,1,2.415,0Z" transform="translate(37.731 -12302.64)" fill="#fff" opacity="0.48"/>
          </g>
          <g id="Group_1272" data-name="Group 1272" transform="translate(0 35.696)">
            <rect id="Rectangle_3265-3" data-name="Rectangle 3265" width="132.283" height="24.497" transform="translate(0 -12311.709)" fill="#dfeaff"/>
            <ellipse id="Ellipse_193-3" data-name="Ellipse 193" cx="7.349" cy="7.349" rx="7.349" ry="7.349" transform="translate(8.574 -12306.81)" fill="#fff" opacity="0.48"/>
            <path id="Path_3524" data-name="Path 3524" d="M2.415,0H54.343a2.415,2.415,0,0,1,2.415,2.415V4.227a2.415,2.415,0,0,1-2.415,2.415H2.415A2.415,2.415,0,0,1,0,4.227V2.415A2.415,2.415,0,0,1,2.415,0Z" transform="translate(37.731 -12302.64)" fill="#fff" opacity="0.48"/>
          </g>
          <g id="Group_1271" data-name="Group 1271" transform="translate(0 2.404)">
            <path id="Path_3566" data-name="Path 3566" d="M0,0H132.283V25.722H0Z" transform="translate(0 -12312.139)" fill="#dfeaff"/>
            <ellipse id="Ellipse_193-4" data-name="Ellipse 193" cx="7.349" cy="7.961" rx="7.349" ry="7.961" transform="translate(8.574 -12307.239)" fill="#fff" opacity="0.48"/>
            <path id="Path_3523" data-name="Path 3523" d="M2.415,0H54.343a2.415,2.415,0,0,1,2.415,2.415V4.227a2.415,2.415,0,0,1-2.415,2.415H2.415A2.415,2.415,0,0,1,0,4.227V2.415A2.415,2.415,0,0,1,2.415,0Z" transform="translate(37.731 -12302.64)" fill="#fff" opacity="0.48"/>
          </g>
          <g id="Group_1275" data-name="Group 1275" transform="translate(0.295)">
            <path id="Path_3519" data-name="Path 3519" d="M8.453,0H123.781a8.453,8.453,0,0,1,8.453,8.453V60.381a8.453,8.453,0,0,1-8.453,8.453H0V8.453A8.453,8.453,0,0,1,8.453,0Z" transform="translate(0 -12386.568)" fill="#dfeaff"/>
            <g id="Group_1276" data-name="Group 1276" transform="translate(9.057 -12366.775)">
              <ellipse id="Ellipse_192" data-name="Ellipse 192" cx="12.597" cy="13.693" rx="12.597" ry="13.693" transform="translate(0.634 0)" fill="#fff" opacity="0.48"/>
              <path id="Path_3520" data-name="Path 3520" d="M2.415,0H25.964a2.415,2.415,0,0,1,2.415,2.415V4.227a2.415,2.415,0,0,1-2.415,2.415H2.415A2.415,2.415,0,0,1,0,4.227V2.415A2.415,2.415,0,0,1,2.415,0Z" transform="translate(32.002 3.151)" fill="#fff" opacity="0.48"/>
              <path id="Path_3521" data-name="Path 3521" d="M2.415,0H54.343a2.415,2.415,0,0,1,2.415,2.415V4.227a2.415,2.415,0,0,1-2.415,2.415H2.415A2.415,2.415,0,0,1,0,4.227V2.415A2.415,2.415,0,0,1,2.415,0Z" transform="translate(32.002 13.416)" fill="#fff" opacity="0.48"/>
              <path id="Path_3522" data-name="Path 3522" d="M2.415,0h101.44a2.415,2.415,0,0,1,2.415,2.415V4.227a2.415,2.415,0,0,1-2.415,2.415H2.415A2.415,2.415,0,0,1,0,4.227V2.415A2.415,2.415,0,0,1,2.415,0Z" transform="translate(0 37.568)" fill="#fff" opacity="0.48"/>
            </g>
          </g>
        </g>
        <g id="Group_1280" data-name="Group 1280" transform="translate(2.415 249.678)">
          <path id="Path_3538" data-name="Path 3538" d="M8.453,0H132.838V18.718a8.453,8.453,0,0,1-8.453,8.453H8.453A8.453,8.453,0,0,1,0,18.718V8.453A8.453,8.453,0,0,1,8.453,0Z" transform="translate(0 0)" fill="#f3f5f8"/>
          <rect id="Rectangle_3263" data-name="Rectangle 3263" width="35.053" height="2.191" rx="1.095" transform="translate(49.126 19.792)" fill="#030615"/>
          <g id="_2316807404336-2" data-name="_2316807404336" transform="translate(60.381 4.269)">
            <path id="路径_221-2" data-name="路径 221" d="M2.679,1.413H12.842l1.913,1.762V9.78H11.591V4.25H5.729V9.78H2.679ZM10.193,9.78H7.128V5.97h3.064Z" transform="translate(-2.679 -1.413)" fill="rgba(164,172,177,0.76)" fill-rule="evenodd"/>
            <path id="Path_3506" data-name="Path 3506" d="M-6668.473,8728.286l2.794,0-2.794.385Z" transform="translate(6677.379 -8725.45)" fill="#f3f3f3"/>
            <path id="路径_223-2" data-name="路径 223" d="M2.679,1.413H12.842l1.913,1.762V9.78H11.591V4.25H5.729V9.78H2.679ZM10.193,9.78H7.128V5.97h3.064Z" transform="translate(-2.679 -1.413)" fill="none" fill-rule="evenodd"/>
          </g>
        </g>
      </g>
      <g id="Group_1283" data-name="Group 1283" transform="translate(991.352 1522.273)">
        <path id="Path_3537" data-name="Path 3537" d="M22.945,0H96.61a22.945,22.945,0,0,1,22.945,22.945V219.183A22.945,22.945,0,0,1,96.61,242.128H22.945A22.945,22.945,0,0,1,0,219.183V22.945A22.945,22.945,0,0,1,22.945,0Z" transform="translate(0 0)" fill="#fff"/>
        <path id="Rectangle_3262_-_Outline" data-name="Rectangle 3262 - Outline" d="M22.945,2.415a20.51,20.51,0,0,0-20.53,20.53V219.183a20.511,20.511,0,0,0,20.53,20.53H96.61a20.51,20.51,0,0,0,20.53-20.53V22.945A20.51,20.51,0,0,0,96.61,2.415H22.945m0-2.415H96.61a22.945,22.945,0,0,1,22.945,22.945V219.183A22.945,22.945,0,0,1,96.61,242.128H22.945A22.945,22.945,0,0,1,0,219.183V22.945A22.945,22.945,0,0,1,22.945,0Z" transform="translate(0 0)" fill="#102b5e"/>
        <g id="Group_1270" data-name="Group 1270" transform="translate(2.415 12388.38)">
          <g id="Group_1274-2" data-name="Group 1274" transform="translate(0.035 103.573)">
            <rect id="Rectangle_3265-4" data-name="Rectangle 3265" width="115.135" height="25.722" transform="translate(0 -12312.764)" fill="#dfeaff"/>
            <ellipse id="Ellipse_193-5" data-name="Ellipse 193" cx="7.349" cy="7.349" rx="7.349" ry="7.349" transform="translate(8.574 -12306.639)" fill="#fff" opacity="0.48"/>
            <path id="Path_3534" data-name="Path 3534" d="M2.415,0H54.343a2.415,2.415,0,0,1,2.415,2.415V4.227a2.415,2.415,0,0,1-2.415,2.415H2.415A2.415,2.415,0,0,1,0,4.227V2.415A2.415,2.415,0,0,1,2.415,0Z" transform="translate(28.948 -12302.64)" fill="#fff" opacity="0.48"/>
          </g>
          <g id="Group_1273-2" data-name="Group 1273" transform="translate(0.035 70.282)">
            <path id="Path_3565" data-name="Path 3565" d="M0,0H115.135V24.5H0Z" transform="translate(0 -12311.97)" fill="#dfeaff"/>
            <ellipse id="Ellipse_193-6" data-name="Ellipse 193" cx="7.349" cy="7.349" rx="7.349" ry="7.349" transform="translate(8.574 -12307.07)" fill="#fff" opacity="0.48"/>
            <path id="Path_3533" data-name="Path 3533" d="M2.415,0H54.343a2.415,2.415,0,0,1,2.415,2.415V4.227a2.415,2.415,0,0,1-2.415,2.415H2.415A2.415,2.415,0,0,1,0,4.227V2.415A2.415,2.415,0,0,1,2.415,0Z" transform="translate(28.948 -12302.64)" fill="#fff" opacity="0.48"/>
          </g>
          <g id="Group_1272-2" data-name="Group 1272" transform="translate(0.035 36.99)">
            <rect id="Rectangle_3265-5" data-name="Rectangle 3265" width="115.135" height="25.722" transform="translate(0 -12312.399)" fill="#dfeaff"/>
            <ellipse id="Ellipse_193-7" data-name="Ellipse 193" cx="7.349" cy="7.349" rx="7.349" ry="7.349" transform="translate(8.574 -12306.275)" fill="#fff" opacity="0.48"/>
            <path id="Path_3532" data-name="Path 3532" d="M2.415,0H54.343a2.415,2.415,0,0,1,2.415,2.415V4.227a2.415,2.415,0,0,1-2.415,2.415H2.415A2.415,2.415,0,0,1,0,4.227V2.415A2.415,2.415,0,0,1,2.415,0Z" transform="translate(28.948 -12302.64)" fill="#fff" opacity="0.48"/>
          </g>
          <g id="Group_1271-2" data-name="Group 1271" transform="translate(0.035 3.7)">
            <rect id="Rectangle_3265-6" data-name="Rectangle 3265" width="115.135" height="25.722" transform="translate(0 -12312.831)" fill="#dfeaff"/>
            <ellipse id="Ellipse_193-8" data-name="Ellipse 193" cx="7.349" cy="7.349" rx="7.349" ry="7.349" transform="translate(8.574 -12306.706)" fill="#fff" opacity="0.48"/>
            <path id="Path_3531" data-name="Path 3531" d="M2.415,0H54.343a2.415,2.415,0,0,1,2.415,2.415V4.227a2.415,2.415,0,0,1-2.415,2.415H2.415A2.415,2.415,0,0,1,0,4.227V2.415A2.415,2.415,0,0,1,2.415,0Z" transform="translate(28.948 -12302.64)" fill="#fff" opacity="0.48"/>
          </g>
          <g id="Group_1275-2" data-name="Group 1275">
            <path id="Path_3527" data-name="Path 3527" d="M21.737,0h71.25a21.737,21.737,0,0,1,21.737,21.737v47.1H0v-47.1A21.737,21.737,0,0,1,21.737,0Z" transform="translate(0 -12385.965)" fill="#dfeaff"/>
            <g id="Group_1276-2" data-name="Group 1276" transform="translate(8.954 -12366.363)">
              <circle id="Ellipse_192-2" data-name="Ellipse 192" cx="13.145" cy="13.145" r="13.145" transform="translate(0 0)" fill="#fff" opacity="0.48"/>
              <path id="Path_3528" data-name="Path 3528" d="M2.415,0H25.964a2.415,2.415,0,0,1,2.415,2.415V4.227a2.415,2.415,0,0,1-2.415,2.415H2.415A2.415,2.415,0,0,1,0,4.227V2.415A2.415,2.415,0,0,1,2.415,0Z" transform="translate(32.105 3.947)" fill="#fff" opacity="0.48"/>
              <path id="Path_3529" data-name="Path 3529" d="M2.415,0H54.343a2.415,2.415,0,0,1,2.415,2.415V4.227a2.415,2.415,0,0,1-2.415,2.415H2.415A2.415,2.415,0,0,1,0,4.227V2.415A2.415,2.415,0,0,1,2.415,0Z" transform="translate(32.105 14.211)" fill="#fff" opacity="0.48"/>
              <path id="Path_3530" data-name="Path 3530" d="M2.415,0h83.93A2.415,2.415,0,0,1,88.76,2.415V4.227a2.415,2.415,0,0,1-2.415,2.415H2.415A2.415,2.415,0,0,1,0,4.227V2.415A2.415,2.415,0,0,1,2.415,0Z" transform="translate(0.103 37.156)" fill="#fff" opacity="0.48"/>
            </g>
          </g>
        </g>
        <g id="Group_1279" data-name="Group 1279" transform="translate(2.415 211.938)">
          <path id="Path_3535" data-name="Path 3535" d="M0,0H114.724V5.434A21.737,21.737,0,0,1,92.987,27.171H21.737A21.737,21.737,0,0,1,0,5.434Z" fill="#f3f5f8"/>
          <path id="Path_3536" data-name="Path 3536" d="M1.208,0H33.813a1.208,1.208,0,0,1,0,2.415H1.208A1.208,1.208,0,1,1,1.208,0Z" transform="translate(39.852 19.926)" fill="#030615"/>
          <g id="_2316807404336-3" data-name="_2316807404336" transform="translate(51.324 4.269)">
            <path id="路径_221-3" data-name="路径 221" d="M2.679,1.413H12.842l1.913,1.762V9.78H11.591V4.25H5.729V9.78H2.679ZM10.193,9.78H7.128V5.97h3.064Z" transform="translate(-2.679 -1.413)" fill="rgba(164,172,177,0.76)" fill-rule="evenodd"/>
            <path id="Path_3506-2" data-name="Path 3506" d="M-6668.473,8728.286l2.794,0-2.794.385Z" transform="translate(6677.379 -8725.45)" fill="#f3f3f3"/>
            <path id="路径_223-3" data-name="路径 223" d="M2.679,1.413H12.842l1.913,1.762V9.78H11.591V4.25H5.729V9.78H2.679ZM10.193,9.78H7.128V5.97h3.064Z" transform="translate(-2.679 -1.413)" fill="none" fill-rule="evenodd"/>
          </g>
        </g>
      </g>
      <g id="Group_1284" data-name="Group 1284" transform="translate(905.46 1537.399)">
        <g id="密码大师" transform="translate(0 0)">
          <g transform="matrix(1, 0, 0, 1, -255.46, -204.65)" filter="url(#Path_1924)">
            <path id="Path_1924-2" data-name="Path 1924" d="M58.259,0A58.259,58.259,0,1,1,0,58.259,58.259,58.259,0,0,1,58.259,0Z" transform="translate(255.46 204.65)" stroke="#1b90fb" stroke-width="10" fill="url(#linear-gradient-2)"/>
          </g>
          <g id="编组_2" data-name="编组 2" transform="translate(27.281 32.709)">
            <rect id="矩形" width="61.9" height="61.9" fill="none"/>
            <g id="编组" transform="translate(0 0.713)">
              <path id="形状" d="M18.585,42.043A17.512,17.512,0,0,1,17.7,39.91l-1.178,1.781c-.348,0-.687.352-1.38.352a1.783,1.783,0,0,1-1.373-.7,1.584,1.584,0,0,1,0-1.736l3.112-4.719.017-.167a1.646,1.646,0,0,1,.439-.882l-.038.063a1.464,1.464,0,0,1,1.488-.543,1.7,1.7,0,0,1,1.059.487l4.935,3.328a1.27,1.27,0,0,1,.687,1.736,1.891,1.891,0,0,1-1.718,1.039,1.252,1.252,0,0,1-1.032-.348l-1.938-1.289a10.118,10.118,0,0,0,.9,1.986,10.729,10.729,0,0,0,14.456,4.51A11.46,11.46,0,0,0,41.3,39.258c.345-.7,1.377-1.387,2.063-1.042S44.747,39.61,44.4,40.3a15.657,15.657,0,0,1-6.541,7.632,18.646,18.646,0,0,1-5.7,1.683l-1.178.056A13.7,13.7,0,0,1,18.585,42.043Zm32.013-4.7A12.4,12.4,0,0,0,58.171,26.1a12.45,12.45,0,0,0-9.984-11.894l-1.035-.331-.338-.99A13.584,13.584,0,0,0,33.731,3.635a13.682,13.682,0,0,0-13.079,9.253l-.345,1.652-1.722-.331a4.512,4.512,0,0,0-2.063-.331A12.459,12.459,0,0,0,3.785,26.1a11.921,11.921,0,0,0,7.921,10.9v3.966C4.816,38.99,0,33.048,0,26.1a15.908,15.908,0,0,1,16.174-15.86h1.035A17.677,17.677,0,0,1,33.389,0,17.865,17.865,0,0,1,49.908,10.9,15.97,15.97,0,0,1,61.956,26.1c0,6.939-4.816,12.887-11.357,15.2Zm-8.263-1.9-.237-.153-4.924-3.314a1.626,1.626,0,0,1-.348-2.426,1.6,1.6,0,0,1,2.412-.352l1.931,1.289a9.663,9.663,0,0,0-.9-1.983c-2.412-5.2-8.949-7.291-14.459-4.513a11.484,11.484,0,0,0-5.161,5.559c-.345.69-1.38,1.387-2.067,1.035-.345,0-.687-.345-1.032-1.035-.345-.352-.345-.7,0-1.394a15.688,15.688,0,0,1,6.541-7.632c6.883-3.471,15.491-1.042,18.927,5.9a17.091,17.091,0,0,1,1.213,3.206l1.2-1.816a1.6,1.6,0,0,1,2.412-.352,1.625,1.625,0,0,1,.342,2.426L44.747,35.1a2.039,2.039,0,0,1-1,.648l-.38.042A1.245,1.245,0,0,1,42.335,35.442Z" transform="translate(0 0)" fill="#1b90fb"/>
            </g>
          </g>
        </g>
      </g>
    </g>
  </g>
</svg>
