<svg id="shape_devider" xmlns="http://www.w3.org/2000/svg" width="1440" height="163.836" viewBox="0 0 1440 163.836">
  <path id="Path_3551" data-name="Path 3551" d="M-29.316,177.42V150.066c57.99-5.164,110.921-7.879,157.777-9.139,50.376-1.351,96.239-3.058,157.448.7,61.608,3.779,84.105,9.349,163.047,13.3,38.585,1.931,71.509,3.5,115.462,2.1,26.241-.84,71.761-3.219,139.954-13.3,62.573-9.244,101.893-18.7,193.136-39.887,128.625-29.859,192.933-44.792,211.33-48.284a2419.174,2419.174,0,0,1,255.416-34.988c18.733-1.532,34.632-2.61,46.416-3.338V177.5h-1440A.294.294,0,0,0-29.316,177.42Z" transform="translate(29.33 -17.23)" fill="#e8e8e8" opacity="0.5"/>
  <path id="Path_3552" data-name="Path 3552" d="M119.581,167.052c41.133-2.876,81.614-5.647,136.455-6.3,30.391-.357,74.043-.791,130.857,2.8,23.6,1.491,20.482,1.847,88.871,7,60.544,4.562,77.066,5.346,95.868,5.6,7.914.1,37.655.406,76.975-2.1,38.13-2.428,75.631-6.879,129.457-16.095,48.431-8.292,80.4-15.367,141.353-28.69,183.99-40.208,204.158-43.819,222.527-46.884,88-14.7,139.275-17.788,163.746-18.894,42.651-1.931,78.605-1.211,104.8-.035V194.595H-28.77V181.047C30.368,174.035,80.8,169.767,119.581,167.052Z" transform="translate(29.113 -30.759)" fill="#e8e8e8"/>
</svg>
