<svg xmlns="http://www.w3.org/2000/svg" xmlns:xlink="http://www.w3.org/1999/xlink" width="40" height="40" viewBox="0 0 40 40"><defs><style>.a{fill:url(#a);}.b{fill:url(#b);}.c{fill:url(#c);}.d{fill:url(#d);}.e{fill:url(#e);}.f{fill:url(#f);}.g{fill:url(#g);}.h{fill:url(#h);}.i{fill:url(#i);}.j{fill:url(#j);}.k{fill:url(#k);}.l{fill:url(#l);}.m{fill:none;}</style><linearGradient id="a" x1="0.914" y1="0.155" x2="0.083" y2="0.932" gradientUnits="objectBoundingBox"><stop offset="0.048" stop-color="#fff44f"/><stop offset="0.111" stop-color="#ffe847"/><stop offset="0.225" stop-color="#ffc830"/><stop offset="0.368" stop-color="#ff980e"/><stop offset="0.401" stop-color="#ff8b16"/><stop offset="0.462" stop-color="#ff672a"/><stop offset="0.534" stop-color="#ff3647"/><stop offset="0.705" stop-color="#e31587"/></linearGradient><radialGradient id="b" cx="0.865" cy="-0.127" r="1.284" gradientTransform="translate(-19.131) scale(0.813 1)" gradientUnits="objectBoundingBox"><stop offset="0.129" stop-color="#ffbd4f"/><stop offset="0.186" stop-color="#ffac31"/><stop offset="0.247" stop-color="#ff9d17"/><stop offset="0.283" stop-color="#ff980e"/><stop offset="0.403" stop-color="#ff563b"/><stop offset="0.467" stop-color="#ff3750"/><stop offset="0.71" stop-color="#f5156c"/><stop offset="0.782" stop-color="#eb0878"/><stop offset="0.86" stop-color="#e50080"/></radialGradient><radialGradient id="c" cx="0.478" cy="0.397" r="1.284" gradientTransform="translate(-19.204) scale(0.813 1)" gradientUnits="objectBoundingBox"><stop offset="0.3" stop-color="#960e18"/><stop offset="0.351" stop-color="#b11927" stop-opacity="0.741"/><stop offset="0.435" stop-color="#db293d" stop-opacity="0.341"/><stop offset="0.497" stop-color="#f5334b" stop-opacity="0.094"/><stop offset="0.53" stop-color="#ff3750" stop-opacity="0"/></radialGradient><radialGradient id="d" cx="0.515" cy="-0.285" r="1.855" gradientTransform="translate(299.225) scale(1.698 1)" gradientUnits="objectBoundingBox"><stop offset="0.132" stop-color="#fff44f"/><stop offset="0.252" stop-color="#ffdc3e"/><stop offset="0.506" stop-color="#ff9d12"/><stop offset="0.526" stop-color="#ff980e"/></radialGradient><radialGradient id="e" cx="0.193" cy="1.101" r="1.019" gradientTransform="translate(22.283) scale(1.096 1)" gradientUnits="objectBoundingBox"><stop offset="0.353" stop-color="#3a8ee6"/><stop offset="0.472" stop-color="#5c79f0"/><stop offset="0.669" stop-color="#9059ff"/><stop offset="1" stop-color="#c139e6"/></radialGradient><radialGradient id="f" cx="0.568" cy="0.36" r="0.541" gradientTransform="matrix(1.066, -0.235, 0.301, 1.138, 83.169, -23.165)" gradientUnits="objectBoundingBox"><stop offset="0.206" stop-color="#9059ff" stop-opacity="0"/><stop offset="0.278" stop-color="#8c4ff3" stop-opacity="0.063"/><stop offset="0.747" stop-color="#7716a8" stop-opacity="0.451"/><stop offset="0.975" stop-color="#6e008b" stop-opacity="0.6"/></radialGradient><radialGradient id="g" cx="2.085" cy="-0.994" r="2.922" gradientTransform="translate(3.126)" gradientUnits="objectBoundingBox"><stop offset="0" stop-color="#ffe226"/><stop offset="0.121" stop-color="#ffdb27"/><stop offset="0.295" stop-color="#ffc82a"/><stop offset="0.502" stop-color="#ffa930"/><stop offset="0.732" stop-color="#ff7e37"/><stop offset="0.792" stop-color="#ff7139"/></radialGradient><radialGradient id="h" cx="0.797" cy="-0.409" r="1.938" gradientTransform="translate(-17.512) scale(0.839 1)" gradientUnits="objectBoundingBox"><stop offset="0.113" stop-color="#fff44f"/><stop offset="0.456" stop-color="#ff980e"/><stop offset="0.622" stop-color="#ff5634"/><stop offset="0.716" stop-color="#ff3647"/><stop offset="0.904" stop-color="#e31587"/></radialGradient><radialGradient id="i" cx="0.08" cy="-0.104" r="1.651" gradientTransform="matrix(0.222, 0.994, -1.379, 0.069, -474.288, 168.153)" gradientUnits="objectBoundingBox"><stop offset="0" stop-color="#fff44f"/><stop offset="0.06" stop-color="#ffe847"/><stop offset="0.168" stop-color="#ffc830"/><stop offset="0.304" stop-color="#ff980e"/><stop offset="0.356" stop-color="#ff8b16"/><stop offset="0.455" stop-color="#ff672a"/><stop offset="0.57" stop-color="#ff3647"/><stop offset="0.737" stop-color="#e31587"/></radialGradient><radialGradient id="j" cx="0.175" cy="-0.421" r="2.387" gradientTransform="translate(-4.688) scale(0.981 1)" gradientUnits="objectBoundingBox"><stop offset="0.137" stop-color="#fff44f"/><stop offset="0.48" stop-color="#ff980e"/><stop offset="0.592" stop-color="#ff5634"/><stop offset="0.655" stop-color="#ff3647"/><stop offset="0.904" stop-color="#e31587"/></radialGradient><radialGradient id="k" cx="1.562" cy="-0.451" r="3.128" gradientTransform="translate(-28.753) scale(0.896 1)" gradientUnits="objectBoundingBox"><stop offset="0.094" stop-color="#fff44f"/><stop offset="0.231" stop-color="#ffe141"/><stop offset="0.509" stop-color="#ffaf1e"/><stop offset="0.626" stop-color="#ff980e"/></radialGradient><linearGradient id="l" x1="0.904" y1="0.151" x2="0.197" y2="0.836" gradientUnits="objectBoundingBox"><stop offset="0.167" stop-color="#fff44f" stop-opacity="0.8"/><stop offset="0.266" stop-color="#fff44f" stop-opacity="0.635"/><stop offset="0.489" stop-color="#fff44f" stop-opacity="0.216"/><stop offset="0.6" stop-color="#fff44f" stop-opacity="0"/></linearGradient></defs><g transform="translate(0.63 0.018)"><path class="a" d="M37.331,13.422a10.88,10.88,0,0,0-3.89-4.908A20.145,20.145,0,0,1,35.405,14.4l0,.033C33.217,8.968,29.5,6.762,26.464,1.964q-.235-.367-.457-.742-.114-.2-.214-.4A3.528,3.528,0,0,1,25.5.054.05.05,0,0,0,25.461,0a.069.069,0,0,0-.037,0s-.007,0-.01.006L25.4.017,25.408,0a14.142,14.142,0,0,0-6.673,10.771A9.7,9.7,0,0,0,13.4,12.831a5.8,5.8,0,0,0-.5-.379,8.99,8.99,0,0,1-.055-4.739,14.357,14.357,0,0,0-4.667,3.607H8.166c-.768-.974-.714-4.186-.67-4.857a3.466,3.466,0,0,0-.647.344A14.117,14.117,0,0,0,4.954,8.43,16.929,16.929,0,0,0,3.141,10.6v0a16.374,16.374,0,0,0-2.6,5.873l-.026.128q-.107.6-.191,1.211a.409.409,0,0,1,0,.043A18.48,18.48,0,0,0,0,20.531v.1A19.39,19.39,0,0,0,38.5,23.91c.033-.25.059-.5.088-.75a19.94,19.94,0,0,0-1.258-9.74ZM14.985,28.6c.091.044.176.091.269.132l.014.009q-.141-.068-.282-.141ZM35.409,14.436v-.019l0,.021Z" transform="translate(0 -0.009)"/><path class="b" d="M37.335,21.928a10.88,10.88,0,0,0-3.89-4.908A20.145,20.145,0,0,1,35.409,22.9v.019l0,.021a17.559,17.559,0,0,1-.6,13.087,16.664,16.664,0,0,1-16.018,9.415A19.521,19.521,0,0,1,.187,29.6a8.361,8.361,0,0,1,.137-3.234,14.447,14.447,0,0,0-.312,2.675v.1a19.39,19.39,0,0,0,38.495,3.279c.033-.25.059-.5.088-.75a19.94,19.94,0,0,0-1.258-9.74Z" transform="translate(-0.004 -8.515)"/><path class="c" d="M37.335,21.928a10.88,10.88,0,0,0-3.89-4.908A20.145,20.145,0,0,1,35.409,22.9v.019l0,.021a17.559,17.559,0,0,1-.6,13.087,16.664,16.664,0,0,1-16.018,9.415A19.521,19.521,0,0,1,.187,29.6a8.361,8.361,0,0,1,.137-3.234,14.447,14.447,0,0,0-.312,2.675v.1a19.39,19.39,0,0,0,38.495,3.279c.033-.25.059-.5.088-.75a19.94,19.94,0,0,0-1.258-9.74Z" transform="translate(-0.004 -8.515)"/><path class="d" d="M46.614,15.7c.042.03.081.059.121.089a10.556,10.556,0,0,0-1.8-2.349C38.905,7.41,43.354.371,44.1.011L44.111,0a14.142,14.142,0,0,0-6.673,10.771c.226-.016.45-.035.681-.035A9.785,9.785,0,0,1,46.614,15.7Z" transform="translate(-18.707 -0.009)"/><path class="e" d="M30.089,27.628a4.68,4.68,0,0,1-2.332,2.146c-5.513,0-6.408,3.335-6.408,3.335a8.183,8.183,0,0,0,4.567,6.343c.108.056.218.107.327.156q.285.126.569.233a8.625,8.625,0,0,0,2.523.487C39,40.781,40.871,28.772,33.9,25.285a6.693,6.693,0,0,1,4.675,1.135,9.785,9.785,0,0,0-8.494-4.961c-.23,0-.455.019-.681.035a9.7,9.7,0,0,0-5.338,2.057c.3.25.629.584,1.332,1.277,1.316,1.3,4.69,2.639,4.7,2.8Z" transform="translate(-10.667 -10.733)"/><path class="f" d="M30.089,27.628a4.68,4.68,0,0,1-2.332,2.146c-5.513,0-6.408,3.335-6.408,3.335a8.183,8.183,0,0,0,4.567,6.343c.108.056.218.107.327.156q.285.126.569.233a8.625,8.625,0,0,0,2.523.487C39,40.781,40.871,28.772,33.9,25.285a6.693,6.693,0,0,1,4.675,1.135,9.785,9.785,0,0,0-8.494-4.961c-.23,0-.455.019-.681.035a9.7,9.7,0,0,0-5.338,2.057c.3.25.629.584,1.332,1.277,1.316,1.3,4.69,2.639,4.7,2.8Z" transform="translate(-10.667 -10.733)"/><path class="g" d="M20.643,19.891c.157.1.287.187.4.266a8.99,8.99,0,0,1-.055-4.739,14.357,14.357,0,0,0-4.667,3.607c.095,0,2.907-.053,4.321.866Z" transform="translate(-8.155 -7.714)"/><path class="h" d="M.257,27.554A19.519,19.519,0,0,0,18.861,43.4a16.67,16.67,0,0,0,16.018-9.415,17.559,17.559,0,0,0,.6-13.087v-.019c0-.015,0-.023,0-.019l0,.033c.688,4.491-1.6,8.84-5.168,11.786l-.011.025c-6.959,5.668-13.617,3.419-14.963,2.5q-.141-.068-.282-.141c-4.057-1.939-5.733-5.633-5.373-8.8A4.979,4.979,0,0,1,5.1,23.374a7.314,7.314,0,0,1,7.129-.286,9.655,9.655,0,0,0,7.279.286c-.008-.158-3.382-1.5-4.7-2.8-.7-.693-1.037-1.027-1.332-1.277a5.8,5.8,0,0,0-.5-.379c-.115-.079-.245-.164-.4-.266-1.414-.919-4.227-.869-4.32-.866H8.246c-.768-.974-.714-4.186-.67-4.857a3.466,3.466,0,0,0-.647.344A14.117,14.117,0,0,0,5.033,14.9a16.929,16.929,0,0,0-1.82,2.17v0a16.374,16.374,0,0,0-2.6,5.873,14.513,14.513,0,0,0-.359,4.613Z" transform="translate(-0.077 -6.472)"/><path class="i" d="M49.312,13.428a10.555,10.555,0,0,1,1.8,2.351c.107.081.206.161.291.238C55.8,20.069,53.5,25.8,53.325,26.2c3.571-2.942,5.853-7.294,5.168-11.786C56.3,8.949,52.579,6.743,49.548,1.945q-.235-.367-.457-.742-.114-.2-.214-.4a3.528,3.528,0,0,1-.289-.768.05.05,0,0,0-.044-.05.069.069,0,0,0-.037,0s-.007,0-.01.006L48.484,0c-.75.356-5.2,7.4.83,13.422Z" transform="translate(-23.087)"/><path class="j" d="M43.546,30.524q-.14-.126-.291-.238c-.04-.03-.079-.059-.121-.089a6.693,6.693,0,0,0-4.675-1.135c6.974,3.487,5.1,15.493-4.562,15.043a8.624,8.624,0,0,1-2.523-.487q-.285-.107-.569-.233c-.11-.05-.219-.1-.327-.156l.014.009c1.348.92,8,3.168,14.963-2.5l.011-.025c.174-.405,2.477-6.133-1.921-10.185Z" transform="translate(-15.23 -14.504)"/><path class="k" d="M15.688,38.189s.895-3.335,6.408-3.335a4.674,4.674,0,0,0,2.332-2.146,9.655,9.655,0,0,1-7.279-.286,7.314,7.314,0,0,0-7.129.286A4.979,4.979,0,0,0,14.614,35.6c-.359,3.17,1.317,6.864,5.373,8.8.091.044.176.091.269.132a8.185,8.185,0,0,1-4.567-6.343Z" transform="translate(-5.006 -15.816)"/><path class="l" d="M37.332,13.422a10.88,10.88,0,0,0-3.89-4.908A20.145,20.145,0,0,1,35.406,14.4l0,.033C33.218,8.968,29.5,6.762,26.465,1.964q-.235-.367-.457-.742-.114-.2-.214-.4a3.528,3.528,0,0,1-.289-.768A.05.05,0,0,0,25.462,0a.069.069,0,0,0-.037,0s-.007,0-.01.006L25.4.017,25.409,0a14.142,14.142,0,0,0-6.673,10.771c.226-.016.45-.035.681-.035A9.785,9.785,0,0,1,27.911,15.7a6.693,6.693,0,0,0-4.675-1.135c6.974,3.487,5.1,15.493-4.562,15.043a8.625,8.625,0,0,1-2.523-.487q-.285-.107-.569-.233c-.11-.05-.219-.1-.327-.156l.014.009q-.141-.068-.282-.141c.091.044.176.091.269.132a8.186,8.186,0,0,1-4.567-6.343s.895-3.335,6.408-3.335a4.674,4.674,0,0,0,2.332-2.146c-.008-.158-3.382-1.5-4.7-2.8-.7-.693-1.037-1.027-1.332-1.277a5.8,5.8,0,0,0-.5-.379,8.99,8.99,0,0,1-.055-4.739,14.357,14.357,0,0,0-4.667,3.607H8.168c-.768-.974-.714-4.186-.67-4.857a3.466,3.466,0,0,0-.647.344A14.117,14.117,0,0,0,4.956,8.434a16.929,16.929,0,0,0-1.812,2.175v0a16.373,16.373,0,0,0-2.6,5.873l-.026.128c-.037.171-.2,1.037-.224,1.223a22.557,22.557,0,0,0-.286,2.7v.1A19.39,19.39,0,0,0,38.5,23.914c.033-.25.059-.5.088-.75a19.94,19.94,0,0,0-1.258-9.74Zm-1.924,1,0,.021Z" transform="translate(-0.001 -0.009)"/><rect class="m" width="40" height="40" transform="translate(-0.63 -0.018)"/></g></svg>