<svg xmlns="http://www.w3.org/2000/svg" xmlns:xlink="http://www.w3.org/1999/xlink" width="22.055" height="22" viewBox="0 0 22.055 22"><defs><style>.a{fill:none;}.b{fill:url(#a);}.c{fill:url(#b);}.d{fill:url(#c);}.e{fill:url(#d);}</style><linearGradient id="a" x1="0.5" x2="0.5" y2="1" gradientUnits="objectBoundingBox"><stop offset="0" stop-color="#514b3f"/><stop offset="1" stop-color="#282d33"/></linearGradient><linearGradient id="b" x1="0.5" x2="0.5" y2="1" gradientUnits="objectBoundingBox"><stop offset="0" stop-color="#ffdf96"/><stop offset="0.506" stop-color="#f2cc8d"/><stop offset="1" stop-color="#f4ce8f"/></linearGradient><linearGradient id="c" x1="0.5" x2="0.5" y2="1" gradientUnits="objectBoundingBox"><stop offset="0" stop-color="#ffe2a6"/><stop offset="1" stop-color="#efcc8c"/></linearGradient><linearGradient id="d" x1="0.5" x2="0.5" y2="1" gradientUnits="objectBoundingBox"><stop offset="0" stop-color="#fbebc9"/><stop offset="1" stop-color="#fdd693"/></linearGradient></defs><g transform="translate(-525.979 -327)"><rect class="a" width="22" height="22" transform="translate(525.979 327)"/><g transform="translate(519.034 320.388)"><path class="b" d="M96.437,117.183a.9.9,0,0,0-.484.141l-4.036,2.57-4.177-5.322a.9.9,0,0,0-1.416,0l-4.177,5.322-4.036-2.57a.9.9,0,0,0-.484-.141,1.185,1.185,0,0,0-1.193,1.173.9.9,0,0,0,.013.154l2.429,14a1.187,1.187,0,0,0,1.188,1.069H94a1.187,1.187,0,0,0,1.188-1.069l2.429-14a.9.9,0,0,0,.013-.154A1.185,1.185,0,0,0,96.437,117.183Z" transform="translate(-69.059 -106.683)"/><path class="c" d="M86.962,113.728a1.322,1.322,0,0,1,1.046.509l3.937,5.015,3.707-2.36a1.328,1.328,0,0,1,.715-.208,1.615,1.615,0,0,1,1.623,1.6,1.333,1.333,0,0,1-.02.227L95.543,132.5a1.627,1.627,0,0,1-1.615,1.441H80a1.627,1.627,0,0,1-1.615-1.441l-2.427-13.987a1.332,1.332,0,0,1-.02-.227,1.615,1.615,0,0,1,1.623-1.6,1.328,1.328,0,0,1,.714.208l3.707,2.361,3.937-5.015A1.322,1.322,0,0,1,86.962,113.728ZM91.75,120.4l-4.418-5.629a.47.47,0,0,0-.74,0L82.175,120.4l-4.364-2.779a.469.469,0,0,0-.253-.074.754.754,0,0,0-.763.743.469.469,0,0,0,.007.08l2.434,14.038a.76.76,0,0,0,.76.677H93.929a.76.76,0,0,0,.76-.678l0-.035,2.429-14a.471.471,0,0,0,.007-.08.754.754,0,0,0-.763-.743.469.469,0,0,0-.253.074Z" transform="translate(-68.99 -106.613)"/><path class="d" d="M3.919,6.933A.86.86,0,0,1,3.127,6.5L.116,1.291A.86.86,0,1,1,1.606.431L3.919,4.438,6.233.43a.86.86,0,0,1,1.49.86L4.712,6.5a.86.86,0,0,1-.746.43Z" transform="translate(14.053 16.018)"/><path class="e" d="M293.3-16311.557h-.092a1.042,1.042,0,0,1-.9-.518l-3.008-5.215a1.012,1.012,0,0,1-.105-.779,1.017,1.017,0,0,1,.482-.627,1.024,1.024,0,0,1,.516-.141,1.038,1.038,0,0,1,.894.516l2.164,3.75,2.163-3.748a1.036,1.036,0,0,1,.894-.518,1.03,1.03,0,0,1,.517.141,1.019,1.019,0,0,1,.481.627,1.015,1.015,0,0,1-.106.781l-3.007,5.213A1.039,1.039,0,0,1,293.3-16311.557Zm-.046-.346h.009l.037,0a.7.7,0,0,0,.6-.346l3.008-5.213a.677.677,0,0,0,.071-.52.671.671,0,0,0-.321-.418.679.679,0,0,0-.345-.094.692.692,0,0,0-.6.344l-2.461,4.266-.149-.258-2.312-4.008a.691.691,0,0,0-.6-.344.691.691,0,0,0-.345.092.678.678,0,0,0-.322.42.673.673,0,0,0,.07.518l3.009,5.215a.7.7,0,0,0,.6.346l.037,0Z" transform="translate(-275.284 16334.682)"/></g></g></svg>