<svg xmlns="http://www.w3.org/2000/svg" width="20" height="20" viewBox="0 0 20 20"><defs><style>.a{fill:none;}.b{fill:#212121;}</style></defs><rect class="a" width="20" height="20" rx="2"/><path class="b" d="M204.741,242.03h8.307a1.994,1.994,0,0,1,1.663.89l2.2,3.3a2,2,0,0,1-.186,2.455l-6.813,7.481a1.379,1.379,0,0,1-2.038,0l-6.813-7.482a1.991,1.991,0,0,1-.186-2.454l2.2-3.3A1.994,1.994,0,0,1,204.741,242.03Zm10.677,4.676-1.966-2.949a.5.5,0,0,0-.41-.218h-1.26l.848,3.168ZM206,243.539h-1.264a.488.488,0,0,0-.407.218l-1.966,2.949h2.788Zm-.8,4.682h-2.554l4.869,5.8Zm5.773,0h-4.173l2.087,5.7Zm4.148,0h-2.545l-2.2,5.529Zm-4.911-4.679h-2.648l-.848,3.168h4.345Z" transform="translate(-198.892 -239.03)"/></svg>