<svg xmlns="http://www.w3.org/2000/svg" width="36" height="36" viewBox="0 0 36 36"><defs><style>.a{fill:none;}.b{fill:#89c1e1;}.c{fill:#d2edf7;}.d{fill:#83c6ef;}.e{fill:#ffd858;}.f{fill:#fdc223;}.g{fill:#4cabe9;}</style></defs><g transform="translate(-2 -2)"><rect class="a" width="36" height="36" transform="translate(2 2)"/><g transform="translate(-140.262 -18.586)"><path class="b" d="M167.078,29.228H153.444a1.544,1.544,0,0,1-1.544-1.544V27.4h16.723v.286A1.542,1.542,0,0,1,167.078,29.228Z"/><path class="c" d="M233.432,115.338c3.664,0,6.632-3.913,6.632-8.738H226.8C226.8,111.427,229.769,115.338,233.432,115.338Z" transform="translate(-73.171 -77.372)"/><path class="b" d="M153.53,917.2H167a1.63,1.63,0,0,1,1.63,1.63v.2H151.9v-.2A1.628,1.628,0,0,1,153.53,917.2Z" transform="translate(0 -869.259)"/><path class="c" d="M233.432,538.6c-3.664,0-6.632,3.913-6.632,8.738h13.267C240.067,542.513,237.1,538.6,233.432,538.6Z" transform="translate(-73.171 -499.399)"/><path class="d" d="M514.2,106.6v8.738c3.661,0,6.63-3.913,6.63-8.738Z" transform="translate(-353.936 -77.372)"/><path class="c" d="M486.4,435.6h1.281v3.751H486.4Z" transform="translate(-326.778 -398.777)"/><path class="d" d="M514.1,547.338h6.632c0-4.825-2.969-8.738-6.632-8.738Z" transform="translate(-353.839 -499.399)"/><path class="d" d="M514.1,435.6h.639v3.751H514.1Z" transform="translate(-353.839 -398.777)"/><path class="e" d="M249.1,253.2c1,3.144,3.363,5.353,6.117,5.353s5.113-2.209,6.117-5.353Z" transform="translate(-94.956 -220.587)"/><path class="f" d="M269.636,806.709a8.017,8.017,0,0,0-11.836,0Z" transform="translate(-103.455 -758.77)"/><path class="f" d="M501.6,588.751c0,.36.13.651.291.651s.291-.291.291-.651-.13-.651-.291-.651S501.6,588.391,501.6,588.751Z" transform="translate(-341.627 -547.756)"/><path class="f" d="M501.6,672.151c0,.359.13.651.291.651s.291-.292.291-.651-.13-.651-.291-.651S501.6,671.791,501.6,672.151Z" transform="translate(-341.627 -629.231)"/><path class="f" d="M501.5,768.651c0,.359.13.651.291.651s.291-.292.291-.651-.13-.651-.291-.651S501.5,768.291,501.5,768.651Z" transform="translate(-341.53 -723.503)"/><path class="f" d="M305.448,258.027a20.756,20.756,0,0,1-2.348-.136,6.028,6.028,0,0,0,4.871,2.814c2.738,0,5.088-2.186,6.1-5.3C312.812,256.928,309.432,258.027,305.448,258.027Z" transform="translate(-147.71 -222.737)"/><path class="g" d="M514.1,27.4v1.831h6.967a1.4,1.4,0,0,0,1.394-1.394V27.4Zm6.967,20.539H514.1v1.831h8.359v-.434A1.4,1.4,0,0,0,521.067,47.939Z" transform="translate(-353.839)"/></g></g></svg>