<svg xmlns="http://www.w3.org/2000/svg" width="32" height="32" viewBox="0 0 32 32"><defs><style>.a,.i{fill:none;}.b{fill:#f2b04e;}.c{fill:#ffdc71;}.d{fill:#ffcc31;}.e{fill:#fa7b4d;}.f{fill:#fbbb4c;}.g{fill:rgba(244,181,56,0.42);}.h{fill:#dd8d1a;}.i{stroke:#fff;stroke-linecap:round;stroke-linejoin:round;stroke-width:2px;}</style></defs><g transform="translate(-3.697 -32)"><g transform="translate(3.697 32)"><rect class="a" width="32" height="32"/><g transform="translate(0.61 0)"><path class="b" d="M129.173,145.173m-15.173,0A15.173,15.173,0,1,0,129.173,130,15.173,15.173,0,0,0,114,145.173Z" transform="translate(-114 -128.78)"/><path class="c" d="M129.173,113.173m-15.173,0A15.173,15.173,0,1,0,129.173,98,15.173,15.173,0,0,0,114,113.173Z" transform="translate(-114 -98)"/><path class="d" d="M240.751,224.75m-10.751,0A10.751,10.751,0,1,0,240.751,214,10.751,10.751,0,0,0,230,224.75Z" transform="translate(-225.578 -209.578)"/><path class="e" d="M208.689,180.668a12.021,12.021,0,1,1-12.021,12.021A12.027,12.027,0,0,1,208.689,180.668Zm0,1.271a10.751,10.751,0,1,0,10.751,10.751A10.756,10.756,0,0,0,208.689,181.939Z" transform="translate(-193.517 -177.517)"/><path class="f" d="M208.689,180.668a12.021,12.021,0,1,1-12.021,12.021A12.027,12.027,0,0,1,208.689,180.668Zm0,1.271a10.751,10.751,0,1,0,10.751,10.751A10.756,10.756,0,0,0,208.689,181.939Z" transform="translate(-193.517 -177.517)"/><path class="g" d="M257.4,199.343c.54-.272,1.186-.55,1.4-1.366.768-3,16.164-19.366,16.164-19.366a5.139,5.139,0,0,1,1.138-3.146,15.171,15.171,0,1,1-18.7,23.879Z" transform="translate(-251.933 -172.511)"/><path class="h" d="M328.521,259.253a1.148,1.148,0,0,1-.009-1.581c.047-.057.074-.085.074-.085v-.006a.007.007,0,0,1,0-.009.007.007,0,0,1,.009,0,12.019,12.019,0,0,1-15.228,18.587.57.57,0,0,1-.123-.76h0a.693.693,0,0,1,1-.17,10.748,10.748,0,0,0,14.276-15.976Z" transform="translate(-305.56 -251.487)"/><path class="a" d="M654.313,543.834a.66.66,0,0,1,.839-.494l.043.013a.562.562,0,0,1,.382.649,12.043,12.043,0,0,1-5.609,7.833.61.61,0,0,1-.805-.171h0a.657.657,0,0,1,.2-.947A10.775,10.775,0,0,0,654.313,543.834Z" transform="translate(-628.643 -526.335)"/></g></g><path class="i" d="M4227.095,11219.07l5.241,3.994,8.6-9.947" transform="translate(-4214.317 -11170.091)"/></g></svg>