<svg xmlns="http://www.w3.org/2000/svg" width="40" height="40" viewBox="0 0 40 40">
  <g id="brightdata" transform="translate(0 -20)">
    <g id="组_2088" data-name="组 2088" transform="translate(0 18)">
      <rect id="矩形_1675" data-name="矩形 1675" width="40" height="40" rx="4" transform="translate(0 2)" fill="none"/>
    </g>
    <path id="减去_218" data-name="减去 218" d="M-2452.933-1845.359a1.2,1.2,0,0,1-.82-.414c-.222-.222-1.027-.936-2.047-1.838l-.021-.02c-3.5-3.1-10.024-8.878-10.024-9.742v-4.209H-2472v-5.58h6.154v-4.449H-2472V-1877h25.64c2.2,0,4.848,2.273,5.655,4.229a9.178,9.178,0,0,1,.306,5.8,6.137,6.137,0,0,1-2.385,2.992l.021.016.009.007a13.836,13.836,0,0,1,2.458,2.153,4.658,4.658,0,0,1,.273,2.44l0,.066c-.012.321-.023.652-.023,1-.009.987-1.319,2.253-1.581,2.5l-.007,0c-2.566,2.5-7.586,7.235-10.35,9.836l-.034.032-.166.156A1.011,1.011,0,0,1-2452.933-1845.359Zm5.322-16.221c-.821,0-12.384.042-12.486.043v2.6c0,.438.653.908.68.928.045.042,4.745,4.458,5.477,5.173a.894.894,0,0,0,.628.289,1.2,1.2,0,0,0,.811-.429l5.679-5.076a4.769,4.769,0,0,0,.841-1.948,1.492,1.492,0,0,0-.462-1.048A1.7,1.7,0,0,0-2447.61-1861.581Zm-13.094-10.03v4.565h12.292a2.483,2.483,0,0,0,2.366-2.346,2.388,2.388,0,0,0-2.366-2.22Z" transform="translate(2476 1902.359)" fill="#3d7ffc"/>
  </g>
</svg>
