<svg xmlns="http://www.w3.org/2000/svg" xmlns:xlink="http://www.w3.org/1999/xlink" width="40" height="40" viewBox="0 0 40 40"><defs><style>.a{fill:none;}.b{fill:#f9f5e9;}.c{fill:#adadad;}.d{fill:#b2b2b2;}.e{fill:#fff;}.f{fill:#ff505d;}.g{fill:#ff6174;}.h{fill:#ffca3e;}.i{fill:#ffb82c;}.j{filter:url(#g);}.k{filter:url(#e);}.l{filter:url(#c);}.m{filter:url(#a);}</style><filter id="a" x="10.903" y="12.793" width="18.195" height="12.553" filterUnits="userSpaceOnUse"><feOffset input="SourceAlpha"/><feGaussianBlur stdDeviation="0.5" result="b"/><feFlood flood-opacity="0.302"/><feComposite operator="in" in2="b"/><feComposite in="SourceGraphic"/></filter><filter id="c" x="9.773" y="4.5" width="20.551" height="7.239" filterUnits="userSpaceOnUse"><feOffset input="SourceAlpha"/><feGaussianBlur stdDeviation="0.5" result="d"/><feFlood flood-opacity="0.302"/><feComposite operator="in" in2="d"/><feComposite in="SourceGraphic"/></filter><filter id="e" x="17.201" y="6.967" width="5.597" height="18.379" filterUnits="userSpaceOnUse"><feOffset input="SourceAlpha"/><feGaussianBlur stdDeviation="0.5" result="f"/><feFlood flood-opacity="0.161"/><feComposite operator="in" in2="f"/><feComposite in="SourceGraphic"/></filter><filter id="g" x="5.231" y="1.817" width="29.635" height="20.277" filterUnits="userSpaceOnUse"><feOffset dy="3" input="SourceAlpha"/><feGaussianBlur stdDeviation="3" result="h"/><feFlood flood-opacity="0.161"/><feComposite operator="in" in2="h"/><feComposite in="SourceGraphic"/></filter></defs><g transform="translate(0 -20)"><g transform="translate(0 18)"><rect class="a" width="40" height="40" rx="4" transform="translate(0 2)"/></g><g transform="translate(-291.333 -607)"><g transform="translate(78.49 563.35)"><path class="b" d="M240.4,120.354a2.5,2.5,0,0,1-2.5-2.5V84.52a2.5,2.5,0,0,1,2.5-2.5h20a2.5,2.5,0,0,1,2.5,2.5v33.334a2.5,2.5,0,0,1-2.5,2.5Z" transform="translate(-17.557 -17.537)"/><path class="c" d="M242.844,63.65h-20a3.333,3.333,0,0,0-3.333,3.332v33.334a3.334,3.334,0,0,0,3.333,3.334h20a3.334,3.334,0,0,0,3.333-3.334V66.982A3.333,3.333,0,0,0,242.844,63.65Zm1.667,36.667a1.668,1.668,0,0,1-1.667,1.666h-20a1.668,1.668,0,0,1-1.667-1.666V66.982a1.668,1.668,0,0,1,1.667-1.666h20a1.668,1.668,0,0,1,1.667,1.666Z" transform="translate(0)"/><path class="d" d="M237.9,762.39v5a2.5,2.5,0,0,0,2.5,2.5h20a2.5,2.5,0,0,0,2.5-2.5v-5Z" transform="translate(-17.557 -667.073)"/><path class="e" d="M461.06,799.16a2.5,2.5,0,1,0,2.5,2.5A2.5,2.5,0,0,0,461.06,799.16Zm0,3.334a.833.833,0,1,1,.833-.834A.834.834,0,0,1,461.06,802.494Z" transform="translate(-228.216 -702.177)"/></g></g><g transform="translate(10.13 26)"><path class="f" d="M.312,226.625H19.429a.313.313,0,0,1,.312.312v3.719a.313.313,0,0,1-.312.312H.312A.313.313,0,0,1,0,230.656v-3.719A.313.313,0,0,1,.312,226.625Z" transform="translate(0 -222.675)"/><g class="m" transform="matrix(1, 0, 0, 1, -10.13, -6)"><path class="g" d="M130.619,475.823H145.4a.208.208,0,0,1,.208.208v9.138a.208.208,0,0,1-.208.208H130.619a.208.208,0,0,1-.208-.208v-9.138a.208.208,0,0,1,.208-.208Z" transform="translate(-118.01 -461.53)"/></g><g class="l" transform="matrix(1, 0, 0, 1, -10.13, -6)"><path class="h" d="M68.94,2.8s-2.265-.436-2.717-.592l.8,1.151-1.444.574a24.018,24.018,0,0,0,7.021.086l-1.753-.795L68.94,2.8ZM70.568.059a2.309,2.309,0,0,0-1.7.195L68.555,2.24a2.408,2.408,0,0,1,1.777-.314,7.891,7.891,0,0,1,2.823,2.091V2.659S72.127.336,70.568.059Zm11.114,3.3.8-1.151c-.452.156-2.717.592-2.717.592l-1.907.423-1.753.8a23.964,23.964,0,0,0,7.021-.088ZM80.15,2.24,79.838.256a2.309,2.309,0,0,0-1.7-.195c-1.558.278-2.587,2.6-2.587,2.6V4.02a7.873,7.873,0,0,1,2.821-2.091,2.4,2.4,0,0,1,1.777.312Z" transform="translate(-54.31 6)"/></g><g class="k" transform="matrix(1, 0, 0, 1, -10.13, -6)"><path class="h" d="M491.839,141.522h2.6V156.9h-2.6Z" transform="translate(-473.14 -133.06)"/></g><path class="i" d="M491.839,480h2.6v9.481h-2.6Z" transform="translate(-483.267 -471.631)"/><g class="j" transform="matrix(1, 0, 0, 1, -10.13, -6)"><path class="i" d="M237.961,104.637c-1.132-.655-2.478-.434-2.626.013-.164.491.639,1.013,1.8,1.621a7.093,7.093,0,0,0,2.8.156A7.491,7.491,0,0,0,237.961,104.637Zm8.966.01c-.148-.447-1.494-.668-2.626-.013a7.538,7.538,0,0,0-1.974,1.79,7.093,7.093,0,0,0,2.8-.156c1.161-.605,1.964-1.13,1.8-1.621Z" transform="translate(-221.08 -96.41)"/></g></g></g></svg>