<svg xmlns="http://www.w3.org/2000/svg" xmlns:xlink="http://www.w3.org/1999/xlink" width="40" height="40" viewBox="0 0 40 40"><defs><style>.a{fill:none;}.b{fill:url(#a);}.c{fill:#a1a0a1;}.d,.e{stroke:none;}.e{fill:#a1a0a1;}</style><linearGradient id="a" x1="0.5" x2="0.5" y2="1" gradientUnits="objectBoundingBox"><stop offset="0" stop-color="#fff"/><stop offset="1" stop-color="#c1bbbb"/></linearGradient></defs><g transform="translate(0 -20)"><g transform="translate(0 18)"><rect class="a" width="40" height="40" rx="4" transform="translate(0 2)"/></g><g transform="translate(-22753 -18462)"><rect class="a" width="32" height="32" transform="translate(22757 18486)"/><g class="b" transform="translate(22757 18490.475)"><path class="d" d="M 27.20000076293945 26.72539329528809 L 4.800000190734863 26.72539329528809 C 2.594389915466309 26.72539329528809 0.800000011920929 24.93100357055664 0.800000011920929 22.72539329528809 L 0.800000011920929 7.054831027984619 C 1.923807621002197 5.913197994232178 3.482871770858765 4.215781688690186 5.126920223236084 2.425823211669922 C 6.761867523193359 0.6457784175872803 8.448908805847168 -1.190992712974548 9.648830413818359 -2.408986806869507 L 22.06805610656738 -2.408986806869507 C 23.65863037109375 -0.8108041286468506 25.2682056427002 0.8821176886558533 26.82704925537109 2.521693229675293 C 28.35193634033203 4.125547409057617 29.79667663574219 5.645112037658691 31.20000076293945 7.056124210357666 L 31.20000076293945 22.72539329528809 C 31.20000076293945 24.93100357055664 29.40560913085938 26.72539329528809 27.20000076293945 26.72539329528809 Z"/><path class="e" d="M 9.985143661499023 -1.608987808227539 C 8.814769744873047 -0.4066677093505859 7.242595672607422 1.305027008056641 5.716169357299805 2.966913223266602 C 4.176307678222656 4.643442153930664 2.710786819458008 6.239021301269531 1.600000381469727 7.381053924560547 L 1.600000381469727 22.72539329528809 C 1.600000381469727 24.48988342285156 3.03550910949707 25.92539215087891 4.799999237060547 25.92539215087891 L 27.20000076293945 25.92539215087891 C 28.9644889831543 25.92539215087891 30.39999961853027 24.48988342285156 30.39999961853027 22.72539329528809 L 30.39999961853027 7.385610580444336 C 29.0638599395752 6.035371780395508 27.69139289855957 4.591833114624023 26.24735069274902 3.073003768920898 C 24.76813316345215 1.517183303833008 23.24323081970215 -0.08667945861816406 21.73503684997559 -1.608987808227539 L 9.985143661499023 -1.608987808227539 M 9.315620422363281 -3.208986282348633 L 22.39999961853027 -3.208986282348633 C 25.67625999450684 0.06727218627929688 28.99563026428223 3.721014022827148 32 6.725393295288086 L 32 22.72539329528809 C 32 25.37635231018066 29.85095977783203 27.52539253234863 27.20000076293945 27.52539253234863 L 4.799999237060547 27.52539253234863 C 2.149030685424805 27.52539253234863 0 25.37635231018066 0 22.72539329528809 L 0 6.725393295288086 C 2.278430938720703 4.446952819824219 6.9085693359375 -0.8019275665283203 9.315620422363281 -3.208986282348633 Z"/></g><path class="c" d="M11.206,12.457.056,1.306A2.206,2.206,0,0,1,1.507.041L12.564,11.1a2.882,2.882,0,0,0,4.073,0L27.694.041A2.206,2.206,0,0,1,29.148,1.3L17.995,12.457a4.8,4.8,0,0,1-6.789,0Z" transform="translate(22787.602 18516.744) rotate(180)"/><rect class="c" width="1.92" height="14.4" transform="translate(22757.277 18498.152) rotate(-45)"/><rect class="c" width="1.922" height="14.399" transform="translate(22778.539 18508.336) rotate(-135)"/></g></g></svg>