<svg xmlns="http://www.w3.org/2000/svg" xmlns:xlink="http://www.w3.org/1999/xlink" width="40" height="40" viewBox="0 0 40 40"><defs><style>.a{fill:none;}.b{fill:#ff505d;}.c{fill:#ff6174;}.d{fill:#ffca3e;}.e{fill:#ffb82c;}.f{filter:url(#g);}.g{filter:url(#e);}.h{filter:url(#c);}.i{filter:url(#a);}</style><filter id="a" x="4.863" y="17.368" width="30.273" height="20.147" filterUnits="userSpaceOnUse"><feOffset input="SourceAlpha"/><feGaussianBlur stdDeviation="0.5" result="b"/><feFlood flood-opacity="0.302"/><feComposite operator="in" in2="b"/><feComposite in="SourceGraphic"/></filter><filter id="c" x="2.835" y="2.484" width="34.502" height="10.608" filterUnits="userSpaceOnUse"><feOffset input="SourceAlpha"/><feGaussianBlur stdDeviation="0.5" result="d"/><feFlood flood-opacity="0.302"/><feComposite operator="in" in2="d"/><feComposite in="SourceGraphic"/></filter><filter id="e" x="16.169" y="6.911" width="7.662" height="30.604" filterUnits="userSpaceOnUse"><feOffset input="SourceAlpha"/><feGaussianBlur stdDeviation="0.5" result="f"/><feFlood flood-opacity="0.161"/><feComposite operator="in" in2="f"/><feComposite in="SourceGraphic"/></filter><filter id="g" x="0.645" y="1.245" width="38.883" height="22.087" filterUnits="userSpaceOnUse"><feOffset dy="3" input="SourceAlpha"/><feGaussianBlur stdDeviation="3" result="h"/><feFlood flood-opacity="0.161"/><feComposite operator="in" in2="h"/><feComposite in="SourceGraphic"/></filter></defs><g transform="translate(0 -20)"><g transform="translate(0 18)"><rect class="a" width="40" height="40" rx="4" transform="translate(0 2)"/></g><g transform="translate(2.284 23.984)"><path class="b" d="M.559,226.625H34.873a.561.561,0,0,1,.559.559v6.676a.561.561,0,0,1-.559.559H.559A.561.561,0,0,1,0,233.861v-6.676A.561.561,0,0,1,.559,226.625Z" transform="translate(0 -219.536)"/><g class="i" transform="matrix(1, 0, 0, 1, -2.28, -3.98)"><path class="c" d="M130.785,475.823h26.527a.374.374,0,0,1,.373.373v16.4a.374.374,0,0,1-.373.373H130.785a.374.374,0,0,1-.373-.373V476.2a.374.374,0,0,1,.373-.373Z" transform="translate(-124.05 -456.95)"/></g><g class="h" transform="matrix(1, 0, 0, 1, -2.28, -3.98)"><path class="d" d="M71.611,5.024s-4.065-.783-4.877-1.063l1.436,2.065-2.592,1.03a43.11,43.11,0,0,0,12.6.154L75.033,5.784l-3.422-.76ZM74.534.105a4.144,4.144,0,0,0-3.049.35l-.564,3.567a4.323,4.323,0,0,1,3.189-.564c2.252.564,5.068,3.753,5.068,3.753V4.772S77.332.6,74.534.105ZM94.483,6.026l1.441-2.065c-.811.28-4.877,1.063-4.877,1.063l-3.422.76L84.479,7.215a43.013,43.013,0,0,0,12.6-.159Zm-2.751-2L91.173.459A4.144,4.144,0,0,0,88.124.11c-2.8.5-4.643,4.667-4.643,4.667V7.215s2.811-3.189,5.063-3.753a4.316,4.316,0,0,1,3.189.559Z" transform="translate(-61.24 3.98)"/></g><g class="g" transform="matrix(1, 0, 0, 1, -2.28, -3.98)"><path class="d" d="M491.839,141.522H496.5v27.6h-4.662Z" transform="translate(-474.17 -133.11)"/></g><path class="e" d="M491.839,480H496.5v17.017h-4.662Z" transform="translate(-476.454 -464.982)"/><g class="f" transform="matrix(1, 0, 0, 1, -2.28, -3.98)"><path class="e" d="M240.066,104.966c-2.033-1.175-4.448-.779-4.714.023-.294.881,1.147,1.818,3.231,2.909,1.371.718,5.026.28,5.026.28a13.445,13.445,0,0,0-3.543-3.212Zm16.094.019c-.266-.8-2.681-1.2-4.713-.023a13.53,13.53,0,0,0-3.543,3.212s3.66.438,5.026-.28c2.084-1.086,3.525-2.028,3.231-2.909Z" transform="translate(-225.67 -96.98)"/></g></g></g></svg>