<svg xmlns="http://www.w3.org/2000/svg" xmlns:xlink="http://www.w3.org/1999/xlink" width="40" height="40" viewBox="0 0 40 40"><defs><style>.a{fill:#fff;stroke:#707070;}.b{clip-path:url(#a);}.c{fill:#ffb64a;}.d{fill:#470b0b;}.e{fill:#692621;}.f{fill:#632f27;}.g{fill:#ffdb55;}.h{fill:url(#b);}.i{fill:url(#c);}.j{fill:url(#d);}.k{fill:url(#e);}.l{fill:url(#f);}.m{fill:none;}.n{fill:#f2b04e;}.o{fill:#ffdc71;}.p{fill:#ffcc31;}.q{fill:#fa7b4d;}.r{fill:#fbbb4c;}.s{fill:rgba(244,181,56,0.42);}.t{fill:#dd8d1a;}.u{fill:#ffd83a;}.v{fill:#ffea8d;}.w{fill:#d77a3d;}.x{fill:rgba(223,173,130,0.64);}.y{fill:#ffa747;}.z{fill:#ffb749;}.aa{fill:#ffd16e;}.ab{fill:#ffbb48;}.ac{fill:#ab5e5c;}</style><clipPath id="a"><rect class="a" width="40" height="40" transform="translate(37 606)"/></clipPath><linearGradient id="b" x1="0.5" x2="1.057" y2="1.017" gradientUnits="objectBoundingBox"><stop offset="0" stop-color="#fff" stop-opacity="0"/><stop offset="0.19" stop-color="#fdf2de" stop-opacity="0"/><stop offset="0.379" stop-color="#f7c266" stop-opacity="0.129"/><stop offset="1" stop-color="#f6dfb6" stop-opacity="0.361"/></linearGradient><linearGradient id="c" x1="0.62" y1="0.948" x2="1.046" y2="-0.038" xlink:href="#b"/><linearGradient id="d" x2="0.012" y2="0.946" xlink:href="#b"/><linearGradient id="e" x1="0.607" y1="1.054" x2="0.058" y2="0.068" xlink:href="#b"/><linearGradient id="f" x1="0.938" y1="0.031" x2="0.037" y2="0.957" xlink:href="#b"/></defs><g class="b" transform="translate(-37 -606)"><g transform="translate(24.779 599.314)"><path class="c" d="M130.626,105.657v-.6A1.062,1.062,0,0,1,131.688,104h10.685a1.062,1.062,0,0,1,1.062,1.062v.6h7.827a1.952,1.952,0,0,1,1.951,1.951v7.865a1.952,1.952,0,0,1-1.951,1.951H122.8a1.952,1.952,0,0,1-1.951-1.951v-7.865a1.952,1.952,0,0,1,1.951-1.951Z" transform="translate(-104.889 -91.819)"/><path class="d" d="M198.34,237.033A1.034,1.034,0,0,0,197.307,236H171.033A1.034,1.034,0,0,0,170,237.033v9.7a1.034,1.034,0,0,0,1.033,1.033h26.273a1.034,1.034,0,0,0,1.033-1.033Z" transform="translate(-152.004 -218.35)"/><path class="e" d="M171.137,236c1.282.912,2.178,2.982,2.178,5.386,0,3-1.393,5.476-3.191,5.838a1.028,1.028,0,0,1-.124-.491v-9.7A1.034,1.034,0,0,1,171.033,236Zm27.139,11.092c-1.582-.643-2.754-2.955-2.754-5.706a6.766,6.766,0,0,1,2.107-5.335,1.034,1.034,0,0,1,.71.982v9.7A1.032,1.032,0,0,1,198.276,247.092Z" transform="translate(-152.004 -218.35)"/><path class="f" d="M152.483,189.1v9.7a3.106,3.106,0,0,1-3.1,3.1H123.1a3.106,3.106,0,0,1-3.1-3.1v-9.7a3.106,3.106,0,0,1,3.1-3.1h26.273A3.106,3.106,0,0,1,152.483,189.1Zm-2.072,0a1.034,1.034,0,0,0-1.033-1.033H123.1a1.034,1.034,0,0,0-1.033,1.033v9.7a1.034,1.034,0,0,0,1.033,1.033h26.273a1.034,1.034,0,0,0,1.033-1.033Z" transform="translate(-104.076 -170.421)"/><path class="g" d="M283.047,234.507a.194.194,0,0,1,.367-.007,3.078,3.078,0,0,0,1.032,1.377.2.2,0,0,1,.006.312,3.549,3.549,0,0,0-1.05,1.676.2.2,0,0,1-.377,0,3.343,3.343,0,0,0-1.037-1.654.2.2,0,0,1,.022-.324A2.4,2.4,0,0,0,283.047,234.507Z" transform="translate(-259.281 -216.789)"/><g transform="translate(0 0)"><path class="h" d="M0,3.292,11.273,0V26.856L9.7,27.089Z" transform="translate(0 18.258) rotate(-45)"/><path class="i" d="M0,23.8l11.273,3.292V.233L9.7,0Z" transform="translate(44.983 37.947) rotate(-135)"/><path class="j" d="M1.085,0,12.634,3.976,1.165,28.325,0,27.16Z" transform="translate(9.198 9.388) rotate(-45)"/><path class="k" d="M1.34,25.807,12,22.021,1.165,0,0,1.165Z" transform="translate(34.947 29.951) rotate(-135)"/><path class="l" d="M11.814,0,20.3,6.816,1.325,20.561,0,19.236Z" transform="translate(17.726 14.352) rotate(-45)"/></g><g transform="translate(20.973 22.502)"><rect class="m" width="10.565" height="10.685"/><g transform="translate(0.207 0)"><path class="n" d="M119.076,135.136m-5.076,0A5.076,5.076,0,1,0,119.076,130,5.106,5.106,0,0,0,114,135.136Z" transform="translate(-114 -129.587)"/><path class="o" d="M119.076,103.136m-5.076,0A5.076,5.076,0,1,0,119.076,98,5.106,5.106,0,0,0,114,103.136Z" transform="translate(-114 -98)"/><path class="p" d="M233.579,217.639m-3.579,0A3.58,3.58,0,1,0,233.579,214,3.61,3.61,0,0,0,230,217.639Z" transform="translate(-228.503 -212.503)"/><path class="q" d="M200.677,180.668a4.07,4.07,0,1,1-4.009,4.069A4.042,4.042,0,0,1,200.677,180.668Zm0,.43a3.64,3.64,0,1,0,3.585,3.639A3.614,3.614,0,0,0,200.677,181.1Z" transform="translate(-195.601 -179.601)"/><path class="r" d="M200.677,180.668a4.07,4.07,0,1,1-4.009,4.069A4.042,4.042,0,0,1,200.677,180.668Zm0,.43a3.64,3.64,0,1,0,3.585,3.639A3.614,3.614,0,0,0,200.677,181.1Z" transform="translate(-195.601 -179.601)"/><path class="s" d="M257.4,183.547c.183-.092.4-.186.472-.462.26-1.015,5.472-6.556,5.472-6.556a1.739,1.739,0,0,1,.385-1.065,5.136,5.136,0,1,1-6.329,8.083Z" transform="translate(-255.67 -174.464)"/><path class="t" d="M318.355,258.14a.389.389,0,0,1,0-.535l.025-.029v0a0,0,0,0,1,0,0h0a4.069,4.069,0,0,1-5.155,6.292.193.193,0,0,1-.042-.257h0a.234.234,0,0,1,.339-.057,3.638,3.638,0,0,0,4.833-5.408Z" transform="translate(-310.703 -255.512)"/><path class="n" d="M336.311,339.68a.254.254,0,0,1,.413,0l.676.943a.254.254,0,0,0,.129.094l1.106.351a.254.254,0,0,1,.128.392l-.688.934a.254.254,0,0,0-.049.152l.007,1.16a.254.254,0,0,1-.334.243l-1.1-.366a.254.254,0,0,0-.16,0l-1.1.366a.254.254,0,0,1-.334-.243l.007-1.16a.254.254,0,0,0-.049-.152l-.688-.934a.254.254,0,0,1,.128-.392l1.106-.351a.254.254,0,0,0,.129-.094Z" transform="translate(-331.441 -336.456)"/><path class="u" d="M336.316,318.9a.254.254,0,0,1,.413,0l.676.943a.254.254,0,0,0,.129.094l1.106.351a.254.254,0,0,1,.128.392l-.688.934a.253.253,0,0,0-.049.152l.007,1.16a.254.254,0,0,1-.334.243l-1.1-.366a.254.254,0,0,0-.16,0l-1.1.366a.254.254,0,0,1-.334-.243l.007-1.16a.254.254,0,0,0-.049-.152l-.688-.934a.254.254,0,0,1,.128-.392l1.106-.351a.254.254,0,0,0,.129-.094Z" transform="translate(-331.446 -315.944)"/><path class="v" d="M337.942,324.792a.33.33,0,0,1,.223-.379l.981-.312a.331.331,0,0,0,.168-.122l.6-.836a.33.33,0,0,1,.536,0l.6.836a.33.33,0,0,0,.168.122l.981.312a.33.33,0,0,1,.209.431,10.593,10.593,0,0,1-2.117.2A10.363,10.363,0,0,1,337.942,324.792Z" transform="translate(-335.105 -320.101)"/><path class="m" d="M650.825,543.489a.223.223,0,0,1,.284-.167l.015,0a.19.19,0,0,1,.129.22,4.077,4.077,0,0,1-1.9,2.652.206.206,0,0,1-.273-.058h0a.222.222,0,0,1,.067-.321A3.648,3.648,0,0,0,650.825,543.489Z" transform="translate(-642.255 -537.565)"/></g></g><g transform="translate(26.712 18.893)"><rect class="m" width="10.565" height="10.685"/><g transform="translate(0.207 0)"><path class="n" d="M119.076,135.136m-5.076,0A5.076,5.076,0,1,0,119.076,130,5.106,5.106,0,0,0,114,135.136Z" transform="translate(-114 -129.587)"/><path class="o" d="M119.076,103.136m-5.076,0A5.076,5.076,0,1,0,119.076,98,5.106,5.106,0,0,0,114,103.136Z" transform="translate(-114 -98)"/><path class="p" d="M233.579,217.639m-3.579,0A3.58,3.58,0,1,0,233.579,214,3.61,3.61,0,0,0,230,217.639Z" transform="translate(-228.503 -212.503)"/><path class="q" d="M200.677,180.668a4.07,4.07,0,1,1-4.009,4.069A4.042,4.042,0,0,1,200.677,180.668Zm0,.43a3.64,3.64,0,1,0,3.585,3.639A3.614,3.614,0,0,0,200.677,181.1Z" transform="translate(-195.601 -179.601)"/><path class="r" d="M200.677,180.668a4.07,4.07,0,1,1-4.009,4.069A4.042,4.042,0,0,1,200.677,180.668Zm0,.43a3.64,3.64,0,1,0,3.585,3.639A3.614,3.614,0,0,0,200.677,181.1Z" transform="translate(-195.601 -179.601)"/><path class="s" d="M257.4,183.547c.183-.092.4-.186.472-.462.26-1.015,5.472-6.556,5.472-6.556a1.739,1.739,0,0,1,.385-1.065,5.136,5.136,0,1,1-6.329,8.083Z" transform="translate(-255.67 -174.464)"/><path class="t" d="M318.355,258.14a.389.389,0,0,1,0-.535l.025-.029v0a0,0,0,0,1,0,0h0a4.069,4.069,0,0,1-5.155,6.292.193.193,0,0,1-.042-.257h0a.234.234,0,0,1,.339-.057,3.638,3.638,0,0,0,4.833-5.408Z" transform="translate(-310.703 -255.512)"/><path class="n" d="M336.311,339.68a.254.254,0,0,1,.413,0l.676.943a.254.254,0,0,0,.129.094l1.106.351a.254.254,0,0,1,.128.392l-.688.934a.254.254,0,0,0-.049.152l.007,1.16a.254.254,0,0,1-.334.243l-1.1-.366a.254.254,0,0,0-.16,0l-1.1.366a.254.254,0,0,1-.334-.243l.007-1.16a.254.254,0,0,0-.049-.152l-.688-.934a.254.254,0,0,1,.128-.392l1.106-.351a.254.254,0,0,0,.129-.094Z" transform="translate(-331.441 -336.456)"/><path class="u" d="M336.316,318.9a.254.254,0,0,1,.413,0l.676.943a.254.254,0,0,0,.129.094l1.106.351a.254.254,0,0,1,.128.392l-.688.934a.253.253,0,0,0-.049.152l.007,1.16a.254.254,0,0,1-.334.243l-1.1-.366a.254.254,0,0,0-.16,0l-1.1.366a.254.254,0,0,1-.334-.243l.007-1.16a.254.254,0,0,0-.049-.152l-.688-.934a.254.254,0,0,1,.128-.392l1.106-.351a.254.254,0,0,0,.129-.094Z" transform="translate(-331.446 -315.944)"/><path class="v" d="M337.942,324.792a.33.33,0,0,1,.223-.379l.981-.312a.331.331,0,0,0,.168-.122l.6-.836a.33.33,0,0,1,.536,0l.6.836a.33.33,0,0,0,.168.122l.981.312a.33.33,0,0,1,.209.431,10.593,10.593,0,0,1-2.117.2A10.363,10.363,0,0,1,337.942,324.792Z" transform="translate(-335.105 -320.101)"/><path class="m" d="M650.825,543.489a.223.223,0,0,1,.284-.167l.015,0a.19.19,0,0,1,.129.22,4.077,4.077,0,0,1-1.9,2.652.206.206,0,0,1-.273-.058h0a.222.222,0,0,1,.067-.321A3.648,3.648,0,0,0,650.825,543.489Z" transform="translate(-642.255 -537.565)"/></g></g><g transform="translate(32.243 21.878)"><rect class="m" width="9.422" height="9.53"/><g transform="translate(0.184 0)"><path class="n" d="M118.527,134.581m-4.527,0A4.527,4.527,0,1,0,118.527,130,4.554,4.554,0,0,0,114,134.581Z" transform="translate(-114 -129.632)"/><path class="o" d="M118.527,102.581m-4.527,0A4.527,4.527,0,1,0,118.527,98,4.554,4.554,0,0,0,114,102.581Z" transform="translate(-114 -98)"/><path class="p" d="M233.192,217.246m-3.192,0A3.192,3.192,0,1,0,233.192,214,3.219,3.219,0,0,0,230,217.246Z" transform="translate(-228.665 -212.665)"/><path class="q" d="M200.244,180.668a3.63,3.63,0,1,1-3.576,3.629A3.6,3.6,0,0,1,200.244,180.668Zm0,.384a3.246,3.246,0,1,0,3.2,3.246A3.223,3.223,0,0,0,200.244,181.052Z" transform="translate(-195.717 -179.717)"/><path class="r" d="M200.244,180.668a3.63,3.63,0,1,1-3.576,3.629A3.6,3.6,0,0,1,200.244,180.668Zm0,.384a3.246,3.246,0,1,0,3.2,3.246A3.223,3.223,0,0,0,200.244,181.052Z" transform="translate(-195.717 -179.717)"/><path class="s" d="M257.4,182.673c.163-.082.358-.166.421-.412.232-.906,4.88-5.847,4.88-5.847a1.551,1.551,0,0,1,.344-.95,4.58,4.58,0,1,1-5.645,7.209Z" transform="translate(-255.857 -174.572)"/><path class="t" d="M317.792,258.079a.346.346,0,0,1,0-.477l.022-.026v0a0,0,0,0,1,0,0h0a3.628,3.628,0,0,1-4.6,5.612.172.172,0,0,1-.037-.229h0a.209.209,0,0,1,.3-.051,3.245,3.245,0,0,0,4.31-4.823Z" transform="translate(-310.968 -255.734)"/><path class="n" d="M336.085,339.668a.226.226,0,0,1,.368,0l.6.841a.226.226,0,0,0,.115.084l.986.313a.226.226,0,0,1,.114.35l-.614.833a.226.226,0,0,0-.044.136l.007,1.035a.226.226,0,0,1-.3.216l-.982-.326a.227.227,0,0,0-.143,0l-.982.326a.226.226,0,0,1-.3-.216l.007-1.035a.226.226,0,0,0-.044-.136l-.614-.833a.226.226,0,0,1,.114-.35l.986-.313a.226.226,0,0,0,.115-.084Z" transform="translate(-331.742 -336.793)"/><path class="u" d="M336.09,318.888a.226.226,0,0,1,.368,0l.6.841a.227.227,0,0,0,.115.084l.986.313a.226.226,0,0,1,.114.35l-.614.833a.226.226,0,0,0-.044.136l.007,1.035a.226.226,0,0,1-.3.216l-.982-.326a.226.226,0,0,0-.143,0l-.982.326a.226.226,0,0,1-.3-.216l.007-1.035a.227.227,0,0,0-.044-.136l-.614-.833a.227.227,0,0,1,.114-.35l.986-.313a.227.227,0,0,0,.115-.084Z" transform="translate(-331.747 -316.252)"/><path class="v" d="M337.941,324.6a.294.294,0,0,1,.2-.338l.875-.278a.3.3,0,0,0,.15-.109l.535-.746a.294.294,0,0,1,.478,0l.535.746a.294.294,0,0,0,.15.109l.875.278a.294.294,0,0,1,.186.384,9.449,9.449,0,0,1-1.888.183A9.244,9.244,0,0,1,337.941,324.6Z" transform="translate(-335.411 -320.415)"/><path class="m" d="M650.632,543.47a.2.2,0,0,1,.253-.149l.013,0a.17.17,0,0,1,.115.2,3.636,3.636,0,0,1-1.694,2.365.184.184,0,0,1-.243-.052h0a.2.2,0,0,1,.06-.286A3.253,3.253,0,0,0,650.632,543.47Z" transform="translate(-642.989 -538.187)"/></g></g><path class="w" d="M170,492h28.672v17.733H170Z" transform="translate(-152.004 -463.743)"/><path class="x" d="M186,560h27.346v1.657H186Zm0,5.966h27.346v1.657H186Zm0,5.966h27.346v1.657H186Z" transform="translate(-167.341 -528.926)"/><path class="y" d="M474,616h3.149v12.927H474Z" transform="translate(-443.409 -582.605)"/><path class="z" d="M113.812,488.953a.953.953,0,0,0-.953-.953h-1.906a.953.953,0,0,0-.953.953V505.9h3.812Z" transform="translate(-94.49 -459.909)"/><path class="aa" d="M110,589.826l3.812-2.618v8.448L110,598.274Z" transform="translate(-94.49 -555.006)"/><path class="z" d="M829.812,488.953a.953.953,0,0,0-.953-.953h-1.906a.953.953,0,0,0-.953.953V505.9h3.812Z" transform="translate(-780.824 -459.909)"/><path class="aa" d="M826,589.826l3.812-2.618v8.448L826,598.274Z" transform="translate(-780.824 -555.006)"/><path class="ab" d="M117.632,485.284A1.285,1.285,0,0,0,116.348,484H83.284A1.285,1.285,0,0,0,82,485.284v2.569a1.285,1.285,0,0,0,1.284,1.284h33.063a1.285,1.285,0,0,0,1.284-1.284Z" transform="translate(-67.65 -456.074)"/><path class="y" d="M346,484h13.424v5.138H346Z" transform="translate(-320.712 -456.074)"/><path class="ab" d="M392.607,484H382v5.3a5.3,5.3,0,1,0,10.607,0Z" transform="translate(-355.221 -456.074)"/><path class="ac" d="M470.749,539.158l.657,2.057a.576.576,0,0,1-.549.751h-2.235a.576.576,0,0,1-.549-.751l.657-2.057a1.74,1.74,0,1,1,2.018,0Z" transform="translate(-437.657 -505.92)"/></g></g></svg>