<svg xmlns="http://www.w3.org/2000/svg" xmlns:xlink="http://www.w3.org/1999/xlink" width="159" height="24.001" viewBox="0 0 159 24.001"><defs><style>.a{clip-rule:evenodd;}.b,.g{fill:none;}.c{fill:url(#a);}.d,.f,.g{fill-rule:evenodd;}.d{fill:url(#b);}.e{clip-path:url(#c);}.f{fill:#2d5dd1;}</style><linearGradient id="a" x1="0.053" y1="-0.86" x2="0.978" y2="1.954" gradientUnits="objectBoundingBox"><stop offset="0" stop-color="#2a48ba"/><stop offset="1" stop-color="#35e1c5"/><stop offset="1" stop-color="#35e4c5"/></linearGradient><linearGradient id="b" x1="0.159" y1="0.09" x2="0.841" y2="0.91" gradientUnits="objectBoundingBox"><stop offset="0" stop-color="#2a48ba"/><stop offset="1" stop-color="#35e4c5"/></linearGradient><clipPath id="c"><path class="a" d="M2.679,1.413H31.805l5.484,5.053V25.407H28.22V9.547h-16.8v15.86H2.679V1.413ZM24.213,25.407H15.431V14.48h8.781Z" transform="translate(-2.679 -1.413)"/></clipPath></defs><g transform="translate(-4980.535 -1311.367)"><rect class="b" width="159" height="24" transform="translate(4980.535 1311.367)"/><rect class="b" width="107" height="24" transform="translate(4980.535 1311.368)"/><path class="c" d="M9.032-11.708H24.878c1.056,1.056,2.444,2.378,3.911,3.845V3.766H24.878V-7.864H20.854V3.766H16.942V-7.864H12.915V3.766H9.032Zm33.564,0h3.883V3.766H42.6V2.13a19.991,19.991,0,0,1-2.259,1.691h-5.13a5.685,5.685,0,0,1-2.555-1.983,8.9,8.9,0,0,1-2.188-5.781,8.313,8.313,0,0,1,2.117-5.874,5.4,5.4,0,0,1,4.637-1.892h3.119A17.469,17.469,0,0,1,42.6-10ZM38.515-8.522a3.923,3.923,0,0,0-2.991,1.273,4.587,4.587,0,0,0-1.191,3.264,4.636,4.636,0,0,0,1.212,3.3A3.927,3.927,0,0,0,38.529.609,4,4,0,0,0,41.562-.664,4.653,4.653,0,0,0,42.767-4a4.519,4.519,0,0,0-1.2-3.271A4.05,4.05,0,0,0,38.515-8.522Zm9.372-3.186h4.509l3.059,4.217L58.5-11.708h4.433L57.676-4.426l5.941,8.192H59.108L55.427-1.31,51.765,3.766H47.332L53.2-4.374Zm17.721-5.7H69.49v5.7h2.3v3.342h-2.3V-.453a.6.6,0,0,0,.119.417.8.8,0,0,0,.455.147h1.2V3.766H66.927A1.592,1.592,0,0,1,66,3.425a1.784,1.784,0,0,1-.39-.95V-8.366H63.616v-3.342h1.991Zm7.98-.215h3.854v7.538a8.846,8.846,0,0,1,2.29-1.472,5.9,5.9,0,0,1,2.332-.491,5.253,5.253,0,0,1,3.883,1.593A5.565,5.565,0,0,1,87.3-6.4V3.821H83.472V-2.963A16.745,16.745,0,0,0,83.216-6.6a2.539,2.539,0,0,0-.875-1.422A2.456,2.456,0,0,0,80.813-8.5a2.882,2.882,0,0,0-2.027.782A4.147,4.147,0,0,0,77.612-5.58a17.663,17.663,0,0,0-.171,3.186V3.821H73.587Zm23.131,5.177a8.2,8.2,0,0,1,4.117,1.1,7.911,7.911,0,0,1,3.008,2.973,7.987,7.987,0,0,1,1.081,4.053,8.127,8.127,0,0,1-1.088,4.1,7.851,7.851,0,0,1-2.965,2.98,8.189,8.189,0,0,1-4.139,1.074A7.719,7.719,0,0,1,91.05,1.453,7.856,7.856,0,0,1,88.7-4.3a7.83,7.83,0,0,1,2.66-6.045A7.769,7.769,0,0,1,96.718-12.449Zm.064,3.655a4,4,0,0,0-3.013,1.259,4.47,4.47,0,0,0-1.2,3.221,4.553,4.553,0,0,0,1.19,3.271A3.979,3.979,0,0,0,96.768.209,4.025,4.025,0,0,0,99.8-1.057a4.518,4.518,0,0,0,1.211-3.257,4.489,4.489,0,0,0-1.19-3.236A4.024,4.024,0,0,0,96.782-8.794Zm9.612-2.883h9.885c1.716,1.562,3.689,3.282,3.854,3.377L120.119,4.2h-3.84V-6.926a1.4,1.4,0,0,0-.7-1.119,5.843,5.843,0,0,0-2.418-.254h-2.88V4.2h-3.883Z" transform="translate(5018.583 1331.172)"/><g transform="translate(4980.535 1311.368)"><g transform="translate(0 0)"><path class="d" d="M2.679,1.413H31.805l5.484,5.053V25.407H28.22V9.547h-16.8v15.86H2.679V1.413ZM24.213,25.407H15.431V14.48h8.781Z" transform="translate(-2.679 -1.413)"/><g class="e"><g transform="translate(19.809 8.12)"><path class="f" d="M20.834,8.856h13.73L20.922,10.742Z" transform="translate(-20.834 -8.856)"/></g></g><path class="g" d="M2.679,1.413H31.805l5.484,5.053V25.407H28.22V9.547h-16.8v15.86H2.679V1.413ZM24.213,25.407H15.431V14.48h8.781Z" transform="translate(-2.679 -1.413)"/></g></g></g></svg>