<svg xmlns="http://www.w3.org/2000/svg" width="20" height="20" viewBox="0 0 20 20"><defs><style>.a{fill:none;}.b{fill:#212121;}</style></defs><rect class="a" width="20" height="20" rx="2"/><path class="b" d="M40.77,52.325h-.961A3.519,3.519,0,0,1,36.421,48.7V40.05a3.519,3.519,0,0,1,3.389-3.629h7.926a3.519,3.519,0,0,1,3.389,3.629.747.747,0,0,1-1.494,0,2.028,2.028,0,0,0-1.895-2.135H39.81a2.028,2.028,0,0,0-1.895,2.135V48.7a2.028,2.028,0,0,0,1.895,2.135h.961a.747.747,0,0,1,0,1.494Zm2.4-.865-.066,0a.747.747,0,0,1-.678-.81,5.08,5.08,0,0,1,3.124-4.254,2.686,2.686,0,1,1,3.871.055,5.069,5.069,0,0,1,2.995,4.2.747.747,0,0,1-1.488.131,3.517,3.517,0,0,0-7.014,0A.742.742,0,0,1,43.173,51.461Zm4.34-8.142a1.221,1.221,0,1,0,1.194,1.221A1.209,1.209,0,0,0,47.513,43.319Zm-5.3,2.292h-2.4a.747.747,0,0,1,0-1.494h2.4a.747.747,0,0,1,0,1.494Zm2.4-3.512h-4.8a.747.747,0,0,1,0-1.494h4.8a.747.747,0,1,1,0,1.494Z" transform="translate(-34.421 -34.373)"/></svg>