<svg xmlns="http://www.w3.org/2000/svg" width="36" height="36" viewBox="0 0 36 36"><defs><style>.a{fill:none;}.b{fill:#2595e8;}.c{fill:#3a9ced;}.d{fill:#59adf8;}.e{fill:#6bc2fc;}</style></defs><g transform="translate(-2 -2)"><rect class="a" width="36" height="36" transform="translate(2 2)"/><g transform="translate(-117.26 -117.038)"><path class="b" d="M145.438,127.685h-2.7v-.436a1.024,1.024,0,0,0-2.047,0v.436h-6.783v-.436a1.024,1.024,0,0,0-2.047,0v.436h-2.783a2.726,2.726,0,0,0-2.773,2.678v14.778a2.726,2.726,0,0,0,2.773,2.678h16.354a2.726,2.726,0,0,0,2.773-2.678V130.363A2.729,2.729,0,0,0,145.438,127.685Zm-2.444,10.521-6.512,6.23a1.175,1.175,0,0,1-1.646-.022l-3.548-3.568a1.175,1.175,0,1,1,1.668-1.656l2.734,2.751,5.679-5.432a1.174,1.174,0,1,1,1.625,1.7Zm3-5.867a.683.683,0,0,1-.695.67H129.224a.683.683,0,0,1-.695-.67v-1.861a.683.683,0,0,1,.695-.67h2.642v.583a1.024,1.024,0,0,0,2.047,0v-.583h6.781v.583a1.024,1.024,0,0,0,2.047,0v-.583H145.3a.683.683,0,0,1,.695.67v1.861Z" transform="translate(0 0)"/><path class="c" d="M148.209,130.362a2.726,2.726,0,0,0-2.773-2.678h-2.7v-.436a1.024,1.024,0,0,0-2.047,0v.436h-6.781v-.436a1.024,1.024,0,0,0-2.047,0v.436h-2.783a2.726,2.726,0,0,0-2.773,2.678v14.778a2.726,2.726,0,0,0,2.773,2.678h9.655a17.312,17.312,0,0,0,9.471-9.069Zm-5.216,7.843-6.512,6.23a1.175,1.175,0,0,1-1.646-.022l-3.548-3.568a1.175,1.175,0,1,1,1.668-1.656l2.734,2.751,5.679-5.432a1.174,1.174,0,1,1,1.625,1.7Zm3-5.867a.683.683,0,0,1-.695.67H129.224a.683.683,0,0,1-.695-.67v-1.861a.683.683,0,0,1,.695-.67h2.642v.583a1.024,1.024,0,0,0,2.047,0v-.583h6.781v.583a1.024,1.024,0,0,0,2.047,0v-.583H145.3a.683.683,0,0,1,.695.67v1.861Z" transform="translate(0 0)"/><path class="d" d="M127.719,142.93a17.234,17.234,0,0,0,4.89-.7l-1.322-1.33a1.175,1.175,0,1,1,1.668-1.656l2.062,2.074a17.314,17.314,0,0,0,8.3-8.254H129.224a.683.683,0,0,1-.695-.67v-1.861a.683.683,0,0,1,.695-.67h2.642v.583a1.024,1.024,0,0,0,2.047,0v-.583h6.781v.583a1.024,1.024,0,0,0,2.047,0v-.583h1.716a17.212,17.212,0,0,0,.387-2.121h-2.1V127.3a1.024,1.024,0,0,0-2.047,0v.436h-6.781V127.3a1.024,1.024,0,0,0-2.047,0v.436h-2.783a2.726,2.726,0,0,0-2.773,2.678v12.46c.465.036.934.056,1.408.056Z" transform="translate(0 -0.05)"/><path class="e" d="M134.138,133.059h-4.914a.683.683,0,0,1-.695-.67v-1.861a.683.683,0,0,1,.695-.67h2.642v.583a1.024,1.024,0,0,0,2.047,0v-.583h3.32a17.327,17.327,0,0,0,1.349-2.121h-4.669V127.3a1.024,1.024,0,0,0-2.047,0v.436h-2.783a2.726,2.726,0,0,0-2.773,2.678v6.163a17.162,17.162,0,0,0,7.828-3.518Z" transform="translate(0 -0.05)"/></g></g></svg>