<svg xmlns="http://www.w3.org/2000/svg" width="16" height="16" viewBox="0 0 16 16"><defs><style>.a{fill:none;}.b{fill:#212121;}</style></defs><g transform="translate(-647.999 -85.5)"><path class="a" d="M-6818-9795a8.009,8.009,0,0,1-8-8,8.009,8.009,0,0,1,8-8,8.009,8.009,0,0,1,8,8A8.009,8.009,0,0,1-6818-9795Zm0-15a7.008,7.008,0,0,0-7,7,7.008,7.008,0,0,0,7,7,7.009,7.009,0,0,0,7-7A7.009,7.009,0,0,0-6818-9810Z" transform="translate(7473.999 9896.5)"/><path class="b" d="M3,158.65a1,1,0,0,0,1-1v-2a1,1,0,0,0-2,0v2a1,1,0,0,0,1,1Zm3.25,4A7.636,7.636,0,0,1,0,159.691v2a7.639,7.639,0,0,0,6.25,2.958,7.638,7.638,0,0,0,6.25-2.958v-2a7.636,7.636,0,0,1-6.25,2.959Zm3.25-4a1,1,0,0,0,1-1v-2a1,1,0,0,0-2,0v2a1,1,0,0,0,1,1Zm0,0" transform="translate(649.719 -66.152)"/></g></svg>