<svg xmlns="http://www.w3.org/2000/svg" width="20" height="20" viewBox="0 0 20 20"><defs><style>.a{fill:none;}.b{fill:#212121;}</style></defs><rect class="a" width="20" height="20" rx="2"/><path class="b" d="M49.955,1.585a2.446,2.446,0,0,1,1.208.319l5.1,2.9a2.426,2.426,0,0,1,1.228,2.1v5.759a2.424,2.424,0,0,1-1.228,2.1l-5.1,2.9a2.45,2.45,0,0,1-2.416,0l-5.1-2.9a2.424,2.424,0,0,1-1.228-2.1V6.906a2.426,2.426,0,0,1,1.228-2.1l5.1-2.9A2.446,2.446,0,0,1,49.955,1.585Zm6.061,11.079V6.906a.951.951,0,0,0-.482-.825l-5.1-2.9a.965.965,0,0,0-.951,0l-5.1,2.9a.952.952,0,0,0-.482.825v5.759a.952.952,0,0,0,.482.825l.2.113a3.374,3.374,0,0,1,1.656-.683,7.7,7.7,0,0,0,.8-.174c.145-.036.3-.075.445-.109l.136-.033a4.578,4.578,0,0,1-1.389-3.35,4.053,4.053,0,0,1,3.739-4.3,4.051,4.051,0,0,1,3.738,4.3,4.582,4.582,0,0,1-1.344,3.3l.082.019a10.882,10.882,0,0,0,1.236.22,3.649,3.649,0,0,1,1.82.716l.036-.02a.951.951,0,0,0,.482-.825ZM54,14.362a1.831,1.831,0,0,0-.444-.1,11.9,11.9,0,0,1-1.445-.252,3,3,0,0,1-1.284-.479.736.736,0,0,1-.258-.574,1.9,1.9,0,0,1,.44-1.16.751.751,0,0,1,.132-.129,3.013,3.013,0,0,0,1.091-2.414,2.593,2.593,0,0,0-2.259-2.824,2.6,2.6,0,0,0-2.26,2.827A3.019,3.019,0,0,0,48.8,11.673a.731.731,0,0,1,.187.209,1.935,1.935,0,0,1,.384,1.1.735.735,0,0,1-.262.578,2.94,2.94,0,0,1-1.292.509c-.118.027-.252.06-.421.1a7.593,7.593,0,0,1-1.035.213,1.2,1.2,0,0,0-.286.066l3.407,1.935a.965.965,0,0,0,.951,0Z" transform="translate(-39.955 0.415)"/></svg>