<svg xmlns="http://www.w3.org/2000/svg" width="32" height="32" viewBox="0 0 32 32"><defs><style>.a{fill:none;}.b{fill:#fff;}</style></defs><g transform="translate(-64 -510)"><rect class="a" width="32" height="32" transform="translate(64 510)"/><path class="b" d="M25.262,108.8A1.744,1.744,0,0,1,27,110.539v14.082a1.744,1.744,0,0,1-1.739,1.739H17.651l1.565,3.129a.916.916,0,0,1-.348,1.13.523.523,0,0,1-.348.087H9.567a.821.821,0,0,1-.869-.869c0-.174,0-.261.087-.348l1.565-3.129H2.739A1.744,1.744,0,0,1,1,124.621V110.539A1.744,1.744,0,0,1,2.739,108.8Zm-8.915,5.042c-.956-.087-1.825.522-2.347.522-.435,0-1.13-.522-1.912-.522a2.971,2.971,0,0,0-2.434,1.478c-1.043,1.739-.261,4.433.7,5.911l.174.261c.435.608.956,1.3,1.652,1.217.782,0,1.043-.522,1.912-.522s1.13.522,1.912.435c.782,0,1.3-.7,1.825-1.478a7,7,0,0,0,.782-1.652H18.52a2.52,2.52,0,0,1-1.478-2.347,2.8,2.8,0,0,1,1.3-2.26A2.4,2.4,0,0,0,16.347,113.842Zm0-2.869a2.787,2.787,0,0,0-1.739.869A2.583,2.583,0,0,0,14,113.668a2.269,2.269,0,0,0,1.739-.869A2.583,2.583,0,0,0,16.347,110.973Z" transform="translate(66 406.248)"/></g></svg>