<svg xmlns="http://www.w3.org/2000/svg" width="20" height="20" viewBox="0 0 20 20"><defs><style>.a,.c{fill:none;}.b{fill:#212121;}.c{stroke:#212121;stroke-linecap:round;stroke-linejoin:round;stroke-width:1.5px;}</style></defs><rect class="a" width="20" height="20" rx="2"/><g transform="translate(1762.502 1888)"><path class="b" d="M6.906,17h0l-.044,0a13.966,13.966,0,0,1-4.878-4.471A12.288,12.288,0,0,1,.176,7.793a13.322,13.322,0,0,1,.18-5.27A8.47,8.47,0,0,0,6.664.133.445.445,0,0,1,6.96,0a.383.383,0,0,1,.266.119,8.46,8.46,0,0,0,6.322,2.4l0,.006A11.486,11.486,0,0,1,14,5.723a11.652,11.652,0,0,1-2.075,6.8,14.936,14.936,0,0,1-2.256,2.512A16.707,16.707,0,0,1,6.906,17ZM6.969,1.791a.365.365,0,0,0-.24.1A6.924,6.924,0,0,1,1.638,3.781,10.423,10.423,0,0,0,1.49,7.943a10.081,10.081,0,0,0,5.4,7.264l.037.006a13.755,13.755,0,0,0,2.228-1.551,12,12,0,0,0,1.822-1.982,9.049,9.049,0,0,0,1.675-5.373,8.878,8.878,0,0,0-.365-2.525,6.871,6.871,0,0,1-5.1-1.9A.318.318,0,0,0,6.969,1.791Z" transform="translate(-1759.502 -1886.5)"/><path class="c" d="M60.984,175.66l2.283,2.271,3.963-4.261" transform="translate(-1816.34 -2052.998)"/></g></svg>