<svg xmlns="http://www.w3.org/2000/svg" width="36" height="36" viewBox="0 0 36 36"><defs><style>.a{fill:none;}.b{fill:#e3edff;}.c{fill:#2595e8;}</style></defs><g transform="translate(-2 -2)"><rect class="a" width="36" height="36" transform="translate(2 2)"/><g transform="translate(-1010 -488)"><rect class="b" width="22" height="22" rx="11" transform="translate(1020 497)"/><g transform="translate(952.448 412.531)"><path class="c" d="M76.909,107.468a11.356,11.356,0,1,1,8.611-18.761,1.035,1.035,0,1,1-1.569,1.351,9.285,9.285,0,1,0,.458,11.531,1.035,1.035,0,1,1,1.67,1.221,11.4,11.4,0,0,1-9.17,4.658Z"/><path class="c" d="M419.4,292.162a1.035,1.035,0,0,1-.793-.37l-2.434-2.9a1.036,1.036,0,0,1-.239-.668l.029-6.173a1.035,1.035,0,1,1,2.07,0l-.028,5.805,2.19,2.607a1.035,1.035,0,0,1-.793,1.7Zm9.8-6.572h-7a1.035,1.035,0,0,1,0-2.07h7a1.035,1.035,0,1,1,0,2.07Zm-2.267,4.632H422.45a1.035,1.035,0,1,1,0-2.07h4.484a1.035,1.035,0,1,1,0,2.07Z" transform="translate(-340.684 -190.827)"/></g></g></g></svg>