<svg xmlns="http://www.w3.org/2000/svg" width="36" height="36" viewBox="0 0 36 36"><defs><style>.a,.d,.e{fill:none;}.b{fill:#ffba00;}.c{fill:#fbe9b9;}.e{stroke:#ffba00;stroke-linecap:round;}.f{fill:#fcb715;}.g{fill:#6d381f;}.h{fill:#fff;}.i,.j{stroke:none;}.j{fill:#ffba00;}</style></defs><g transform="translate(-2 -2)"><rect class="a" width="36" height="36" transform="translate(2 2)"/><g transform="translate(-361.965 -535.996)"><g transform="translate(226.45 347.289)"><path class="b" d="M421.869,363.008H410.352a2.3,2.3,0,0,0-2.288,2.314V383.78l8.06-3.458,8.06,3.458V365.3A2.3,2.3,0,0,0,421.869,363.008Z" transform="translate(-260.912 -163.077)"/><path class="c" d="M421.869,363.008H410.352a2.3,2.3,0,0,0-2.288,2.314V383.78l8.06-3.458,8.06,3.458V365.3A2.3,2.3,0,0,0,421.869,363.008Z" transform="translate(-265.514 -166.297)"/></g><g transform="translate(369.999 546.754)"><rect class="a" width="16" height="16" transform="translate(-0.999 -1.5)"/><g class="d" transform="translate(-0.999 -1)"><path class="i" d="M7.368,1.326a.7.7,0,0,1,1.264,0l1.6,3.363a.7.7,0,0,0,.546.394l3.723.461a.7.7,0,0,1,.389,1.209L12.17,9.271a.7.7,0,0,0-.212.647l.7,3.625a.7.7,0,0,1-1.021.749L8.334,12.5a.7.7,0,0,0-.668,0L4.36,14.292a.7.7,0,0,1-1.021-.749l.7-3.625a.7.7,0,0,0-.212-.647L1.107,6.753A.7.7,0,0,1,1.5,5.544l3.723-.461a.7.7,0,0,0,.546-.394Z"/><path class="j" d="M 7.999998092651367 2.324265480041504 L 6.667779922485352 5.119478225708008 C 6.416759490966797 5.646147727966309 5.921219825744629 6.00341796875 5.342219352722168 6.07515811920166 L 2.260031700134277 6.457084655761719 L 4.509299278259277 8.536618232727051 C 4.944649696350098 8.939117431640625 5.137089729309082 9.526887893676758 5.024079322814941 10.1088981628418 L 4.441325187683105 13.11025810241699 L 7.189099311828613 11.61902809143066 C 7.437249183654785 11.48434829711914 7.717659950256348 11.41315841674805 7.999999523162842 11.41315841674805 C 8.282320022583008 11.41315841674805 8.562709808349609 11.48433780670166 8.810879707336426 11.6190185546875 L 11.55867099761963 13.11025238037109 L 10.97591972351074 10.10890769958496 C 10.8629093170166 9.526887893676758 11.05534934997559 8.939117431640625 11.49069976806641 8.536618232727051 L 13.73996829986572 6.457084655761719 L 10.65777969360352 6.07515811920166 C 10.07877922058105 6.00341796875 9.583239555358887 5.646147727966309 9.332220077514648 5.119467735290527 L 7.999998092651367 2.324265480041504 M 7.999999523162842 0.9269905090332031 C 8.252586364746094 0.9269905090332031 8.50517463684082 1.059932708740234 8.631898880004883 1.325818061828613 L 10.23493003845215 4.689228057861328 C 10.33775901794434 4.904977798461914 10.54356002807617 5.05335807800293 10.78074932098389 5.082748413085938 L 14.50405979156494 5.54411792755127 C 15.09516906738281 5.617367744445801 15.33052921295166 6.348438262939453 14.89317989349365 6.752798080444336 L 12.16955947875977 9.27088737487793 C 11.99157905578613 9.43543815612793 11.91138935089111 9.680357933044434 11.95759010314941 9.918298721313477 L 12.66152000427246 13.54375839233398 C 12.77428913116455 14.12451839447021 12.16044044494629 14.57460784912109 11.64046955108643 14.29241847991943 L 8.333889007568359 12.49792861938477 C 8.125638961791992 12.38490867614746 7.874359130859375 12.38490867614746 7.666109085083008 12.49792861938477 L 4.359539985656738 14.29241847991943 C 3.839570045471191 14.57460594177246 3.225720405578613 14.12451934814453 3.338479995727539 13.54375839233398 L 4.042409896850586 9.918298721313477 C 4.08860969543457 9.680357933044434 4.008419990539551 9.43543815612793 3.830439567565918 9.27088737487793 L 1.106819152832031 6.752798080444336 C 0.6694698333740234 6.348438262939453 0.9048299789428711 5.617367744445801 1.495939254760742 5.54411792755127 L 5.219249725341797 5.082748413085938 C 5.456439971923828 5.05335807800293 5.662239074707031 4.904977798461914 5.765069961547852 4.689228057861328 L 7.368099212646484 1.325818061828613 C 7.494824409484863 1.059932708740234 7.747411727905273 0.9269905090332031 7.999999523162842 0.9269905090332031 Z"/></g><path class="e" d="M4.954,7.2s.638,1.134,1.632,1.134S8.267,7.2,8.267,7.2" transform="translate(0.39)"/></g><g transform="translate(379.36 552.412)"><path class="f" d="M9.724,9.6,8.76,13.034l6.307,6.35,3.781-.613L19.461,15,13.154,8.64Z" transform="translate(-5.237 -5.113)"/><path class="g" d="M19.534,20.335l-3.109.832a1.46,1.46,0,0,1-1.372-.365l-.423-.438c-.161.19-.336.394-.511.569h0a3.679,3.679,0,0,1-5.139-.38,3.693,3.693,0,0,1-.394-5.139,4.934,4.934,0,0,1,.8-.657,3.927,3.927,0,0,1-.146-1.693,3.445,3.445,0,0,0-2.219-.642.569.569,0,0,1-.628-.38.365.365,0,0,1,.131-.5.19.19,0,0,1,.117,0,4.745,4.745,0,0,1,2.8.672,4.686,4.686,0,0,1,1.109-1.8,4.38,4.38,0,0,1,1.737-1.095,4.744,4.744,0,0,1-.613-2.8.38.38,0,0,1,.453-.292h.1a.613.613,0,0,1,.38.628,3.4,3.4,0,0,0,.526,2.248,3.9,3.9,0,0,1,1.693.146,5.036,5.036,0,0,1,.672-.788,3.65,3.65,0,0,1,5.109.409A4.219,4.219,0,0,1,21.9,11.517a3.051,3.051,0,0,1-.861,2.467,3.285,3.285,0,0,1-.6.5l.453.467a1.46,1.46,0,0,1,.38,1.358s-.832,3.095-.832,3.124l.336,1.255Zm-3.81-3.752a12.642,12.642,0,0,1-.38,2.453,3.037,3.037,0,0,1-.175.438l.628.613a.467.467,0,0,0,.365.1l3.051-.818a.569.569,0,0,0,.263-.263l.818-2.993-.861.876a.263.263,0,0,1-.365,0h0a.263.263,0,0,1,0-.365h0l1.007-.993-.423-.423L17.622,17.24a.258.258,0,0,1-.365-.365l1.46-1.46a9.022,9.022,0,0,1-1.985.248,9.869,9.869,0,0,1-1.124-.146,6.993,6.993,0,0,1,.117,1.066ZM15.1,11.97a5.577,5.577,0,0,0,0,.993,5.65,5.65,0,0,0,.234,1.3,5.65,5.65,0,0,0,1.3.234,4.89,4.89,0,0,0,3.65-1.358A2.555,2.555,0,0,0,20,9.576a2.54,2.54,0,0,0-3.547-.263,4.774,4.774,0,0,0-1.3,2.642ZM9.709,19.839a2.526,2.526,0,0,0,3.547.263A4.8,4.8,0,0,0,14.6,16.466a5.635,5.635,0,0,0-.234-1.314,6.54,6.54,0,0,0-1.3-.219,4.482,4.482,0,0,0-.993,0,4.584,4.584,0,0,0-2.657,1.3,2.526,2.526,0,0,0,.263,3.533Zm.613-5.577H10.5a6.321,6.321,0,0,1,2.394-.365,9.869,9.869,0,0,1,1.124.146,5.635,5.635,0,0,1-.146-1.109,6.161,6.161,0,0,1,.365-2.409h0V10.35a3.387,3.387,0,0,0-4.058,4.044Z" transform="translate(-6.347 -6.224)"/><path class="h" d="M15.786,13.7a4.949,4.949,0,0,1-1.3-.219,4.949,4.949,0,0,1-.219-1.3,5.591,5.591,0,0,1,0-.993,4.672,4.672,0,0,1,1.3-2.657,2.54,2.54,0,0,1,3.547.263,2.555,2.555,0,0,1,.321,3.62A4.774,4.774,0,0,1,15.786,13.7ZM8.91,19.055a2.569,2.569,0,0,1-.263-3.562,4.657,4.657,0,0,1,2.642-1.285,4.54,4.54,0,0,1,.993,0,6.5,6.5,0,0,1,1.314.219,6.5,6.5,0,0,1,.219,1.314h0a4.8,4.8,0,0,1-1.343,3.635A2.569,2.569,0,0,1,8.91,19.055Z" transform="translate(-5.563 -5.44)"/></g></g></g></svg>