<svg xmlns="http://www.w3.org/2000/svg" width="48" height="48" viewBox="0 0 48 48"><defs><style>.a{fill:none;}.b{fill:#181542;}</style></defs><rect class="a" width="48" height="48"/><path class="b" d="M100.1,83.016a6.38,6.38,0,0,0-4.966-2.446l-5.351-.082a17.43,17.43,0,0,0,.438-4.958,7.984,7.984,0,0,0-1.473-4.3,5.625,5.625,0,0,0-2.135-1.743A5.053,5.053,0,0,0,84.494,69a5.134,5.134,0,0,0-5.318,4.913c0,4.4-2.831,7.982-6.316,7.982h-4.95A3.113,3.113,0,0,0,64.8,85v16.884A3.113,3.113,0,0,0,67.909,105H92.128a6.634,6.634,0,0,0,4.046-1.379,6.36,6.36,0,0,0,2.3-3.567l2.77-11.88A6.09,6.09,0,0,0,100.1,83.016ZM71.391,102.047H67.909a.164.164,0,0,1-.164-.164V85a.164.164,0,0,1,.164-.164h3.481ZM98.379,87.5l-2.77,11.88a3.413,3.413,0,0,1-1.235,1.906,3.672,3.672,0,0,1-2.242.761h-17.8V84.7a8.176,8.176,0,0,0,2.234-.769,9.329,9.329,0,0,0,2.941-2.4,11.983,11.983,0,0,0,2.614-7.626A2.2,2.2,0,0,1,84.5,71.937,2.5,2.5,0,0,1,86.4,73c1.182,1.567,1.215,4.594.09,8.522a1.471,1.471,0,0,0,1.4,1.878l7.212.11a3.457,3.457,0,0,1,2.692,1.317A3.144,3.144,0,0,1,98.379,87.5Z" transform="translate(-58.8 -63.5)"/></svg>