<svg xmlns="http://www.w3.org/2000/svg" width="40" height="40" viewBox="0 0 40 40"><defs><style>.a{fill:none;}.b{fill:#2a48ba;}</style></defs><g transform="translate(-699 -3963)"><rect class="a" width="40" height="40" transform="translate(699 3963)"/><path class="b" d="M7.1,13.727a1,1,0,0,1-.732-.293L.707,7.778a1,1,0,0,1,0-1.414l.706-.707a1,1,0,0,1,1.415,0L7.1,9.924,16.313.706a1,1,0,0,1,1.415,0l.706.707a1,1,0,0,1,0,1.414L7.828,13.434a1,1,0,0,1-.707.293Z" transform="translate(709.429 3975.93)"/></g></svg>