<svg xmlns="http://www.w3.org/2000/svg" width="32" height="32" viewBox="0 0 32 32"><defs><style>.a{fill:none;}.b{fill:#f2b04e;}.c{fill:#ffdc71;}.d{fill:#ffcc31;}.e{fill:#fa7b4d;}.f{fill:#fbbb4c;}.g{fill:rgba(244,181,56,0.42);}.h{fill:#dd8d1a;}.i{fill:#ffd83a;}.j{fill:#ffea8d;}</style></defs><g transform="translate(-59.999 -146.227)"><rect class="a" width="32" height="32" transform="translate(59.999 146.227)"/><g transform="translate(59.999 146.227)"><path class="b" d="M129.382,145.382m-15.382,0A15.382,15.382,0,1,0,129.382,130,15.382,15.382,0,0,0,114,145.382Z" transform="translate(-114 -128.763)"/><path class="c" d="M129.382,113.382m-15.382,0A15.382,15.382,0,1,0,129.382,98,15.382,15.382,0,0,0,114,113.382Z" transform="translate(-114 -98)"/><path class="d" d="M240.9,224.9m-10.9,0A10.9,10.9,0,1,0,240.9,214,10.9,10.9,0,0,0,230,224.9Z" transform="translate(-225.517 -209.517)"/><path class="e" d="M208.855,180.668a12.187,12.187,0,1,1-12.187,12.187A12.193,12.193,0,0,1,208.855,180.668Zm0,1.288a10.9,10.9,0,1,0,10.9,10.9A10.9,10.9,0,0,0,208.855,181.956Z" transform="translate(-193.473 -177.473)"/><path class="f" d="M208.855,180.668a12.187,12.187,0,1,1-12.187,12.187A12.193,12.193,0,0,1,208.855,180.668Zm0,1.288a10.9,10.9,0,1,0,10.9,10.9A10.9,10.9,0,0,0,208.855,181.956Z" transform="translate(-193.473 -177.473)"/><path class="g" d="M257.4,199.671c.548-.275,1.2-.557,1.414-1.385.778-3.041,16.386-19.633,16.386-19.633a5.209,5.209,0,0,1,1.154-3.19A15.38,15.38,0,1,1,257.4,199.671Z" transform="translate(-251.858 -172.47)"/><path class="h" d="M328.733,259.276a1.163,1.163,0,0,1-.009-1.6c.048-.057.075-.086.075-.086v-.006a.007.007,0,0,1,0-.009.007.007,0,0,1,.009,0,12.184,12.184,0,0,1-15.438,18.843.578.578,0,0,1-.124-.77h0a.7.7,0,0,1,1.014-.172,10.9,10.9,0,0,0,14.473-16.2Z" transform="translate(-305.456 -251.404)"/><path class="b" d="M340.476,339.891a.76.76,0,0,1,1.235,0l2.024,2.824a.76.76,0,0,0,.388.281l3.311,1.053a.76.76,0,0,1,.382,1.175l-2.06,2.8a.76.76,0,0,0-.148.456l.022,3.474a.76.76,0,0,1-1,.726l-3.3-1.095a.76.76,0,0,0-.479,0l-3.3,1.095a.76.76,0,0,1-1-.726l.022-3.474a.76.76,0,0,0-.148-.456l-2.06-2.8a.76.76,0,0,1,.382-1.175L338.064,343a.76.76,0,0,0,.388-.281Z" transform="translate(-325.712 -330.237)"/><path class="i" d="M340.48,319.111a.76.76,0,0,1,1.235,0l2.024,2.824a.761.761,0,0,0,.388.281l3.311,1.052a.761.761,0,0,1,.382,1.175l-2.06,2.8a.76.76,0,0,0-.148.456l.022,3.474a.76.76,0,0,1-1,.726l-3.3-1.095a.76.76,0,0,0-.479,0l-3.3,1.095a.76.76,0,0,1-1-.726l.022-3.474a.76.76,0,0,0-.148-.456l-2.06-2.8a.761.761,0,0,1,.382-1.175l3.311-1.053a.761.761,0,0,0,.388-.281Z" transform="translate(-325.717 -310.261)"/><path class="j" d="M337.955,328.358a.987.987,0,0,1,.669-1.136l2.938-.934a.989.989,0,0,0,.5-.366l1.8-2.505a.987.987,0,0,1,1.6,0l1.8,2.505a.988.988,0,0,0,.5.366l2.937.934a.987.987,0,0,1,.625,1.289,31.726,31.726,0,0,1-6.339.613A31.038,31.038,0,0,1,337.955,328.358Z" transform="translate(-329.28 -314.309)"/><path class="a" d="M654.386,543.842a.669.669,0,0,1,.85-.5l.043.014a.57.57,0,0,1,.387.658,12.209,12.209,0,0,1-5.687,7.941.618.618,0,0,1-.816-.173h0a.666.666,0,0,1,.2-.96A10.924,10.924,0,0,0,654.386,543.842Z" transform="translate(-628.362 -526.102)"/></g></g></svg>