<svg xmlns="http://www.w3.org/2000/svg" width="16" height="16" viewBox="0 0 16 16"><defs><style>.a{fill:#458ff3;}</style></defs><g transform="translate(-647.984 -85.499)"><path class="a" d="M8,0a8,8,0,1,0,8,8s0-.007,0-.011v0s0-.007,0-.011V7.962h0V6.588h0V6.563h0V6.539h0V6.526h0v0h0V6.489h0V6.453h0v0h0v0h0v0h0v0h0v0h0v0h0v0h0v0h0v0h0V6.391h0V6.385h0v0h0V6.373h0V6.367h0V6.361h0V6.354h0V6.348h0V6.342h0V6.336h0V6.33h0V6.324h0V6.318h0V6.312h0V6.306h0V6.3h0V6.293h0V6.287h0V6.281h0V6.275h0V6.269h0V6.263h0V6.257h0V6.251h0V6.245h0V6.239h0V6.233h0V6.226h0V6.22h0V6.214h0V6.208h0V6.2h0V6.2h0V6.19h0V6.184h0V6.178h0V6.172h0V6.166h0V6.16h0V6.154h0V6.148h0V6.142h0V6.135h0V6.129h0V6.123h0V6.117h0V6.111h0V6.105h0V6.1h0V6.093h0V6.087h0V6.081h0V6.075h0V6.069h0V6.063h0V6.057h0V6.051h0V6.045h0V6.039h0V6.033h0l0-.012h0l0-.012h0l0-.012h0a7.962,7.962,0,0,0-1.2-2.6h0l-.028-.039h0l0,0h0l0,0h0l0,0h0l0,0h0l0,0h0l-.01-.014h0l0,0h0l0,0h0l0,0h0l0,0h0l0,0h0l0,0h0l0,0h0l0,0h0l0,0h0l0,0h0l0,0h0l0,0h0l0,0h0l0,0h0l0,0h0l0,0h0l0,0h0l0,0h0l0,0h0l0,0h0l0,0h0l0,0h0l0,0h0l0,0h0l0,0h0l0,0h0l0,0h0l0,0h0l0,0h0l0,0h0l0,0h0l0,0,0,0v0l0,0h0l0,0,0,0,0,0,0,0v0l0,0,0,0,0,0,0,0,0,0,0,0,0,0,0,0,0,0,0,0,0,0,0,0,0,0,0,0,0,0,0,0,0,0,0,0,0,0,0,0,0,0,0,0,0,0,0,0,0,0,0,0,0,0,0,0,0,0,0,0h0l0,0h0l0,0h0l0,0h0l0,0h0l0,0h0l0,0h0l0,0h0l0,0h0l0,0h0l0,0h0l0,0h0a8.052,8.052,0,0,0-.557-.615.5.5,0,0,0-.7.709A7,7,0,1,1,8,1,.5.5,0,0,0,8,0Z" transform="translate(647.984 85.499)"/></g></svg>