<svg xmlns="http://www.w3.org/2000/svg" width="20" height="20" viewBox="0 0 20 20">
  <g id="info" transform="translate(-683 -796)">
    <rect id="矩形_2409" data-name="矩形 2409" width="20" height="20" transform="translate(683 796)" fill="none"/>
    <path id="路径_2709" data-name="路径 2709" d="M8.359,1.3A6.394,6.394,0,0,0,3.743,3.311,7.131,7.131,0,0,0,2.318,5.477a6.922,6.922,0,0,0-.552,2.571,6.336,6.336,0,0,0,1.977,4.695,7.128,7.128,0,0,0,2.184,1.452,6.868,6.868,0,0,0,2.595.564h.123a6.354,6.354,0,0,0,4.571-1.98,7.072,7.072,0,0,0,2.007-4.661V8.079l.005-.036V8.02l0-.036V7.948A6.843,6.843,0,0,0,8.477,1.305H8.359v0Zm0-1.268.141,0a8.112,8.112,0,0,1,8,7.862c0,.043,0,.088,0,.136a.566.566,0,0,1-.006.136,8.087,8.087,0,0,1-7.848,7.868H8.5a8.077,8.077,0,0,1-8-8,8.086,8.086,0,0,1,7.853-8Zm.029,12.03a.174.174,0,0,0,.134.071.342.342,0,0,0,.237-.107,4.25,4.25,0,0,0,.773-.961l.25.143c-.721,1.254-1.491,1.884-2.3,1.884a1.024,1.024,0,0,1-.738-.263.882.882,0,0,1-.275-.663,2.391,2.391,0,0,1,.123-.675l.995-3.418a2.863,2.863,0,0,0,.145-.737.378.378,0,0,0-.139-.286.529.529,0,0,0-.368-.123c-.075,0-.162.005-.259.007l.088-.286,2.421-.393H9.9L8.432,11.341a3.042,3.042,0,0,0-.114.579.252.252,0,0,0,.07.145Zm1.816-7.3a1.042,1.042,0,0,1-.745.307A1.046,1.046,0,0,1,8.42,4.025a1.029,1.029,0,0,1,.3-.747,1,1,0,0,1,.737-.309,1.013,1.013,0,0,1,.75.309,1.033,1.033,0,0,1,.305.747.99.99,0,0,1-.311.741Z" transform="translate(684.496 797.967)" fill="#afb0b4"/>
  </g>
</svg>
