<svg xmlns="http://www.w3.org/2000/svg" width="36" height="36" viewBox="0 0 36 36"><defs><style>.a{fill:none;}.b{fill:#83c6ef;}.c{fill:#ade0ff;}.d{fill:#ffdf88;}.e{fill:#ffd858;}.f{fill:#fdc223;}.g{fill:#fce5be;}.h{fill:#ffc249;}</style></defs><g transform="translate(-2 -2)"><rect class="a" width="36" height="36" transform="translate(2 2)"/><g transform="translate(-79.58 -8.888)"><path class="b" d="M340.56,193.571h-6.075a1.086,1.086,0,1,1,0-2.171h6.075a1.086,1.086,0,1,1,0,2.171Z" transform="translate(-237.943 -170.406)"/><path class="c" d="M109.348,297.144l-6.915-11.4V281.8H96.726v3.949l-6.913,11.4a1.448,1.448,0,0,0,1.239,2.2h17.059A1.448,1.448,0,0,0,109.348,297.144Z" transform="translate(0 -258.635)"/><path class="c" d="M514.866,297.144l-6.915-11.4V281.8H505.1v17.542h8.527A1.448,1.448,0,0,0,514.866,297.144Z" transform="translate(-405.518 -258.635)"/><path class="d" d="M179.208,712.284l-2.419-3.987a1.016,1.016,0,0,0-.853-.483c-4.458-.084-4.833,2.376-6.639,2.4s-2.577-.6-3.961-1.59l-2.217,3.651a1.191,1.191,0,0,0,1.018,1.809h14.054A1.186,1.186,0,0,0,179.208,712.284Z" transform="translate(-71.582 -674.414)"/><path class="e" d="M383.667,611.867m-1.167,0a1.167,1.167,0,1,0,1.167-1.167A1.167,1.167,0,0,0,382.5,611.867Z" transform="translate(-285.863 -579.635)"/><path class="f" d="M392.6,636.58a1.165,1.165,0,0,0,2.095-.7,1.146,1.146,0,0,0-.159-.577A3.086,3.086,0,0,1,392.6,636.58Z" transform="translate(-295.721 -603.644)"/><path class="g" d="M416.1,620.237c0,.076.139.137.31.137s.31-.061.31-.137-.139-.137-.31-.137S416.1,620.161,416.1,620.237Z" transform="translate(-318.656 -588.809)"/><path class="e" d="M480.473,85.373m-.773,0a.773.773,0,1,0,.773-.773A.773.773,0,0,0,479.7,85.373Z" transform="translate(-380.728 -66.171)"/><path class="f" d="M486.4,101.648a.77.77,0,0,0,1.386-.466.789.789,0,0,0-.1-.382A2.04,2.04,0,0,1,486.4,101.648Z" transform="translate(-387.268 -81.982)"/><path class="g" d="M502,90.891c0,.05.091.091.2.091s.2-.041.2-.091-.091-.091-.2-.091S502,90.841,502,90.891Z" transform="translate(-402.493 -72.223)"/><path class="e" d="M446.548,19.848m-.548,0a.548.548,0,1,0,.548-.548A.548.548,0,0,0,446,19.848Z" transform="translate(-347.838 -2.44)"/><path class="f" d="M450.7,31.5a.546.546,0,0,0,.982-.329.538.538,0,0,0-.074-.269A1.445,1.445,0,0,1,450.7,31.5Z" transform="translate(-352.425 -13.761)"/><path class="g" d="M461.8,23.765c0,.036.065.065.144.065s.144-.029.144-.065-.065-.065-.144-.065S461.8,23.729,461.8,23.765Z" transform="translate(-363.258 -6.734)"/><path class="e" d="M560.808,17.408m-.608,0a.608.608,0,1,0,.608-.608A.608.608,0,0,0,560.2,17.408Z" transform="translate(-459.295)"/><path class="f" d="M565.4,30.365a.605.605,0,0,0,1.009-.665A1.6,1.6,0,0,1,565.4,30.365Z" transform="translate(-464.37 -12.59)"/><path class="g" d="M577.7,21.672c0,.04.072.072.161.072s.161-.032.161-.072-.072-.072-.161-.072S577.7,21.632,577.7,21.672Z" transform="translate(-476.375 -4.685)"/><path class="e" d="M492.777,416.677m-.877,0a.877.877,0,1,0,.877-.877A.877.877,0,0,0,491.9,416.677Z" transform="translate(-392.635 -389.416)"/><path class="f" d="M499.5,435.261a.873.873,0,0,0,1.453-.961A2.314,2.314,0,0,1,499.5,435.261Z" transform="translate(-400.053 -407.472)"/><path class="g" d="M517.2,423c0,.057.1.1.233.1s.233-.046.233-.1-.1-.1-.233-.1S517.2,422.946,517.2,423Z" transform="translate(-417.328 -396.346)"/><path class="h" d="M178.587,823.3a30.892,30.892,0,0,1-11.481,2.027c-1.249,0-2.469-.062-3.644-.18a1.183,1.183,0,0,0,1.086,1.653H178.6a1.188,1.188,0,0,0,1.016-1.8l-1.03-1.7Z" transform="translate(-71.992 -787.128)"/><path class="a" d="M508.466,191.5H505.3v2.169h3.166a.949.949,0,0,0,.949-.949v-.271A.949.949,0,0,0,508.466,191.5Z" transform="translate(-405.714 -170.504)"/></g></g></svg>