<svg xmlns="http://www.w3.org/2000/svg" width="36" height="36" viewBox="0 0 36 36"><defs><style>.a{fill:none;}.b{fill:#d6f3fa;}.c{fill:#18bae5;}</style></defs><g transform="translate(-2 -2)"><rect class="a" width="36" height="36" transform="translate(2 2)"/><path class="b" d="M9.4,23.223a1.026,1.026,0,0,1-.981-.729,6.154,6.154,0,0,0-1.93-3.152,4.221,4.221,0,0,0-2.064-.614,3.953,3.953,0,0,1-2.965-1.3c-1.054-1.453-.085-3.457.622-4.92.156-.323.3-.63.408-.882a3.656,3.656,0,0,0-.734-.49c-.465-.26-.946-.528-1.061-1.113A1.129,1.129,0,0,1,.92,9.1l0-.006c.179-.22.421-.518,3.78-2.255a7.567,7.567,0,0,1,2.687-4.5A9.279,9.279,0,0,1,13.181.666a9.466,9.466,0,0,1,7.758,3.6,10.838,10.838,0,0,1,2.281,6.486,8.9,8.9,0,0,1-2.294,5.755,10.358,10.358,0,0,1-4.988,3.187,9.178,9.178,0,0,0,1.371,1.814,1.026,1.026,0,0,1-.071,1.449C16.819,23.337,9.495,23.223,9.4,23.223Z" transform="translate(7.011 8.214)"/><g transform="translate(9.302 9.532)"><path class="c" d="M14.034,20.623c-1.273-1.4-2.46-3.005-1.625-4.242l.221-.329.389-.073a7.3,7.3,0,0,0,6.008-6.617A7.317,7.317,0,0,0,11.612,1.9c-3.591,0-5.525,1.47-6.087,4.626L5.442,7l-.419.215c-1.138.585-1.894.991-2.4,1.271a3.112,3.112,0,0,1,.425.367,1.8,1.8,0,0,1,.424,1.97l0,.009c-.121.306-.281.639-.452.991-.37.766-1.06,2.192-.746,2.625.19.265.806.347,1.458.433a5.541,5.541,0,0,1,2.847.965,7.554,7.554,0,0,1,2.431,3.868.951.951,0,0,1-.636,1.186.929.929,0,0,1-.275.041.949.949,0,0,1-.911-.677A5.71,5.71,0,0,0,5.4,17.334a3.925,3.925,0,0,0-1.916-.57A3.671,3.671,0,0,1,.73,15.555c-.978-1.349-.078-3.208.577-4.566.145-.3.283-.585.379-.819A3.388,3.388,0,0,0,1,9.715C.573,9.474.126,9.225.019,8.682a1.053,1.053,0,0,1,.213-.858l0-.005c.167-.2.391-.481,3.509-2.092A7.022,7.022,0,0,1,6.24,1.55,8.609,8.609,0,0,1,11.612,0a8.783,8.783,0,0,1,7.2,3.342,10.056,10.056,0,0,1,2.118,6.02A8.257,8.257,0,0,1,18.8,14.7a9.618,9.618,0,0,1-4.63,2.959,8.594,8.594,0,0,0,1.272,1.683.952.952,0,1,1-1.41,1.279Zm-2.31-5.839a.951.951,0,0,1-.741-1.123,3.213,3.213,0,0,1,.495-1.12,1.679,1.679,0,0,1-.891-.553,2.491,2.491,0,0,1-.486-1.755A4.454,4.454,0,0,1,7.938,9.18l-.01-.01C7.179,8.42,7,7.259,7.409,5.714l.008-.028A2.767,2.767,0,0,1,9.766,3.824l.017,0a3.831,3.831,0,0,1,.7-.075,1.579,1.579,0,0,1,1.2.472h.036c1.61,0,2.7.487,2.978,1.3a2.776,2.776,0,0,0,.42.028,1.39,1.39,0,0,1,1.034.531,4.711,4.711,0,0,1,.983,3.476l0,.013a2.148,2.148,0,0,1-2.285,2.029h-.079a3.89,3.89,0,0,0-.694.62c-.184.258-.357.49-.51.694a3.969,3.969,0,0,0-.712,1.136.952.952,0,0,1-.932.761A.974.974,0,0,1,11.724,14.785ZM10.141,5.69c-.757.158-.861.411-.894.522-.205.8-.2,1.38.023,1.608a3.548,3.548,0,0,0,2,.69l.813,1.108a3.037,3.037,0,0,0-.051,1.074c.762-.082.838-.36.866-.464l1.17-.664q.12.033.231.058a.953.953,0,0,1,.862,0,.515.515,0,0,0,.079-.272A2.985,2.985,0,0,0,14.8,7.441c-1.367-.078-1.785-.684-1.9-1.146a3.628,3.628,0,0,0-1.189-.174,1.737,1.737,0,0,1-1.293-.47A2.358,2.358,0,0,0,10.141,5.69Z" transform="translate(0)"/></g></g></svg>