<svg xmlns="http://www.w3.org/2000/svg" width="28" height="26" viewBox="0 0 28 26"><defs><style>.a,.c,.d{fill:none;}.b{fill:#fff;}.c,.d{stroke:#fff;stroke-linecap:round;}.c{stroke-linejoin:round;}</style></defs><g transform="translate(-30 -20)"><rect class="a" width="28" height="26" transform="translate(30 20)"/><path class="b" d="M1.9,6.657H25.865V3.612a1.856,1.856,0,0,0-1.9-1.805H3.808A1.856,1.856,0,0,0,1.9,3.612V6.659Zm0,2.18v12.55a1.856,1.856,0,0,0,1.9,1.805H23.96a1.856,1.856,0,0,0,1.9-1.805V8.836H1.9ZM3.808,0H23.96a3.713,3.713,0,0,1,3.808,3.611V21.388A3.713,3.713,0,0,1,23.96,25H3.808A3.713,3.713,0,0,1,0,21.388V3.612A3.713,3.713,0,0,1,3.808,0ZM20.627,5.114a.9.9,0,1,1,.952-.9.928.928,0,0,1-.952.9Zm2.7,0a.9.9,0,1,1,.952-.9A.928.928,0,0,1,23.325,5.114Zm0,0" transform="translate(30 21)"/><path class="c" d="M39.366,33.149l-3.249,3.336,3.249,3.75"/><path class="c" d="M36.118,33.149l3.249,3.336-3.249,3.75" transform="translate(12)"/><path class="d" d="M45.994,31.257l-2.682,10.6" transform="translate(-1 0.273)"/></g></svg>