<svg xmlns="http://www.w3.org/2000/svg" width="20" height="20" viewBox="0 0 20 20"><defs><style>.a{fill:none;}.b{fill:#d86c4e;}</style></defs><g transform="translate(0 -19)"><rect class="a" width="20" height="20" transform="translate(0 19)"/><path class="b" d="M86.116,129.135l-7.847-13.589c-.958-1.661-2.528-1.661-3.488,0l-7.845,13.589c-.961,1.663-.175,3.019,1.742,3.019H84.372C86.288,132.154,87.074,130.8,86.116,129.135Zm-8.62.018a1.34,1.34,0,0,1-.716.375c-.085,0-.168.007-.256.007s-.171,0-.256-.007a1.348,1.348,0,0,1-.716-.375,1.3,1.3,0,0,1-.406-.965,1.378,1.378,0,0,1,2.756,0A1.283,1.283,0,0,1,77.5,129.153Zm-.312-3.172h-1.3c-.157-1.917-.741-4.552-.741-4.911a1.464,1.464,0,0,1,.386-1.035,1.291,1.291,0,0,1,.992-.422,1.3,1.3,0,0,1,.992.415,1.47,1.47,0,0,1,.386,1.042C77.9,121.429,77.366,124.064,77.184,125.981Z" transform="translate(-66.524 -94.227)"/></g></svg>