<svg xmlns="http://www.w3.org/2000/svg" width="24" height="24" viewBox="0 0 24 24"><defs><style>.a{fill:none;}.b{fill:#afb0b4;}</style></defs><g transform="translate(-369 -261)"><rect class="a" width="24" height="24" transform="translate(369 261)"/><path class="b" d="M11.03,22a11,11,0,0,1,0-22h.89l.028,0h.146l.028,0h.154l.026,0h.146l.034,0h.129l.059.009h.11l.009,0h0l.042.007h0l.01,0h.126l.042.008.008,0,.008,0,.008,0,.008,0,.008,0,.008,0,.008,0,.008,0,.008,0,.008,0L13.1.2l.008,0,.009,0,.009,0h0l.059.012h0l.009,0,.008,0,.009,0,.008,0,.008,0,.008,0,.008,0,.008,0,.008,0,.008,0,.008,0,.008,0,.008,0,.016,0h0l.033.007h0l.009,0,.009,0,.008,0,.009,0,.008,0,.008,0,.008,0,.008,0,.008,0,.008,0,.008,0,.008,0,.008,0,.008,0,.075.017h0l.009,0,.008,0,.008,0,.008,0,.008,0,.008,0L13.6.3l.008,0,.008,0,.008,0,.008,0h0l.083.02.008,0h0l.009,0,.008,0,.008,0,.008,0,.008,0,.008,0,.008,0,.008,0,.008,0,.09.024.008,0,.008,0,.008,0,.008,0,.008,0,.008,0,.008,0,.008,0,.008,0h0l.082.023h0l.016,0h0l.008,0,.008,0,.008,0,.008,0,.008,0,.008,0,.008,0L14.22.47l.008,0,.008,0,.008,0,.008,0,.008,0,.008,0,.008,0,.008,0,.008,0,.008,0h0l.08.025h0l.008,0h0l.008,0,.008,0,.008,0,.008,0,.008,0,.008,0,.008,0,.1.035h0l.008,0,.008,0,.008,0,.008,0h0l.008,0,.008,0,.008,0h0l.127.045h0l.016.006.008,0h0l.15.055h0l.015.006.008,0h0l.008,0h0l.125.048h0l.008,0h0l.008,0h0l.14.056h0l.008,0h0l.008,0h0l.015.006h0l.123.052h0l.008,0h0l.008,0h0L15.4.9h0l.153.068h0l.121.056h0l.015.007h0a10.969,10.969,0,0,1,1.04.558h0l.007,0h0l.007,0h0q.135.082.266.168h0l.138.091h0l.007,0h0l.007,0h0l.006,0h0l.006,0h0l.006,0h0l.007,0h0l.123.084h0l.121.086h0l.007,0h0l.007,0h0l.02.015h0l.107.078h0l.007,0h0l.006,0h0l.007,0h0l.013.01h0l.105.08h0l.006,0h0l.117.091h0l.006,0h0l.006,0h0l.019.015h0l.1.078h0l.006,0h0l.006,0h0l.006.005h0l.006.005h0l.006,0h0l.013.01h0l.1.079h0l.006.005h0l.006.005h0l.006.005h0l.1.086h0l.006.005h0l.006.005h0l.012.011h0l.006.005h0l.105.093h0l.006.005h0l.006.005h0l.11.1h0l.012.011h0l.1.09h0l.006.006h0l.006.005h0l.006.005h0l.006.005h0l.005.005h0l.005.005h0l.006.005h0l.006.005h0l.083.08h0l.006.006h0l.005.005h0l.005.005h0l.006.005h0l.006.006h0l.006.005h0l.006.006h0l.076.076h0l.006.006h0l.005.005h0l.005.005h0l.006.006h0l.092.094h0l.006.006h0l.005.006h0l.005.006h0l.005.006h0l.005.005h0l.005.005h0L19,3.416h0l.079.084h0l.005.006h0l.005.006h0l.005.006h0l.005.006h0l.095.1h0A10.956,10.956,0,0,1,22,10.161a.75.75,0,0,1-1.5.11A9.5,9.5,0,1,0,11.03,20.5a.75.75,0,1,1,0,1.5Z" transform="translate(370 262)"/><path class="b" d="M377.416,267.737h6.952a.75.75,0,0,1,.627.338l1.836,2.8a.75.75,0,0,1-.046.886l-5.235,6.419a.75.75,0,0,1-.579.276h0a.75.75,0,0,1-.579-.273l-5.286-6.419a.75.75,0,0,1-.059-.872l1.733-2.8A.75.75,0,0,1,377.416,267.737Zm6.547,1.5h-6.129l-1.23,1.986,4.363,5.3,4.309-5.284Z" transform="translate(0 1)"/><rect class="b" width="8.935" height="1.5" rx="0.75" transform="translate(384.065 279)"/><rect class="b" width="8.935" height="1.5" rx="0.75" transform="translate(389.283 275.283) rotate(90)"/></g></svg>