<svg xmlns="http://www.w3.org/2000/svg" width="32" height="32" viewBox="0 0 32 32"><defs><style>.a{fill:none;}</style></defs><g transform="translate(-2 -4.001)"><rect class="a" width="32" height="32" transform="translate(2 4.001)"/><path d="M10.09,8a1.94,1.94,0,0,1,1.28.28l13,7.39L21.08,19Zm-1,1A2.31,2.31,0,0,0,9,9.67V30.33a2.31,2.31,0,0,0,.09.67l11-11Zm12,12-11,11a1.88,1.88,0,0,0,1.28-.28l13-7.39Zm8.52-2.34-3.94-2.24L22.07,20l3.59,3.59,3.94-2.24c1.3-.74,1.3-1.96,0-2.7Z" transform="translate(-1)"/></g></svg>