<svg xmlns="http://www.w3.org/2000/svg" xmlns:xlink="http://www.w3.org/1999/xlink" width="22" height="22" viewBox="0 0 22 22"><defs><style>.a{fill:none;}.b{fill:url(#a);}</style><linearGradient id="a" x1="0.5" x2="0.5" y2="1" gradientUnits="objectBoundingBox"><stop offset="0" stop-color="#fac234"/><stop offset="1" stop-color="#fe9f34"/></linearGradient></defs><g transform="translate(-525.979 -327)"><rect class="a" width="22" height="22" transform="translate(525.979 327)"/><path class="b" d="M96.7,117.222a.912.912,0,0,0-.49.143l-4.089,2.6-4.232-5.392a.912.912,0,0,0-1.435,0l-4.232,5.392-4.089-2.6a.912.912,0,0,0-.49-.143,1.2,1.2,0,0,0-1.208,1.189.909.909,0,0,0,.013.156l2.461,14.188a1.2,1.2,0,0,0,1.2,1.083H94.231a1.2,1.2,0,0,0,1.2-1.083L97.9,118.567a.912.912,0,0,0,.013-.156A1.2,1.2,0,0,0,96.7,117.222Zm-6.094,7.885-2.659,4.255a.912.912,0,0,1-.774.429h0a.911.911,0,0,1-.774-.429l-2.659-4.255a.912.912,0,0,1,1.547-.967l1.888,3.021,1.887-3.021a.912.912,0,0,1,1.547.967Z" transform="translate(449.828 213.69)"/></g></svg>