<svg xmlns="http://www.w3.org/2000/svg" width="20" height="20" viewBox="0 0 20 20"><defs><style>.a,.c{fill:none;}.b{fill:#212121;}.c{stroke:#212121;stroke-linecap:round;stroke-linejoin:round;stroke-width:1.5px;}</style></defs><rect class="a" width="20" height="20" rx="2"/><g transform="translate(-9298 1589.885)"><path class="b" d="M9,1.73a.1.1,0,0,0-.049.013L3.246,4.913a.1.1,0,0,0,0,.175l5.705,3.17a.1.1,0,0,0,.1,0l5.705-3.17a.1.1,0,0,0,0-.175L9.049,1.743A.1.1,0,0,0,9,1.73M9,.23a1.6,1.6,0,0,1,.777.2L15.482,3.6a1.6,1.6,0,0,1,0,2.8L9.777,9.568a1.6,1.6,0,0,1-1.554,0L2.518,6.4a1.6,1.6,0,0,1,0-2.8L8.223.432A1.6,1.6,0,0,1,9,.23Z" transform="translate(9299 -1588.426)"/><path class="c" d="M9297.471-1584.661l6.474,3.513,6.726-3.513" transform="translate(3.93 5.376)"/><path class="c" d="M9297.471-1584.661l6.474,3.513,6.726-3.513" transform="translate(3.93 9.176)"/></g></svg>