<svg xmlns="http://www.w3.org/2000/svg" width="14" height="14" viewBox="0 0 14 14"><defs><style>.a{fill:#458ff3;}</style></defs><path class="a" d="M1117,2082h-12a1,1,0,0,1-1-1v-12a1,1,0,0,1,1-1h12a1,1,0,0,1,1,1v12A1,1,0,0,1,1117,2082Zm-10.146-7.8a.5.5,0,0,0-.353.146l-.354.354a.5.5,0,0,0,0,.707l2.943,2.943a.5.5,0,0,0,.057.067l.354.353a.5.5,0,0,0,.707,0l6.364-6.364a.5.5,0,0,0,0-.707l-.354-.354a.5.5,0,0,0-.707,0l-5.652,5.652-2.651-2.652A.5.5,0,0,0,1106.854,2074.2Z" transform="translate(-1104 -2068)"/></svg>