<svg xmlns="http://www.w3.org/2000/svg" width="40" height="40" viewBox="0 0 40 40"><defs><style>.a{fill:none;}.b{fill:#c2e3c4;}.c{fill:#fa4;}.d{fill:#a2cea5;}.e{fill:#fff;}</style></defs><rect class="a" width="40" height="40"/><g transform="translate(9.5 9.387)"><rect class="b" width="21" height="22" rx="2.5" transform="translate(0 -0.387)"/><path class="c" d="M2.5,0h16A2.5,2.5,0,0,1,21,2.5V6a0,0,0,0,1,0,0H0A0,0,0,0,1,0,6V2.5A2.5,2.5,0,0,1,2.5,0Z" transform="translate(0 -0.387)"/><path class="d" d="M102.844,256h8.38L100.54,271.895H92.16Z" transform="translate(-90.224 -250.387)"/><path class="e" d="M83.1,62.623m-1.183,0A1.183,1.183,0,1,0,83.1,61.44,1.183,1.183,0,0,0,81.92,62.623Z" transform="translate(-80.199 -59.902)"/><path class="e" d="M4248-17094.654l1.446-2.363h1.12l-1.442,2.363Zm1.446-2.369-1.446-2.363h1.124l1.442,2.363Z" transform="translate(-4242.608 17099.633)"/><path class="e" d="M4248-17094.654l1.446-2.363h1.12l-1.442,2.363Zm1.446-2.369-1.446-2.363h1.124l1.442,2.363Z" transform="translate(-4238.738 17099.633)"/><path class="e" d="M4248-17094.654l1.446-2.363h1.12l-1.442,2.363Zm1.446-2.369-1.446-2.363h1.124l1.442,2.363Z" transform="translate(-4234.738 17099.633)"/><path class="e" d="M4248-17094.654l1.446-2.363h1.12l-1.442,2.363Zm1.446-2.369-1.446-2.363h1.124l1.442,2.363Z" transform="translate(-4231.538 17099.633)"/><path class="e" d="M3.653.882a.6.6,0,0,1,1.035,0L7.812,6.206a.6.6,0,0,1-.518.9H1.048a.6.6,0,0,1-.518-.9Z" transform="translate(15.382 8.824) rotate(90)"/></g></svg>