<svg xmlns="http://www.w3.org/2000/svg" xmlns:xlink="http://www.w3.org/1999/xlink" width="234" height="118" viewBox="0 0 234 118"><defs><style>.a{fill:#fff;}.b{clip-path:url(#a);}.c{fill:none;}.d{fill:#f2b04e;}.e{fill:#fee773;}.f{fill:#ffcc31;}.g{fill:#fa7b4d;}.h{fill:#fbbb4c;}.i{fill:rgba(244,181,56,0.42);}.j{fill:#dd8d1a;}.k{fill:#ffd83a;}.l{fill:#ffea8d;}</style><clipPath id="a"><rect class="a" width="234" height="118" transform="translate(224 14)"/></clipPath></defs><g class="b" transform="translate(-224 -14)"><g transform="translate(224.252 18.133)"><rect class="c" width="169.651" height="169.651" transform="translate(0)"/><g transform="translate(0 0)"><path class="d" d="M195.976,211.976m-81.976,0A81.976,81.976,0,1,0,195.976,130,81.976,81.976,0,0,0,114,211.976Z" transform="translate(-114 -123.409)"/><path class="e" d="M195.976,179.977m-81.976,0A81.976,81.976,0,1,0,195.976,98,81.976,81.976,0,0,0,114,179.977Z" transform="translate(-114 -98)"/><path class="f" d="M288.084,272.084m-58.084,0A58.084,58.084,0,1,0,288.084,214,58.084,58.084,0,0,0,230,272.084Z" transform="translate(-206.107 -190.107)"/><path class="g" d="M261.617,180.668a64.949,64.949,0,1,1-64.949,64.949A64.98,64.98,0,0,1,261.617,180.668Zm0,6.866A58.084,58.084,0,1,0,319.7,245.617,58.111,58.111,0,0,0,261.617,187.534Z" transform="translate(-179.641 -163.641)"/><path class="h" d="M261.617,180.668a64.949,64.949,0,1,1-64.949,64.949A64.98,64.98,0,0,1,261.617,180.668Zm0,6.866A58.084,58.084,0,1,0,319.7,245.617,58.111,58.111,0,0,0,261.617,187.534Z" transform="translate(-179.641 -163.641)"/><path class="i" d="M257.4,304.477c2.918-1.467,6.41-2.97,7.538-7.38,4.147-16.2,87.332-104.633,87.332-104.633s.077-10.843,6.148-17A81.966,81.966,0,1,1,257.4,304.477Z" transform="translate(-227.864 -159.509)"/><path class="j" d="M396.188,266.658a6.2,6.2,0,0,1-.047-8.54c.255-.306.4-.458.4-.458v-.03a.039.039,0,0,1,.009-.049.038.038,0,0,1,.05,0A64.936,64.936,0,0,1,314.32,358a3.081,3.081,0,0,1-.663-4.1l-.008,0a3.743,3.743,0,0,1,5.407-.917,58.07,58.07,0,0,0,77.132-86.32Z" transform="translate(-272.133 -224.704)"/><path class="d" d="M367.547,341.264a4.051,4.051,0,0,1,6.585,0l10.789,15.05a4.052,4.052,0,0,0,2.065,1.5l17.647,5.61a4.051,4.051,0,0,1,2.035,6.262L395.688,384.6a4.051,4.051,0,0,0-.789,2.428l.118,18.516a4.051,4.051,0,0,1-5.327,3.871l-17.574-5.834a4.048,4.048,0,0,0-2.553,0l-17.574,5.834a4.05,4.05,0,0,1-5.327-3.871l.118-18.516a4.048,4.048,0,0,0-.788-2.428l-10.98-14.912a4.051,4.051,0,0,1,2.035-6.262l17.647-5.61a4.051,4.051,0,0,0,2.066-1.5Z" transform="translate(-288.863 -289.816)"/><path class="k" d="M367.551,320.484a4.05,4.05,0,0,1,6.584,0l10.789,15.051a4.056,4.056,0,0,0,2.065,1.5l17.646,5.609a4.054,4.054,0,0,1,2.035,6.264l-10.98,14.911a4.051,4.051,0,0,0-.788,2.428l.118,18.517a4.051,4.051,0,0,1-5.328,3.871L372.12,382.8a4.049,4.049,0,0,0-2.552,0l-17.574,5.835a4.051,4.051,0,0,1-5.327-3.871l.118-18.517a4.051,4.051,0,0,0-.788-2.428l-10.98-14.911a4.053,4.053,0,0,1,2.035-6.263l17.647-5.61a4.056,4.056,0,0,0,2.065-1.5Z" transform="translate(-288.867 -273.316)"/><path class="l" d="M338.04,351.533a5.262,5.262,0,0,1,3.563-6.056l15.655-4.976a5.27,5.27,0,0,0,2.682-1.948l9.571-13.351a5.26,5.26,0,0,1,8.552,0l9.571,13.351a5.265,5.265,0,0,0,2.682,1.948l15.655,4.976a5.262,5.262,0,0,1,3.328,6.871,169.093,169.093,0,0,1-33.784,3.267A165.407,165.407,0,0,1,338.04,351.533Z" transform="translate(-291.811 -276.66)"/><path class="c" d="M677.532,546.135a3.565,3.565,0,0,1,4.53-2.667c.076.026.154.049.231.073a3.038,3.038,0,0,1,2.062,3.509,65.066,65.066,0,0,1-30.307,42.32,3.293,3.293,0,0,1-4.35-.922l0,0a3.551,3.551,0,0,1,1.076-5.117A58.22,58.22,0,0,0,677.532,546.135Z" transform="translate(-538.837 -451.591)"/></g></g><g transform="translate(349.069 82.422)"><rect class="c" width="109.252" height="109.252" transform="translate(0)"/><g transform="translate(0 0)"><path class="d" d="M166.791,182.791m-52.791,0A52.791,52.791,0,1,0,166.791,130,52.791,52.791,0,0,0,114,182.791Z" transform="translate(-114 -125.756)"/><path class="e" d="M166.791,150.791m-52.791,0A52.791,52.791,0,1,0,166.791,98,52.791,52.791,0,0,0,114,150.791Z" transform="translate(-114 -98)"/><path class="f" d="M267.4,251.4m-37.4,0A37.4,37.4,0,1,0,267.4,214,37.4,37.4,0,0,0,230,251.4Z" transform="translate(-214.614 -198.614)"/><path class="g" d="M238.494,180.668a41.826,41.826,0,1,1-41.826,41.826A41.846,41.846,0,0,1,238.494,180.668Zm0,4.421a37.4,37.4,0,1,0,37.4,37.4A37.422,37.422,0,0,0,238.494,185.089Z" transform="translate(-185.703 -169.703)"/><path class="h" d="M238.494,180.668a41.826,41.826,0,1,1-41.826,41.826A41.846,41.846,0,0,1,238.494,180.668Zm0,4.421a37.4,37.4,0,1,0,37.4,37.4A37.422,37.422,0,0,0,238.494,185.089Z" transform="translate(-185.703 -169.703)"/><path class="i" d="M257.4,258.546c1.879-.945,4.128-1.913,4.855-4.752,2.671-10.436,56.24-67.382,56.24-67.382s.05-6.983,3.959-10.948A52.784,52.784,0,1,1,257.4,258.546Z" transform="translate(-238.379 -165.189)"/><path class="j" d="M366.626,263.423a3.993,3.993,0,0,1-.03-5.5c.165-.2.256-.3.256-.3v-.019a.025.025,0,0,1,.006-.032.024.024,0,0,1,.032,0,41.817,41.817,0,0,1-52.986,64.67,1.984,1.984,0,0,1-.427-2.643l0,0a2.411,2.411,0,0,1,3.482-.591,37.4,37.4,0,0,0,49.671-55.588Z" transform="translate(-286.737 -236.405)"/><path class="d" d="M355.683,340.663a2.608,2.608,0,0,1,4.24,0l6.948,9.692a2.609,2.609,0,0,0,1.33.966l11.364,3.612a2.609,2.609,0,0,1,1.31,4.033l-7.071,9.6a2.608,2.608,0,0,0-.508,1.563l.076,11.924a2.609,2.609,0,0,1-3.431,2.493l-11.317-3.757a2.608,2.608,0,0,0-1.644,0l-11.317,3.757a2.608,2.608,0,0,1-3.431-2.493l.076-11.924a2.607,2.607,0,0,0-.508-1.563l-7.071-9.6a2.609,2.609,0,0,1,1.31-4.033l11.364-3.612a2.609,2.609,0,0,0,1.33-.966Z" transform="translate(-305.012 -307.531)"/><path class="k" d="M355.688,319.882a2.608,2.608,0,0,1,4.24,0l6.948,9.692a2.613,2.613,0,0,0,1.33.966l11.364,3.612a2.611,2.611,0,0,1,1.311,4.034l-7.071,9.6a2.608,2.608,0,0,0-.508,1.564l.076,11.924a2.609,2.609,0,0,1-3.431,2.493l-11.317-3.758a2.607,2.607,0,0,0-1.644,0l-11.318,3.758a2.609,2.609,0,0,1-3.431-2.493l.076-11.924a2.608,2.608,0,0,0-.508-1.564l-7.071-9.6a2.61,2.61,0,0,1,1.31-4.033l11.364-3.613a2.612,2.612,0,0,0,1.33-.966Z" transform="translate(-305.016 -289.507)"/><path class="l" d="M338,341.376a3.388,3.388,0,0,1,2.295-3.9l10.082-3.2a3.394,3.394,0,0,0,1.727-1.255l6.164-8.6a3.387,3.387,0,0,1,5.507,0l6.164,8.6a3.391,3.391,0,0,0,1.727,1.255l10.082,3.2a3.389,3.389,0,0,1,2.143,4.425,108.89,108.89,0,0,1-21.756,2.1A106.522,106.522,0,0,1,338,341.376Z" transform="translate(-308.232 -293.16)"/><path class="c" d="M667.388,545.13a2.3,2.3,0,0,1,2.917-1.718c.049.017.1.032.149.047a1.956,1.956,0,0,1,1.328,2.259,41.9,41.9,0,0,1-19.517,27.253,2.121,2.121,0,0,1-2.8-.594l0,0a2.287,2.287,0,0,1,.693-3.3A37.493,37.493,0,0,0,667.388,545.13Z" transform="translate(-578.072 -484.245)"/></g></g></g></svg>