<svg xmlns="http://www.w3.org/2000/svg" width="36" height="36" viewBox="0 0 36 36"><defs><style>.a{fill:none;}.b{fill:#181542;}</style></defs><rect class="a" width="36" height="36"/><g transform="translate(-819 -761)"><rect class="a" width="36" height="36" transform="translate(819 761)"/><path class="b" d="M20.566,27.089H7.15V9.545c2.16-.64,3.669-3.043,3.669-5.848a3.863,3.863,0,0,1,4-3.7,3.812,3.812,0,0,1,1.594.368A4.245,4.245,0,0,1,18.024,1.68a6,6,0,0,1,1.109,3.233A13.279,13.279,0,0,1,18.8,8.645l4.027.062a4.785,4.785,0,0,1,3.736,1.84,4.591,4.591,0,0,1,.863,3.88l-2.084,8.942a4.775,4.775,0,0,1-1.733,2.683A5,5,0,0,1,20.566,27.089Zm-15.673,0H2.341A2.343,2.343,0,0,1,0,24.749V12.043A2.343,2.343,0,0,1,2.341,9.7H4.894V27.088Z" transform="translate(823.515 765.141)"/></g></svg>