<svg xmlns="http://www.w3.org/2000/svg" width="20" height="20" viewBox="0 0 20 20"><defs><style>.a{fill:none;}.b{fill:#212121;}.c{fill:#040000;}</style></defs><rect class="a" width="20" height="20" rx="2"/><g transform="translate(2.002 2.002)"><path class="b" d="M-9209.04,1384.529h-4.713a.75.75,0,0,1-.749-.75.75.75,0,0,1,.749-.75h3.682a4.966,4.966,0,0,0,1.03,1.5ZM-9210.4,1382h-5.6a2,2,0,0,1-2-2v-8a2,2,0,0,1,2-2h11a2,2,0,0,1,2,2v4.669a4.963,4.963,0,0,0-1.5-.568V1372a.5.5,0,0,0-.5-.5h-11a.5.5,0,0,0-.5.5v8a.5.5,0,0,0,.5.5h5.523a4.964,4.964,0,0,0-.024.5,5.009,5.009,0,0,0,.1,1Z" transform="translate(9218.5 -1368.999)"/><g transform="translate(8.998 8.061)"><path class="c" d="M5.121,7.469a.592.592,0,0,1-.451-.2,1.363,1.363,0,0,0-.7-.395,1.24,1.24,0,0,0-.733.366.639.639,0,0,1-.7.132l-.94-.526a.592.592,0,0,1-.188-.714,1.287,1.287,0,0,0,.075-.329A.855.855,0,0,0,.639,4.95a.507.507,0,0,1-.46-.46A5.356,5.356,0,0,1,0,3.71,5.225,5.225,0,0,1,.085,2.94a.5.5,0,0,1,.536-.46.846.846,0,0,0,.846-.855A.8.8,0,0,0,1.391,1.3.592.592,0,0,1,1.6.581l.94-.536a.639.639,0,0,1,.7.15,1.344,1.344,0,0,0,.714.432A1.3,1.3,0,0,0,4.642.2a.63.63,0,0,1,.7-.141l.94.517a.583.583,0,0,1,.291.714,1.287,1.287,0,0,0,0,.329.855.855,0,0,0,.855.855.507.507,0,0,1,.46.47,4.952,4.952,0,0,1,0,1.579.507.507,0,0,1-.46.46.846.846,0,0,0-.846.855.8.8,0,0,0-.009.329.583.583,0,0,1-.2.714l-1,.545a.7.7,0,0,1-.235,0Zm0-.94L5.7,6.21a1.344,1.344,0,0,1-.066-.348,1.691,1.691,0,0,1,1.438-1.7,2.236,2.236,0,0,0,0-.432,2.143,2.143,0,0,0,0-.423h-.15A1.72,1.72,0,0,1,5.732,1.173L5.215.891a1.879,1.879,0,0,1-1.193.526,1.879,1.879,0,0,1-1.2-.592l-.554.31a1.654,1.654,0,0,1,.066.423A1.72,1.72,0,0,1,.94,3.268v.423a3.5,3.5,0,0,0,0,.432,1.7,1.7,0,0,1,1.41,1.7,1.532,1.532,0,0,1-.066.423l.536.282A1.879,1.879,0,0,1,3.994,6a1.879,1.879,0,0,1,1.165.526Z" transform="translate(0 0)"/><path class="c" d="M146.619,131.007a1.043,1.043,0,1,1,.97-.637,1.043,1.043,0,0,1-.97.637Zm-1.889-1.043a1.879,1.879,0,1,0,1.879-1.879A1.879,1.879,0,0,0,144.73,129.964Z" transform="translate(-142.606 -126.254)"/></g></g></svg>