<svg xmlns="http://www.w3.org/2000/svg" width="32" height="32" viewBox="0 0 32 32"><defs><style>.a{fill:none;}.b{fill:#fff;}</style></defs><g transform="translate(4.082 3.5)"><rect class="a" width="32" height="32" transform="translate(-4.082 -3.5)"/><path class="b" d="M20.7,16.8a4.093,4.093,0,0,1-2.5-3.9,4.354,4.354,0,0,1,2.1-3.7c.1-.1.2-.2.2-.3a.6.6,0,0,0-.1-.4,5.18,5.18,0,0,0-4.2-2.3,6.983,6.983,0,0,0-3,.6,2.607,2.607,0,0,1-1.1.3A6.149,6.149,0,0,1,11,6.8a6.064,6.064,0,0,0-2.4-.6h0A5.818,5.818,0,0,0,3.8,9.1C2,12.6,3.2,17.6,5.2,20.6c.8,1.2,2,2.9,3.7,2.9H9a3.1,3.1,0,0,0,1.7-.5,4.256,4.256,0,0,1,1.7-.4A3.408,3.408,0,0,1,14,23a4.359,4.359,0,0,0,1.8.4h0c1.7,0,2.8-1.6,3.6-2.9a10.347,10.347,0,0,0,1.5-3.2C21.1,17.2,21,16.9,20.7,16.8Z"/><path class="b" d="M14.9,3.3A4.3,4.3,0,0,0,16,.5,4.968,4.968,0,0,0,13.5,2a4.754,4.754,0,0,0-1.1,2.8A3.894,3.894,0,0,0,14.9,3.3Z"/></g></svg>