<svg xmlns="http://www.w3.org/2000/svg" width="16" height="16" viewBox="0 0 16 16"><defs><style>.a{fill:none;}.b{fill:#cad8fc;}.c{fill:#98b7f9;}.d{fill:#c0d6ff;}.e{fill:#6491f9;}.f{fill:#ffece1;}</style></defs><g transform="translate(-419 -169)"><rect class="a" width="16" height="16" transform="translate(419 169)"/><g transform="translate(361.712 -28.34)"><path class="b" d="M81.26,202.737l3.425-3.467a.527.527,0,0,1,.374-.158h8.073a.527.527,0,0,1,.374.158l3.425,3.467a.527.527,0,0,1,.029.709l-7.667,9.127a.263.263,0,0,1-.372.032l-.034-.032-7.657-9.127A.527.527,0,0,1,81.26,202.737Z" transform="translate(-23.797 -0.001)"/><path class="c" d="M316.578,199.111l-3.689,3.952h7.378Z" transform="translate(-251.283 0)"/><path class="d" d="M312.889,412.444l3.689,10.276,3.689-10.276Z" transform="translate(-251.283 -209.381)"/><path class="c" d="M61.606,412.444s-4.252,0-4.294,0-.042.11.108.334c.482.591,7.874,9.942,7.874,9.942Z" transform="translate(0 -209.381)"/><path class="e" d="M61.606,422.719s-4.252,0-4.294,0-.042-.11.108-.334l1.124-1.07Z" transform="translate(0 -219.657)"/><path class="c" d="M60.977,412.444s4.252,0,4.294,0,.042.11-.108.334c-.483.591-7.875,9.942-7.875,9.942Z" transform="translate(7.993 -209.381)"/><path class="e" d="M57.288,422.719s4.253,0,4.294,0,.042-.11-.108-.334l-1.124-1.07Z" transform="translate(11.682 -219.656)"/></g><path class="f" d="M489.821,403.867a2.863,2.863,0,0,1-2.151-2.151.073.073,0,0,0-.145,0,2.863,2.863,0,0,1-2.151,2.151.073.073,0,0,0,0,.145,2.863,2.863,0,0,1,2.151,2.151.073.073,0,0,0,.145,0,2.863,2.863,0,0,1,2.151-2.151A.074.074,0,0,0,489.821,403.867Z" transform="translate(-57.683 -229.224)"/></g></svg>