<svg xmlns="http://www.w3.org/2000/svg" width="24" height="24.001" viewBox="0 0 24 24.001"><defs><style>.a{fill:none;}.b{fill:#458ff3;}</style></defs><g transform="translate(-369 -260.999)"><rect class="a" width="24" height="24" transform="translate(369 261)"/><path class="b" d="M-2713-13117a3,3,0,0,1-3-3v-14a3,3,0,0,1,3-3v0l.05,0a.75.75,0,0,1,.748.752.75.75,0,0,1-.748.748l-.05,0v0a1.505,1.505,0,0,0-1.5,1.5v14a1.5,1.5,0,0,0,1.5,1.5h14a1.5,1.5,0,0,0,1.5-1.5v-14a1.5,1.5,0,0,0-1.5-1.5v0a.747.747,0,0,1-.7-.746.748.748,0,0,1,.7-.75v0h.049l.05,0a3,3,0,0,1,2.9,3v14a3,3,0,0,1-3,3Z" transform="translate(3087.001 13402)"/><path class="b" d="M-2714.75-13130a1.251,1.251,0,0,1-1.25-1.25v-2a1.251,1.251,0,0,1,1.25-1.25h.653v-.25a2.255,2.255,0,0,1,2.252-2.252h3a2.255,2.255,0,0,1,2.249,2.226v.276h.847a1.251,1.251,0,0,1,1.25,1.25v2a1.251,1.251,0,0,1-1.25,1.25Zm0-1.511c0,.264,0,.261.26.261h8.51c.313,0,.231-.017.231-.3s0-1.7,0-1.7h-1.648c-.359,0-.445-.125-.445-.527v-.973a1,1,0,0,0-1-1h-3a1,1,0,0,0-1,1v1.028c0,.419-.053.472-.465.472h-1.437Z" transform="translate(3091.25 13398)"/><circle class="b" cx="1.5" cy="1.5" r="1.5" transform="translate(379.5 263.251)"/><rect class="b" width="11" height="1.5" rx="0.75" transform="translate(375.5 272)"/><rect class="b" width="7" height="1.5" rx="0.75" transform="translate(375.5 276.5)"/></g></svg>