<svg xmlns="http://www.w3.org/2000/svg" xmlns:xlink="http://www.w3.org/1999/xlink" width="1932" height="560.805" viewBox="0 0 1932 560.805">
  <defs>
    <linearGradient id="linear-gradient" x1="0.006" y1="0.664" x2="1" y2="0.459" gradientUnits="objectBoundingBox">
      <stop offset="0" stop-color="#35e1c5"/>
      <stop offset="1" stop-color="#0281d7"/>
    </linearGradient>
  </defs>
  <g id="bg-curve" transform="translate(6.402 -31.336)">
    <path id="bg-color" d="M-5.183,31.336c8.5,29.5,14.915,59.963,23.507,81.85s43.2,93.43,59.173,118.344S115.367,285.969,140,312s77.1,62.82,85,68c53.78,35.23,100.92,51.3,148,67,87.6,29.21,158.49,37.98,201,43,63.9,7.55,112.08,7.78,160,8,16.52.08,84.41.17,181-8,98.88-8.36,172.43-20.7,233-31,42.88-7.29,141.31-24.85,267-56,127.06-31.5,220.66-61.69,296-86,89.27-28.8,119.1-41.008,214.6-82.328,0,112.2-1,240-1,353.328H-5.4C-6.732,416-3.853,203.336-5.183,31.336Z" fill="url(#linear-gradient)"/>
    <path id="curve" d="M-5.4,3C-4.192,8.178-1.851,29.038,8,66.27s19.7,69.636,26,85.658c8.52,21.667,16.34,37.514,19,42.829a515.793,515.793,0,0,0,33,56.456,516.905,516.905,0,0,0,64,77.871c6.89,6.784,38.98,37.933,91,70.083,57.09,35.285,106.11,51.949,143,64.243,66.98,22.32,119.93,30.6,162,36.989,81,12.294,143.81,13.17,189,13.627,62.45.633,109.33-2.609,156-5.84,35.74-2.472,89.63-6.969,155-15.574,68.17-8.975,117.88-18.329,170-28.228,110.32-20.947,194.58-41.408,224-48.669,131.43-32.453,227.73-63.172,286-81.764,93.88-29.951,155.18-53.117,184-64.243,6.29-2.424,13.078-5.726,16.6-7.108V563.8c-643.33,0-1288.67-.137-1932-.137Z" transform="translate(-1 28.336)" fill="#fefefe"/>
  </g>
</svg>
