<svg xmlns="http://www.w3.org/2000/svg" xmlns:xlink="http://www.w3.org/1999/xlink" width="40" height="40" viewBox="0 0 40 40"><defs><style>.a{fill:url(#a);}.b{opacity:0.35;fill:url(#b);}.c{fill:url(#c);}.d{opacity:0.4;fill:url(#d);}.e{fill:url(#e);}.f{fill:url(#f);}.g{fill:none;}</style><linearGradient id="a" y1="0.5" x2="1" y2="0.5" gradientUnits="objectBoundingBox"><stop offset="0" stop-color="#0c59a4"/><stop offset="1" stop-color="#114a8b"/></linearGradient><radialGradient id="b" cx="0.552" cy="0.503" r="0.62" gradientTransform="translate(0.069) scale(0.863 1)" gradientUnits="objectBoundingBox"><stop offset="0.72" stop-opacity="0"/><stop offset="0.95" stop-opacity="0.529"/><stop offset="1"/></radialGradient><linearGradient id="c" x1="0.906" y1="0.248" x2="0.245" y2="0.832" gradientUnits="objectBoundingBox"><stop offset="0" stop-color="#1b9de2"/><stop offset="0.16" stop-color="#1595df"/><stop offset="0.67" stop-color="#0680d7"/><stop offset="1" stop-color="#0078d4"/></linearGradient><radialGradient id="d" cx="0.423" cy="0.724" r="0.689" gradientTransform="matrix(0.183, -0.989, 0.983, 0.12, -0.368, 0.955)" gradientUnits="objectBoundingBox"><stop offset="0.76" stop-opacity="0"/><stop offset="0.95" stop-opacity="0.502"/><stop offset="1"/></radialGradient><radialGradient id="e" cx="0.099" cy="0.275" r="1.187" gradientTransform="matrix(-0.025, 0.999, -1.417, -0.079, 0.367, 0.173)" gradientUnits="objectBoundingBox"><stop offset="0" stop-color="#35c1f1"/><stop offset="0.11" stop-color="#34c1ed"/><stop offset="0.23" stop-color="#2fc2df"/><stop offset="0.31" stop-color="#2bc3d2"/><stop offset="0.67" stop-color="#36c752"/></radialGradient><radialGradient id="f" cx="0.947" cy="0.455" r="0.571" gradientTransform="matrix(0.187, 0.96, -0.522, 0.229, 0.945, -0.566)" gradientUnits="objectBoundingBox"><stop offset="0" stop-color="#66eb6e"/><stop offset="1" stop-color="#66eb6e" stop-opacity="0"/></radialGradient></defs><g transform="translate(-1000 -1000)"><path d="M6896.93,11024.13a14.645,14.645,0,0,1-1.646.737,15.942,15.942,0,0,1-5.609,1.009c-7.394,0-13.836-5.086-13.836-11.612a4.913,4.913,0,0,1,2.567-4.264c-6.687.281-8.406,7.25-8.406,11.333,0,11.542,10.641,12.714,12.931,12.714a16.742,16.742,0,0,0,4.225-.713l.2-.068a20.054,20.054,0,0,0,10.406-8.254A.628.628,0,0,0,6896.93,11024.13Z" transform="translate(-5860.828 -9994.359)"/><path d="M1016.517,5839.206a12.359,12.359,0,0,1-3.552-3.339,12.616,12.616,0,0,1,4.612-18.741,5.261,5.261,0,0,1,2.428-.631,5.057,5.057,0,0,1,4.014,2.027,4.974,4.974,0,0,1,.994,2.916c0-.033,3.822-12.437-12.508-12.437-6.859,0-12.506,6.509-12.506,12.219a20.313,20.313,0,0,0,1.894,8.756,20,20,0,0,0,24.433,10.486A11.835,11.835,0,0,1,1016.517,5839.206Z" transform="translate(0 -4801.486)"/><path d="M1023.8,1023.259c-.125.164-.516.391-.516.884a1.456,1.456,0,0,0,.737,1.13c2.247,1.567,6.483,1.356,6.494,1.356a9.3,9.3,0,0,0,4.73-1.311,9.581,9.581,0,0,0,4.755-8.261,13.781,13.781,0,0,0-1.77-6.862c-3.312-6.47-10.459-10.2-18.231-10.2a20,20,0,0,0-20,19.719c.073-5.709,5.748-10.32,12.494-10.32a15.117,15.117,0,0,1,6.563,1.573,11.354,11.354,0,0,1,4.822,4.564,10.051,10.051,0,0,1,1.138,4.612,5.6,5.6,0,0,1-1.219,3.109Z"/><path class="a" d="M6896.93,11024.13a14.645,14.645,0,0,1-1.646.737,15.942,15.942,0,0,1-5.609,1.009c-7.394,0-13.836-5.086-13.836-11.612a4.913,4.913,0,0,1,2.567-4.264c-6.687.281-8.406,7.25-8.406,11.333,0,11.542,10.641,12.714,12.931,12.714a16.742,16.742,0,0,0,4.225-.713l.2-.068a20.054,20.054,0,0,0,10.406-8.254A.628.628,0,0,0,6896.93,11024.13Z" transform="translate(-5860.828 -9994.359)"/><path class="b" d="M6896.93,11024.13a14.645,14.645,0,0,1-1.646.737,15.942,15.942,0,0,1-5.609,1.009c-7.394,0-13.836-5.086-13.836-11.612a4.913,4.913,0,0,1,2.567-4.264c-6.687.281-8.406,7.25-8.406,11.333,0,11.542,10.641,12.714,12.931,12.714a16.742,16.742,0,0,0,4.225-.713l.2-.068a20.054,20.054,0,0,0,10.406-8.254A.628.628,0,0,0,6896.93,11024.13Z" transform="translate(-5860.828 -9994.359)"/><path class="c" d="M1016.517,5839.206a12.359,12.359,0,0,1-3.552-3.339,12.616,12.616,0,0,1,4.612-18.741,5.261,5.261,0,0,1,2.428-.631,5.057,5.057,0,0,1,4.014,2.027,4.974,4.974,0,0,1,.994,2.916c0-.033,3.822-12.437-12.508-12.437-6.859,0-12.506,6.509-12.506,12.219a20.313,20.313,0,0,0,1.894,8.756,20,20,0,0,0,24.433,10.486A11.835,11.835,0,0,1,1016.517,5839.206Z" transform="translate(0 -4801.486)"/><path class="d" d="M1016.517,5839.206a12.359,12.359,0,0,1-3.552-3.339,12.616,12.616,0,0,1,4.612-18.741,5.261,5.261,0,0,1,2.428-.631,5.057,5.057,0,0,1,4.014,2.027,4.974,4.974,0,0,1,.994,2.916c0-.033,3.822-12.437-12.508-12.437-6.859,0-12.506,6.509-12.506,12.219a20.313,20.313,0,0,0,1.894,8.756,20,20,0,0,0,24.433,10.486A11.835,11.835,0,0,1,1016.517,5839.206Z" transform="translate(0 -4801.486)"/><path class="e" d="M1023.8,1023.259c-.125.164-.516.391-.516.884a1.456,1.456,0,0,0,.737,1.13c2.247,1.567,6.483,1.356,6.494,1.356a9.3,9.3,0,0,0,4.73-1.311,9.581,9.581,0,0,0,4.755-8.261,13.781,13.781,0,0,0-1.77-6.862c-3.312-6.47-10.459-10.2-18.231-10.2a20,20,0,0,0-20,19.719c.073-5.709,5.748-10.32,12.494-10.32a15.117,15.117,0,0,1,6.563,1.573,11.354,11.354,0,0,1,4.822,4.564,10.051,10.051,0,0,1,1.138,4.612,5.6,5.6,0,0,1-1.219,3.109Z"/><path class="f" d="M1023.8,1023.259c-.125.164-.516.391-.516.884a1.456,1.456,0,0,0,.737,1.13c2.247,1.567,6.483,1.356,6.494,1.356a9.3,9.3,0,0,0,4.73-1.311,9.581,9.581,0,0,0,4.755-8.261,13.781,13.781,0,0,0-1.77-6.862c-3.312-6.47-10.459-10.2-18.231-10.2a20,20,0,0,0-20,19.719c.073-5.709,5.748-10.32,12.494-10.32a15.117,15.117,0,0,1,6.563,1.573,11.354,11.354,0,0,1,4.822,4.564,10.051,10.051,0,0,1,1.138,4.612,5.6,5.6,0,0,1-1.219,3.109Z"/><rect class="g" width="40" height="40" transform="translate(1000 1000)"/></g></svg>