<svg xmlns="http://www.w3.org/2000/svg" width="20.102" height="20" viewBox="0 0 20.102 20">
  <g id="email" transform="translate(-179.898 -8173)">
    <path id="Path_3564" data-name="Path 3564" d="M65.1,171.8h16a1.991,1.991,0,0,1,2,1.94l-10,5.488-10-5.481A1.981,1.981,0,0,1,65.1,171.8Zm-1.991,4.047-.009,9.7a1.988,1.988,0,0,0,2,1.964h16a1.988,1.988,0,0,0,2-1.964v-9.709l-9.762,5.232a.5.5,0,0,1-.479,0Z" transform="translate(116.798 8003.344)" fill="#e1e1e1"/>
    <rect id="Rectangle_3309" data-name="Rectangle 3309" width="20" height="20" transform="translate(180 8173)" fill="none"/>
  </g>
</svg>
