<svg xmlns="http://www.w3.org/2000/svg" xmlns:xlink="http://www.w3.org/1999/xlink" width="128" height="100" viewBox="0 0 128 100">
  <defs>
    <filter id="路径_2124" x="39.792" y="28.578" width="31.254" height="43.259" filterUnits="userSpaceOnUse">
      <feOffset dy="3" input="SourceAlpha"/>
      <feGaussianBlur stdDeviation="3" result="blur"/>
      <feFlood flood-color="#3d7ffc" flood-opacity="0.369"/>
      <feComposite operator="in" in2="blur"/>
      <feComposite in="SourceGraphic"/>
    </filter>
    <filter id="路径_2125" x="58.385" y="28.604" width="31.28" height="43.232" filterUnits="userSpaceOnUse">
      <feOffset dy="3" input="SourceAlpha"/>
      <feGaussianBlur stdDeviation="3" result="blur-2"/>
      <feFlood flood-color="#3d7ffc" flood-opacity="0.369"/>
      <feComposite operator="in" in2="blur-2"/>
      <feComposite in="SourceGraphic"/>
    </filter>
    <filter id="矩形_925" x="54.401" y="25.284" width="20.656" height="49.873" filterUnits="userSpaceOnUse">
      <feOffset dy="3" input="SourceAlpha"/>
      <feGaussianBlur stdDeviation="3" result="blur-3"/>
      <feFlood flood-color="#3d7ffc" flood-opacity="0.369"/>
      <feComposite operator="in" in2="blur-3"/>
      <feComposite in="SourceGraphic"/>
    </filter>
  </defs>
  <g id="feature-icon-split-screen" transform="translate(-945.405 -418)">
    <g id="密码大师" transform="translate(980.103 436.131)">
      <circle id="Ellipse_274" data-name="Ellipse 274" cx="23" cy="23" r="23" transform="translate(-14.102 15.37)" fill="#bfd6fe" opacity="0.93"/>
      <ellipse id="Ellipse_273" data-name="Ellipse 273" cx="32" cy="32.5" rx="32" ry="32.5" transform="translate(-2.102 -3.63)" fill="#3d7ffc" opacity="0.93"/>
      <g id="splitscreen" transform="translate(14.095 13.154)">
        <g id="组_736" data-name="组 736" transform="translate(0 3.293)">
          <g transform="matrix(1, 0, 0, 1, -48.79, -34.58)" filter="url(#路径_2124)">
            <path id="路径_2124-2" data-name="路径 2124" d="M12.952,27.5h-9.3A2.656,2.656,0,0,1,1,24.843V4.9A2.656,2.656,0,0,1,3.656,2.24h9.11a1.328,1.328,0,0,1,0,2.656H4.958a1.3,1.3,0,0,0-1.3,1.328V23.541a1.3,1.3,0,0,0,1.3,1.3h7.968a1.328,1.328,0,0,1,0,2.656Z" transform="translate(47.79 32.34)" fill="#fff"/>
          </g>
          <g transform="matrix(1, 0, 0, 1, -48.79, -34.58)" filter="url(#路径_2125)">
            <path id="路径_2125-2" data-name="路径 2125" d="M18.624,27.482h-9.3a1.328,1.328,0,1,1,0-2.656H17.3a1.3,1.3,0,0,0,1.3-1.3V6.208a1.3,1.3,0,0,0-1.3-1.3H9.514a1.328,1.328,0,0,1,0-2.656h9.11A2.656,2.656,0,0,1,21.28,4.906V24.879A2.656,2.656,0,0,1,18.624,27.482Z" transform="translate(59.38 32.35)" fill="#fff"/>
          </g>
        </g>
        <g transform="matrix(1, 0, 0, 1, -48.79, -31.28)" filter="url(#矩形_925)">
          <path id="矩形_925-2" data-name="矩形 925" d="M7.828,1h0A1.328,1.328,0,0,1,9.156,2.328V31.545a1.328,1.328,0,0,1-1.328,1.328h0A1.328,1.328,0,0,1,6.5,31.545V2.328A1.328,1.328,0,0,1,7.828,1Z" transform="translate(56.9 30.28)" fill="#fff"/>
        </g>
      </g>
    </g>
    <rect id="Rectangle_3458" data-name="Rectangle 3458" width="128" height="100" transform="translate(945.405 418)" fill="none"/>
  </g>
</svg>
