<svg xmlns="http://www.w3.org/2000/svg" width="48" height="48" viewBox="0 0 48 48">
  <g id="icon_mouse" transform="translate(-9116 22114)">
    <rect id="Rectangle_3444" data-name="Rectangle 3444" width="48" height="48" transform="translate(9116 -22114)" fill="none"/>
    <path id="Path_3668" data-name="Path 3668" d="M228.064,7.6a5,5,0,0,0-1.349-3.427,4.386,4.386,0,0,0-3.591-1.122,1.858,1.858,0,0,1-1.475-.29,1.536,1.536,0,0,1-.116-1.145,1.236,1.236,0,0,0-2.382-.662,3.969,3.969,0,0,0,.587,3.379,3.943,3.943,0,0,0,3.583,1.189,2.071,2.071,0,0,1,1.661.42,2.488,2.488,0,0,1,.6,1.561l-.3.011v.007a12.246,12.246,0,0,0-11.12,12.352V30.138a12.355,12.355,0,1,0,24.711,0V19.877A12.446,12.446,0,0,0,228.123,7.6M226.4,7.48c.05,0,.1.006.15.006-.07,0-.14,0-.207,0a.412.412,0,0,1,.06,0ZM236.4,30.138a9.884,9.884,0,1,1-19.769,0V23.3H236.4ZM224.666,20.2V17.31a1.548,1.548,0,0,1,3.089,0V20.2Zm11.738.618h-6.178V17.307a4.016,4.016,0,0,0-8.031,0V20.82h-5.56v-.946a9.884,9.884,0,1,1,19.769,0v.946Z" transform="translate(8913.839 -22111.779)" fill="#222529"/>
  </g>
</svg>
