<svg xmlns="http://www.w3.org/2000/svg" width="48" height="48" viewBox="0 0 48 48">
  <g id="icon_incognito" transform="translate(-9185 22046)">
    <rect id="Rectangle_3440" data-name="Rectangle 3440" width="48" height="48" transform="translate(9185 -22046)" fill="none"/>
    <path id="Path_3672" data-name="Path 3672" d="M113.011,154.255a8.038,8.038,0,1,1-7.837,9.827H101.2a8.051,8.051,0,1,1,.152-2.683h3.67a8.038,8.038,0,0,1,7.988-7.144Zm-19.647,2.679a5.358,5.358,0,1,0,5.358,5.358A5.358,5.358,0,0,0,93.364,156.934Zm19.647,0a5.358,5.358,0,1,0,5.358,5.358A5.358,5.358,0,0,0,113.011,156.934Zm-9.824-7.591a73.45,73.45,0,0,1,16.829,1.822,1.34,1.34,0,1,1-.614,2.608,70.732,70.732,0,0,0-16.214-1.75,70.744,70.744,0,0,0-16.214,1.75,1.34,1.34,0,1,1-.614-2.608A73.461,73.461,0,0,1,103.187,149.343Zm6.609-10.717a4.912,4.912,0,0,1,4.341,2.612l.148.3,2.631,5.916a1.34,1.34,0,0,1-2.365,1.25l-.084-.161-2.629-5.917a2.233,2.233,0,0,0-1.8-1.313l-.238-.012H96.579a2.232,2.232,0,0,0-1.933,1.113l-.107.214-2.629,5.916a1.34,1.34,0,0,1-2.511-.92l.063-.171,2.629-5.916a4.912,4.912,0,0,1,4.147-2.9l.339-.012H109.8Z" transform="translate(9105.813 -22176.477)" fill="#212121"/>
  </g>
</svg>
