<svg xmlns="http://www.w3.org/2000/svg" width="32" height="32" viewBox="0 0 32 32">
  <g id="icon-android" transform="translate(-2 -4.001)">
    <rect id="Rectangle_20" data-name="Rectangle 20" width="32" height="32" transform="translate(2 4.001)" fill="none"/>
    <path id="Path_2030" data-name="Path 2030" d="M111.547,71.354a1.23,1.23,0,0,1,.857.319,1.012,1.012,0,0,1,.351.78v6.48a.99.99,0,0,1-.351.758,1.23,1.23,0,0,1-.857.318h-.4a1.23,1.23,0,0,1-.857-.318.99.99,0,0,1-.351-.758v-6.48a1.012,1.012,0,0,1,.351-.78,1.23,1.23,0,0,1,.857-.319h.4Zm-17.815,0a1.152,1.152,0,0,1,.835.319,1.043,1.043,0,0,1,.33.78v6.48a1.018,1.018,0,0,1-.33.758,1.152,1.152,0,0,1-.835.318h-.4a1.23,1.23,0,0,1-.857-.318.99.99,0,0,1-.351-.758v-6.48a1.012,1.012,0,0,1,.351-.78,1.23,1.23,0,0,1,.857-.319h.4Zm12.125-5.1a4.7,4.7,0,0,1,.824.483,5.787,5.787,0,0,1,.824.725,5.245,5.245,0,0,1,.692.912,3.692,3.692,0,0,1,.428,1.043H96.149a4.417,4.417,0,0,1,1.109-1.911,7.5,7.5,0,0,1,1.527-1.186l-1.12-1.757q-.044-.044-.011-.165a.511.511,0,0,1,.231-.253.465.465,0,0,1,.33-.143.334.334,0,0,1,.2.055l1.142,1.8a6.431,6.431,0,0,1,1.3-.439,6.591,6.591,0,0,1,4.2.461l1.164-1.823a.234.234,0,0,1,.165-.044.873.873,0,0,1,.362.132q.22.11.253.2a.117.117,0,0,1-.011.132l-1.12,1.779Zm-6.129,1.889a.675.675,0,1,0-.483-.2A.657.657,0,0,0,99.729,68.147Zm5.4-.088a.675.675,0,1,0-.483-.2A.657.657,0,0,0,105.133,68.059Zm3.493,2.746.022,9.885a1.124,1.124,0,0,1-.319.813,1.043,1.043,0,0,1-.78.329h-.308v3.075a1.072,1.072,0,0,1-.318.769,1.043,1.043,0,0,1-.78.329h-.637a1.018,1.018,0,0,1-.758-.329,1.072,1.072,0,0,1-.318-.769V81.832h-4.042v3.075a1.072,1.072,0,0,1-.319.769,1.043,1.043,0,0,1-.78.329h-.637a1.018,1.018,0,0,1-.758-.329,1.071,1.071,0,0,1-.319-.769V81.832h-.242a1.043,1.043,0,0,1-.78-.33,1.124,1.124,0,0,1-.318-.813V70.8Z" transform="translate(-84.442 -55.006)" fill="#181542"/>
  </g>
</svg>
