<svg xmlns="http://www.w3.org/2000/svg" width="48" height="48" viewBox="0 0 48 48">
  <g id="icon_vpn" transform="translate(-9185 22321)">
    <rect id="Rectangle_3433" data-name="Rectangle 3433" width="48" height="48" transform="translate(9185 -22321)" fill="none"/>
    <g id="Group_3536" data-name="Group 3536" transform="translate(9188.879 -22317.066)">
      <g id="Group_375" data-name="Group 375" transform="translate(0 0.132)">
        <rect id="Rectangle_646" data-name="Rectangle 646" width="39.871" height="39.871" transform="translate(0 0)" fill="none"/>
        <path id="Path_1832" data-name="Path 1832" d="M134.105,131.019H102.111a4.128,4.128,0,0,1-4.123-4.123V103.627a4.128,4.128,0,0,1,4.123-4.123h31.994a4.128,4.128,0,0,1,4.123,4.123V126.9A4.128,4.128,0,0,1,134.105,131.019Zm-31.994-29.085a1.7,1.7,0,0,0-1.694,1.694V126.9a1.7,1.7,0,0,0,1.694,1.694h31.994A1.7,1.7,0,0,0,135.8,126.9V103.627a1.7,1.7,0,0,0-1.694-1.694Zm34.9,36.324H99.2a1.215,1.215,0,0,1,0-2.43h37.811a1.215,1.215,0,0,1,0,2.43Z" transform="translate(-97.988 -98.807)" fill="#222529"/>
      </g>
      <path id="Path_1833" data-name="Path 1833" d="M226.427,305.729l-3.513,10.132h-2.6l-3.47-10.132h2.475l2.126,7.052a5.025,5.025,0,0,1,.206,1.01h.043a5.687,5.687,0,0,1,.22-1.039l2.112-7.023h2.4Zm3.52,6.642v3.49h-2.3V305.729h3.6q3.854,0,3.854,3.229A3.09,3.09,0,0,1,234,311.428a4.4,4.4,0,0,1-2.955.943Zm0-4.889v3.158h.9q1.835,0,1.835-1.6,0-1.561-1.835-1.562Zm15.822,8.38h-2.318l-4.2-6.366a9.184,9.184,0,0,1-.512-.841h-.028q.057.537.057,1.639v5.568H236.6V305.729h2.475l4.046,6.168q.27.4.512.827h.028a10.763,10.763,0,0,1-.057-1.392v-5.6h2.169Z" transform="translate(-211.092 -294.862)" fill="#222529"/>
    </g>
  </g>
</svg>
