<svg xmlns="http://www.w3.org/2000/svg" width="32" height="32" viewBox="0 0 32 32">
  <g id="icon_quote" transform="translate(-9119 19796)">
    <rect id="Rectangle_3451" data-name="Rectangle 3451" width="32" height="32" transform="translate(9119 -19796)" fill="none"/>
    <g id="Group_3539" data-name="Group 3539" transform="translate(9095.714 -23793.631)">
      <path id="Path_3540" data-name="Path 3540" d="M-2765.1-19396.428s-7.375,5.086-9.167,10-.18,10.271,3.468,11.559,9.042.584,9.347-4.621-3.6-7.58-7.035-6.937c1.288-4.293,3.823-4.42,4.682-6.244S-2765.1-19396.428-2765.1-19396.428Z" transform="translate(2799 23399)" fill="#fff"/>
      <path id="Path_3541" data-name="Path 3541" d="M-2765.1-19396.428s-7.375,5.086-9.167,10-.18,10.271,3.468,11.559,9.042.584,9.347-4.621-3.6-7.58-7.035-6.937c1.288-4.293,3.823-4.42,4.682-6.244S-2765.1-19396.428-2765.1-19396.428Z" transform="translate(2816 23399)" fill="#fff"/>
    </g>
  </g>
</svg>
