<svg xmlns="http://www.w3.org/2000/svg" width="16" height="16" viewBox="0 0 16 16">
  <g id="icon_right_arrow" transform="translate(-9226 21976)">
    <rect id="Rectangle_3449" data-name="Rectangle 3449" width="16" height="16" transform="translate(9226 -21976)" fill="none"/>
    <path id="Union_170" data-name="Union 170" d="M2803.2,23408.148a.7.7,0,0,1,0-.988l2.624-2.619H2799.7a.7.7,0,0,1,0-1.4h6.1l-2.792-2.6a.7.7,0,1,1,.952-1.027l4.059,3.789a.434.434,0,0,1,.036.037.685.685,0,0,1,.145.713v0l-.01.025-.008.018,0,.01a.683.683,0,0,1-.123.18.364.364,0,0,1-.03.031l-3.83,3.83a.7.7,0,0,1-.993,0Z" transform="translate(6432.376 -45371.84)" fill="#3f59d8"/>
  </g>
</svg>
