<svg xmlns="http://www.w3.org/2000/svg" width="32" height="32" viewBox="0 0 32 32">
  <g id="icon-protable" transform="translate(4.082 3.5)">
    <rect id="Rectangle_19" data-name="Rectangle 19" width="32" height="32" transform="translate(-4.082 -3.5)" fill="none"/>
    <path id="Path_2034" data-name="Path 2034" d="M85.333,159.783h7.7v2.206l.008.12a1.179,1.179,0,0,0,1.008.95l.136.019.132.005H98.35l.141-.007a1.23,1.23,0,0,0,1.115-.86l.021-.117.007-.111v-2.206h7.7v6.6a3.3,3.3,0,0,1-3.3,3.3h-15.4a3.3,3.3,0,0,1-3.3-3.3v-6.6Zm12.467,0v1.592l-2.933-.005v-1.586Zm.734-10.45a3.3,3.3,0,0,1,3.3,3.3h2.2a3.3,3.3,0,0,1,3.3,3.3v2.2h-22v-2.2a3.3,3.3,0,0,1,3.3-3.3h2.2a3.3,3.3,0,0,1,3.107-3.295l.193-.005h4.4Zm0,1.65h-4.4a1.1,1.1,0,0,0-1.092.971l-.008.129h6.6a1.1,1.1,0,0,0-.971-1.092Z" transform="translate(-84.415 -147.008)" fill="#1a1743"/>
  </g>
</svg>
