<svg xmlns="http://www.w3.org/2000/svg" width="48" height="48" viewBox="0 0 48 48">
  <g id="icon_adblock" transform="translate(-9116 22321)">
    <rect id="Rectangle_3432" data-name="Rectangle 3432" width="48" height="48" transform="translate(9116 -22321)" fill="none"/>
    <g id="Group_3535" data-name="Group 3535" transform="translate(8993.427 -22441.367)">
      <path id="Path_3516" data-name="Path 3516" d="M176.231,282.6l34.058,21.3a1.47,1.47,0,1,1-1.583,2.478l-34.058-21.3a1.47,1.47,0,1,1,1.583-2.478Zm14.812,16.032c.97,2.574,1.759,4.664,1.759,4.664h-1.993l-1.428-3.87h-5.82l-1.343,3.87h-1.993s1.935-5.133,3.47-9.21c.89.49,1.007.256,1.455.9-.512,1.439-1.013,2.846-1.013,2.846h4.7l-.33-.917C188.49,296.916,190.718,298.435,191.043,298.633Zm12.3-2.329a8.353,8.353,0,0,0,1.375-4.909c0-4.2-2.409-6.7-6.641-6.7h-4.488v5.511l2.228,1.348v-4.621h2.228c4.887,0,5.762,5.245,3.539,8.011A18.713,18.713,0,0,1,203.339,296.3Z" transform="translate(-45.413 -150.118)" fill="#222529"/>
      <path id="Path_3517" data-name="Path 3517" d="M146.568,164.936a20.59,20.59,0,0,1-19.545-27,1.372,1.372,0,1,1,2.606.858,17.824,17.824,0,0,0,29.1,18.6,1.373,1.373,0,1,1,1.876,2A20.46,20.46,0,0,1,146.568,164.936Zm18.617-14.487a1.45,1.45,0,0,1-.336-.043,1.368,1.368,0,0,1-.991-1.663,17.828,17.828,0,0,0-28.547-18.191,1.371,1.371,0,0,1-1.732-2.127,20.579,20.579,0,0,1,32.944,20.989,1.39,1.39,0,0,1-1.338,1.034Z" fill="#222529"/>
    </g>
  </g>
</svg>
