<svg xmlns="http://www.w3.org/2000/svg" width="48" height="48" viewBox="0 0 48 48">
  <g id="icon_readding" transform="translate(-9185 22176)">
    <rect id="Rectangle_3437" data-name="Rectangle 3437" width="48" height="48" transform="translate(9185 -22176)" fill="none"/>
    <path id="Path_3666" data-name="Path 3666" d="M106.628,111.065a1.78,1.78,0,0,1-1.775,1.775,1.762,1.762,0,0,1-1.775-1.686V88.882a3.587,3.587,0,0,1,3.372-3.549h9.938a4.414,4.414,0,0,1,4.436,4.259v25.022a4.414,4.414,0,0,1-4.259,4.436h-7.631l-4.88,3.283a1.973,1.973,0,0,1-1.863.089l-.089-.089-4.88-3.283H89.769a4.414,4.414,0,0,1-4.436-4.259V89.769a4.414,4.414,0,0,1,4.259-4.436h9.494a1.78,1.78,0,0,1,1.775,1.775,1.762,1.762,0,0,1-1.686,1.775H89.769a.944.944,0,0,0-.887.8v24.933a.944.944,0,0,0,.8.887h8.074a3.153,3.153,0,0,1,.887.177l.089.089,4.348,2.928,4.348-2.928a1.431,1.431,0,0,1,.8-.266h8.163a.944.944,0,0,0,.887-.8V89.769a.944.944,0,0,0-.8-.887h-9.849v22.182Zm-7.986-3.549a1.78,1.78,0,0,1,1.775,1.775,1.762,1.762,0,0,1-1.686,1.775H93.319a1.78,1.78,0,0,1-1.775-1.775,1.762,1.762,0,0,1,1.686-1.775Zm0-7.1a1.78,1.78,0,0,1,1.775,1.775,1.762,1.762,0,0,1-1.686,1.775H93.319a1.78,1.78,0,0,1-1.775-1.775,1.762,1.762,0,0,1,1.686-1.775Zm0-7.1a1.78,1.78,0,0,1,1.775,1.775,1.762,1.762,0,0,1-1.686,1.775H93.319a1.78,1.78,0,0,1-1.775-1.775,1.762,1.762,0,0,1,1.686-1.775Z" transform="translate(9105.921 -22254.973)" fill="#222529"/>
  </g>
</svg>
