<svg xmlns="http://www.w3.org/2000/svg" width="48" height="48" viewBox="0 0 48 48">
  <g id="icon_bookmark" transform="translate(-9185 22249)">
    <rect id="Rectangle_3434" data-name="Rectangle 3434" width="48" height="48" transform="translate(9185 -22249)" fill="none"/>
    <g id="bookmark" transform="translate(9188.926 -22244.648)">
      <path id="路径_104" data-name="路径 104" d="M12.152,14.457a6.159,6.159,0,0,1-5.442-3.718A1.1,1.1,0,0,1,7.09,9.261h0a1.277,1.277,0,0,1,1.657.426c1.187,1.971,1.971,2.576,3.315,2.576s2.934-1.9,3.315-2.553a1.277,1.277,0,0,1,1.657-.448,1.075,1.075,0,0,1,.538,1.411h0A7.256,7.256,0,0,1,12.152,14.457Z" transform="translate(8.057 10.791)" fill="#222529" stroke="#222529" stroke-width="0.5"/>
      <g id="多边形_10" data-name="多边形 10" transform="translate(0.066 0.41)">
        <path id="Path_2422" data-name="Path 2422" d="M20.075,3.143,15.6,11.631a4.726,4.726,0,0,1-3.382,2.419L2.74,15.774l6.719,7.01a4.636,4.636,0,0,1,1.254,3.875l-1.3,9.586,8.645-4.188a4.748,4.748,0,0,1,4.121,0l8.645,4.188-1.3-9.586a4.636,4.636,0,0,1,1.254-3.875l6.719-7.01L27.936,14.05a4.726,4.726,0,0,1-3.382-2.419L20.075,3.143m0-2.732A2.24,2.24,0,0,1,22.046,1.6l4.748,8.869a2.24,2.24,0,0,0,1.568,1.165l9.9,1.792a2.24,2.24,0,0,1,1.209,3.74l-6.943,7.324a2.24,2.24,0,0,0-.6,1.836l1.344,10.011a2.213,2.213,0,0,1-3.2,2.307L21.1,34.161a2.24,2.24,0,0,0-1.971,0l-8.959,4.479a2.226,2.226,0,0,1-3.2-2.307l1.254-9.966a2.24,2.24,0,0,0-.6-1.837L.679,17.163a2.24,2.24,0,0,1,1.209-3.74l9.9-1.792a2.24,2.24,0,0,0,1.568-1.165L18.1,1.508A2.24,2.24,0,0,1,20.075.41Z" transform="translate(-0.066 -0.41)" fill="#222529" stroke="#222529" stroke-width="0.5"/>
      </g>
    </g>
  </g>
</svg>
