<svg xmlns="http://www.w3.org/2000/svg" width="14" height="14" viewBox="0 0 14 14">
  <path id="icon-language" d="M92.326,85.333a7,7,0,1,0,7.007,7A7,7,0,0,0,92.326,85.333Zm4.851,4.2H95.112a10.955,10.955,0,0,0-.966-2.492,5.621,5.621,0,0,1,3.031,2.492Zm-4.844-2.772a9.861,9.861,0,0,1,1.337,2.772H91a9.86,9.86,0,0,1,1.337-2.772Zm-5.418,6.972a5.476,5.476,0,0,1,0-2.8h2.366a10.05,10.05,0,0,0,0,2.8Zm.574,1.4h2.065a10.954,10.954,0,0,0,.966,2.492,5.591,5.591,0,0,1-3.031-2.492Zm2.065-5.6H87.489a5.591,5.591,0,0,1,3.031-2.492,10.955,10.955,0,0,0-.966,2.492Zm2.779,8.372A9.861,9.861,0,0,1,91,95.133H93.67a9.861,9.861,0,0,1-1.337,2.772Zm1.638-4.172H90.7a8.807,8.807,0,0,1,0-2.8h3.276a8.806,8.806,0,0,1,0,2.8Zm.175,3.892a10.954,10.954,0,0,0,.966-2.492h2.065A5.621,5.621,0,0,1,94.146,97.625Zm1.239-3.892a10.048,10.048,0,0,0,0-2.8h2.366a5.476,5.476,0,0,1,0,2.8Z" transform="translate(-85.333 -85.333)" fill="#fff"/>
</svg>
