<svg xmlns="http://www.w3.org/2000/svg" width="32" height="32" viewBox="0 0 32 32">
  <g id="icon-download" transform="translate(1.009 2.012)">
    <rect id="Rectangle_3452" data-name="Rectangle 3452" width="32" height="32" transform="translate(-1.009 -2.012)" fill="none"/>
    <path id="Path_11" data-name="Path 11" d="M8,17l4.922,4.922L17.844,17" transform="translate(2.127 4.066)" fill="none" stroke="#fff" stroke-linecap="round" stroke-linejoin="round" stroke-width="2"/>
    <line id="Line_2" data-name="Line 2" y2="11.074" transform="translate(15.049 14.914)" fill="none" stroke="#fff" stroke-linecap="round" stroke-linejoin="round" stroke-width="2"/>
    <path id="Path_12" data-name="Path 12" d="M26.389,23.408a1,1,0,0,1-.579-1.816,5.432,5.432,0,0,0,2.038-6.085,5.369,5.369,0,0,0-5.137-3.788H21.1a1,1,0,0,1-.969-.753A9.292,9.292,0,0,0,12.26,4.049,9.252,9.252,0,0,0,3.036,8.98,9.4,9.4,0,0,0,4.308,19.433a1,1,0,0,1-1.5,1.32A11.32,11.32,0,0,1,5.947,3.306,11.159,11.159,0,0,1,18.58,4.771a11.237,11.237,0,0,1,3.271,4.948h.859a7.306,7.306,0,0,1,4.368,1.435,7.454,7.454,0,0,1-.112,12.07A1,1,0,0,1,26.389,23.408Z" transform="translate(0 0)" fill="#fff"/>
  </g>
</svg>
