<svg xmlns="http://www.w3.org/2000/svg" xmlns:xlink="http://www.w3.org/1999/xlink" width="150" height="23" viewBox="0 0 150 23">
  <defs>
    <clipPath id="clip-path">
      <path id="路径_222" data-name="路径 222" d="M2.679,1.413h27.97l5.266,4.842V24.4H27.206V9.207H11.073V24.4H2.679ZM23.358,24.4H14.925V13.933h8.432Z" transform="translate(-2.679 -1.413)"/>
    </clipPath>
  </defs>
  <g id="logo" transform="translate(-4980.535 -1311.368)">
    <rect id="矩形_187" data-name="矩形 187" width="103" height="22.949" transform="translate(4980.535 1311.368)" fill="none"/>
    <path id="路径_6" data-name="路径 6" d="M9.032-11.957H24.249C25.263-10.945,26.6-9.679,28-8.273V2.867H24.249V-8.274H20.385V2.867H16.628V-8.274H12.761V2.867H9.032Zm32.232,0h3.729V2.867H41.268V1.3A19.193,19.193,0,0,1,39.1,2.92H34.172a5.457,5.457,0,0,1-2.454-1.9,8.514,8.514,0,0,1-2.1-5.538,7.952,7.952,0,0,1,2.033-5.627A5.192,5.192,0,0,1,36.1-11.958h3a16.772,16.772,0,0,1,2.169,1.637ZM37.345-8.9a3.772,3.772,0,0,0-2.872,1.219,4.388,4.388,0,0,0-1.144,3.127A4.435,4.435,0,0,0,34.493-1.4a3.775,3.775,0,0,0,2.866,1.24,3.846,3.846,0,0,0,2.913-1.219,4.451,4.451,0,0,0,1.157-3.2,4.323,4.323,0,0,0-1.152-3.133,3.894,3.894,0,0,0-2.931-1.2Zm9-3.052h4.33l2.938,4.04,2.924-4.04h4.257L55.745-4.981,61.45,2.867H57.12L53.585-2,50.069,2.867H45.812l5.635-7.8Zm17.018-5.46H67.09v5.46H69.3v3.2H67.09v7.58a.574.574,0,0,0,.114.4.77.77,0,0,0,.437.141h1.152v3.5H64.629a1.531,1.531,0,0,1-.89-.327,1.707,1.707,0,0,1-.375-.91V-8.755H61.449v-3.2h1.912Zm7.663-.206h3.7V-10.4a8.5,8.5,0,0,1,2.2-1.41,5.678,5.678,0,0,1,2.239-.47,5.051,5.051,0,0,1,3.729,1.526,5.323,5.323,0,0,1,1.3,3.885V2.92H80.517v-6.5a16,16,0,0,0-.246-3.484,2.431,2.431,0,0,0-.84-1.362,2.362,2.362,0,0,0-1.467-.458,2.771,2.771,0,0,0-1.947.749A3.97,3.97,0,0,0,74.89-6.086a16.879,16.879,0,0,0-.164,3.052V2.92h-3.7Zm22.213,4.959a7.889,7.889,0,0,1,3.954,1.054,7.588,7.588,0,0,1,2.889,2.848,7.637,7.637,0,0,1,1.038,3.883,7.771,7.771,0,0,1-1.045,3.928A7.53,7.53,0,0,1,97.227,1.9a7.879,7.879,0,0,1-3.975,1.029A7.422,7.422,0,0,1,87.794.651,7.516,7.516,0,0,1,85.538-4.86a7.493,7.493,0,0,1,2.554-5.791,7.471,7.471,0,0,1,5.145-2.016Zm.061,3.5a3.846,3.846,0,0,0-2.893,1.206,4.276,4.276,0,0,0-1.152,3.086A4.355,4.355,0,0,0,90.4-1.737a3.826,3.826,0,0,0,2.889,1.2A3.87,3.87,0,0,0,96.2-1.753a4.322,4.322,0,0,0,1.163-3.12,4.294,4.294,0,0,0-1.143-3.1A3.869,3.869,0,0,0,93.3-9.165Zm9.23-2.762h9.493c1.648,1.5,3.543,3.144,3.7,3.235L115.71,3.283h-3.688V-7.376a1.341,1.341,0,0,0-.672-1.072,5.624,5.624,0,0,0-2.322-.243h-2.766V3.283h-3.729Z" transform="translate(5014.811 1331.085)" fill="#fff"/>
    <g id="Layer_x0020_1" transform="translate(4980.535 1311.368)">
      <g id="_2316807404336">
        <path id="路径_221" data-name="路径 221" d="M2.679,1.413h27.97l5.266,4.842V24.4H27.206V9.207H11.073V24.4H2.679ZM23.358,24.4H14.925V13.933h8.432Z" transform="translate(-2.679 -1.413)" fill="#fff" fill-rule="evenodd"/>
        <g id="组_195" data-name="组 195" clip-path="url(#clip-path)">
          <g id="组_194" data-name="组 194" transform="translate(19.023 7.78)">
            <path id="_1" d="M20.834,8.856H34.019l-13.1,1.807Z" transform="translate(-20.834 -8.856)" fill="#777" fill-rule="evenodd"/>
          </g>
        </g>
        <path id="路径_223" data-name="路径 223" d="M2.679,1.413h27.97l5.266,4.842V24.4H27.206V9.207H11.073V24.4H2.679ZM23.358,24.4H14.925V13.933h8.432Z" transform="translate(-2.679 -1.413)" fill="none" fill-rule="evenodd"/>
      </g>
    </g>
  </g>
</svg>
