<svg xmlns="http://www.w3.org/2000/svg" xmlns:xlink="http://www.w3.org/1999/xlink" width="738" height="412" viewBox="0 0 738 412">
  <defs>
    <linearGradient id="linear-gradient" x1="0.867" y1="0.132" x2="0.205" y2="0.898" gradientUnits="objectBoundingBox">
      <stop offset="0" stop-color="#cfdfe4"/>
      <stop offset="0.354" stop-color="#eeb4bc"/>
      <stop offset="1" stop-color="#8fb5bf"/>
    </linearGradient>
    <filter id="Path_3509" x="0" y="0" width="738" height="88" filterUnits="userSpaceOnUse">
      <feOffset input="SourceAlpha"/>
      <feGaussianBlur stdDeviation="3" result="blur"/>
      <feFlood flood-opacity="0.161"/>
      <feComposite operator="in" in2="blur"/>
      <feComposite in="SourceGraphic"/>
    </filter>
    <filter id="Rectangle_1430" x="135" y="177" width="98" height="73" filterUnits="userSpaceOnUse">
      <feOffset input="SourceAlpha"/>
      <feGaussianBlur stdDeviation="3" result="blur-2"/>
      <feFlood flood-opacity="0.051"/>
      <feComposite operator="in" in2="blur-2"/>
      <feComposite in="SourceGraphic"/>
    </filter>
    <filter id="Rectangle_1439" x="135" y="252" width="98" height="73" filterUnits="userSpaceOnUse">
      <feOffset input="SourceAlpha"/>
      <feGaussianBlur stdDeviation="3" result="blur-3"/>
      <feFlood flood-opacity="0.051"/>
      <feComposite operator="in" in2="blur-3"/>
      <feComposite in="SourceGraphic"/>
    </filter>
    <filter id="Rectangle_1431" x="235" y="177" width="98" height="73" filterUnits="userSpaceOnUse">
      <feOffset input="SourceAlpha"/>
      <feGaussianBlur stdDeviation="3" result="blur-4"/>
      <feFlood flood-opacity="0.051"/>
      <feComposite operator="in" in2="blur-4"/>
      <feComposite in="SourceGraphic"/>
    </filter>
    <filter id="Rectangle_1438" x="235" y="252" width="98" height="73" filterUnits="userSpaceOnUse">
      <feOffset input="SourceAlpha"/>
      <feGaussianBlur stdDeviation="3" result="blur-5"/>
      <feFlood flood-opacity="0.051"/>
      <feComposite operator="in" in2="blur-5"/>
      <feComposite in="SourceGraphic"/>
    </filter>
    <filter id="Rectangle_1432" x="335" y="177" width="98" height="73" filterUnits="userSpaceOnUse">
      <feOffset input="SourceAlpha"/>
      <feGaussianBlur stdDeviation="3" result="blur-6"/>
      <feFlood flood-opacity="0.051"/>
      <feComposite operator="in" in2="blur-6"/>
      <feComposite in="SourceGraphic"/>
    </filter>
    <filter id="Rectangle_1437" x="335" y="252" width="98" height="73" filterUnits="userSpaceOnUse">
      <feOffset input="SourceAlpha"/>
      <feGaussianBlur stdDeviation="3" result="blur-7"/>
      <feFlood flood-opacity="0.051"/>
      <feComposite operator="in" in2="blur-7"/>
      <feComposite in="SourceGraphic"/>
    </filter>
    <filter id="Rectangle_1433" x="435" y="177" width="98" height="73" filterUnits="userSpaceOnUse">
      <feOffset input="SourceAlpha"/>
      <feGaussianBlur stdDeviation="3" result="blur-8"/>
      <feFlood flood-opacity="0.051"/>
      <feComposite operator="in" in2="blur-8"/>
      <feComposite in="SourceGraphic"/>
    </filter>
    <filter id="Rectangle_1436" x="435" y="252" width="98" height="73" filterUnits="userSpaceOnUse">
      <feOffset input="SourceAlpha"/>
      <feGaussianBlur stdDeviation="3" result="blur-9"/>
      <feFlood flood-opacity="0.051"/>
      <feComposite operator="in" in2="blur-9"/>
      <feComposite in="SourceGraphic"/>
    </filter>
    <filter id="Rectangle_1434" x="535" y="177" width="98" height="73" filterUnits="userSpaceOnUse">
      <feOffset input="SourceAlpha"/>
      <feGaussianBlur stdDeviation="3" result="blur-10"/>
      <feFlood flood-opacity="0.051"/>
      <feComposite operator="in" in2="blur-10"/>
      <feComposite in="SourceGraphic"/>
    </filter>
    <filter id="Rectangle_1435" x="535" y="252" width="98" height="73" filterUnits="userSpaceOnUse">
      <feOffset input="SourceAlpha"/>
      <feGaussianBlur stdDeviation="3" result="blur-11"/>
      <feFlood flood-opacity="0.051"/>
      <feComposite operator="in" in2="blur-11"/>
      <feComposite in="SourceGraphic"/>
    </filter>
    <filter id="Rectangle_1426" x="190" y="93" width="387" height="93" filterUnits="userSpaceOnUse">
      <feOffset dy="1" input="SourceAlpha"/>
      <feGaussianBlur stdDeviation="10" result="blur-12"/>
      <feFlood flood-opacity="0.251"/>
      <feComposite operator="in" in2="blur-12"/>
      <feComposite in="SourceGraphic"/>
    </filter>
    <linearGradient id="linear-gradient-2" x1="0.159" y1="0.09" x2="0.841" y2="0.91" gradientUnits="objectBoundingBox">
      <stop offset="0" stop-color="#2a48ba"/>
      <stop offset="1" stop-color="#35e4c5"/>
    </linearGradient>
  </defs>
  <g id="Maxthon_start_page" transform="translate(-6633 8795)">
    <rect id="bg" width="720" height="410" rx="8" transform="translate(6642 -8793)" fill="url(#linear-gradient)"/>
    <g id="标签和工具">
      <path id="Rectangle_1445" data-name="Rectangle 1445" d="M8,0H712a8,8,0,0,1,8,8V37a0,0,0,0,1,0,0H0a0,0,0,0,1,0,0V8A8,8,0,0,1,8,0Z" transform="translate(6642 -8793)" fill="#e2e4e4"/>
      <path id="Union_133" data-name="Union 133" d="M5.5,12V7.5H1a1,1,0,1,1,0-2H5.5V1a1,1,0,1,1,2,0V5.5H12a1,1,0,0,1,0,2H7.5V12a1,1,0,1,1-2,0Z" transform="translate(6820 -8778)" fill="#777"/>
      <g id="Group_1214" data-name="Group 1214">
        <g transform="matrix(1, 0, 0, 1, 6633, -8795)" filter="url(#Path_3509)">
          <path id="Path_3509-2" data-name="Path 3509" d="M0,70V30H720V70ZM36,30V3a3,3,0,0,1,3-3H163a3,3,0,0,1,3,3V30Z" transform="translate(9 9)" fill="#f3f3f3"/>
        </g>
        <g id="Group_1213" data-name="Group 1213">
          <path id="Path_3505" data-name="Path 3505" d="M2.206,0H87.145a2.111,2.111,0,0,1,2.206,2v9a2.111,2.111,0,0,1-2.206,2H2.206A2.111,2.111,0,0,1,0,11V2A2.111,2.111,0,0,1,2.206,0Z" transform="translate(6708 -8777)" fill="#e2e4e4"/>
          <g id="_2316807404336" transform="translate(6683 -8776.929)">
            <path id="路径_221" data-name="路径 221" d="M2.679,1.413H19.51l3.169,2.918V15.27H17.438V6.111H7.73v9.16H2.679ZM15.123,15.27H10.048V8.96h5.074Z" transform="translate(-2.679 -1.413)" fill="#c9c9c9" fill-rule="evenodd"/>
            <path id="Path_3506" data-name="Path 3506" d="M-6668.473,8728.29l4.629-.009-4.629.638Z" transform="translate(6683.223 -8723.592)" fill="#f3f3f3"/>
            <path id="路径_223" data-name="路径 223" d="M2.679,1.413H19.51l3.169,2.918V15.27H17.438V6.111H7.73v9.16H2.679ZM15.123,15.27H10.048V8.96h5.074Z" transform="translate(-2.679 -1.413)" fill="none" fill-rule="evenodd"/>
          </g>
        </g>
        <g id="Group_1207" data-name="Group 1207">
          <rect id="Rectangle_27" data-name="Rectangle 27" width="34" height="34" transform="translate(6650 -8752)" fill="none"/>
          <path id="Path_98" data-name="Path 98" d="M11.732,16a.5.5,0,0,1-.352-.145L3.917,8.466a.5.5,0,0,1-.006-.7L11.375.15a.5.5,0,1,1,.714.7L4.974,8.106l7.109,7.039a.5.5,0,0,1-.351.855Z" transform="translate(6659.231 -8743)" fill="none" stroke="#777" stroke-width="1"/>
        </g>
        <g id="Group_1208" data-name="Group 1208">
          <rect id="Rectangle_159" data-name="Rectangle 159" width="34" height="34" transform="translate(6688 -8752)" fill="none"/>
          <path id="Path_185" data-name="Path 185" d="M4.268,16a.5.5,0,0,0,.352-.145l7.463-7.389a.5.5,0,0,0,.006-.7L4.625.15a.5.5,0,0,0-.714.7l7.115,7.256L3.917,15.145A.5.5,0,0,0,4.268,16Z" transform="translate(6697.231 -8743)" fill="none" stroke="#ced0d2" stroke-width="1"/>
        </g>
        <g id="Group_1209" data-name="Group 1209">
          <rect id="矩形_23" data-name="矩形 23" width="34" height="34" transform="translate(6726 -8752)" fill="none"/>
          <path id="Path_92" data-name="Path 92" d="M14.991,10.147c.312-.081.757-.147.757-.147A8,8,0,1,1,15,4.125V1.5a.5.5,0,0,1,1,0v4a.5.5,0,0,1-.5.5h-4a.5.5,0,0,1,0-1h2.828A7,7,0,1,0,8,15a7.044,7.044,0,0,0,6.545-4.522A.671.671,0,0,1,14.991,10.147Z" transform="translate(6735 -8743.001)" fill="#777" stroke="#777" stroke-width="1"/>
        </g>
        <path id="Path_3510" data-name="Path 3510" d="M3,0H469a3,3,0,0,1,3,3V24a3,3,0,0,1-3,3H3a3,3,0,0,1-3-3V3A3,3,0,0,1,3,0Z" transform="translate(6768 -8748)" fill="#fcfcfc"/>
        <g id="Group_1212" data-name="Group 1212">
          <path id="Path_86" data-name="Path 86" d="M0,0H34V34H0Z" transform="translate(7320 -8753)" fill="none"/>
          <g id="Group_182" data-name="Group 182" transform="translate(7319.7 -8752.3)">
            <rect id="Rectangle_186" data-name="Rectangle 186" width="16" height="1" rx="0.5" transform="translate(9.3 10.3)" fill="#777" stroke="#777" stroke-width="1"/>
            <rect id="Rectangle_189" data-name="Rectangle 189" width="16" height="1" rx="0.5" transform="translate(9.3 16.301)" fill="#777" stroke="#777" stroke-width="1"/>
            <rect id="Rectangle_190" data-name="Rectangle 190" width="16" height="1" rx="0.5" transform="translate(9.3 22.302)" fill="#777" stroke="#777" stroke-width="1"/>
          </g>
        </g>
        <g id="Group_1211" data-name="Group 1211">
          <rect id="Rectangle_1113" data-name="Rectangle 1113" width="34" height="34" transform="translate(7282 -8753)" fill="none"/>
          <g id="mxextension_button" transform="translate(7291 -8744)">
            <path id="路径" d="M12.759,6.657H12.2V3.8a1.024,1.024,0,0,0-1.026-1.026H8.321V2.218a2.219,2.219,0,0,0-4.438,0v.555H1.026A1.024,1.024,0,0,0,0,3.8V6.657H.555a2.219,2.219,0,0,1,0,4.438H0v2.856a1.024,1.024,0,0,0,1.026,1.026H3.883v-.554a2.219,2.219,0,0,1,4.438,0v.555h2.858A1.024,1.024,0,0,0,12.2,13.951V11.095h.554a2.219,2.219,0,0,0,0-4.438Z" transform="translate(0.5 0.5)" fill="none" stroke="#777" stroke-linecap="round" stroke-linejoin="round" stroke-miterlimit="10" stroke-width="2"/>
          </g>
        </g>
        <g id="Group_1210" data-name="Group 1210">
          <rect id="Rectangle_1115" data-name="Rectangle 1115" width="34" height="34" transform="translate(7244 -8753)" fill="none"/>
          <g id="downloader_button" transform="translate(7253 -8744)">
            <path id="Path_82" data-name="Path 82" d="M0,0H16V16H0Z" fill="none"/>
            <g id="Group_55" data-name="Group 55" transform="translate(-1092.5 -50)">
              <rect id="Rectangle_70" data-name="Rectangle 70" width="15" height="1" rx="0.5" transform="translate(1093 65)" fill="#777" stroke="#777" stroke-width="1"/>
              <rect id="Rectangle_71" data-name="Rectangle 71" width="1" height="13" rx="0.5" transform="translate(1100 50)" fill="#777" stroke="#777" stroke-width="1"/>
              <path id="Union_43" data-name="Union 43" d="M-13819.317-14471.844a.5.5,0,0,1-.379-.146l-4.949-4.948a.5.5,0,0,1,0-.709.5.5,0,0,1,.705,0l4.623,4.624,4.62-4.624a.5.5,0,0,1,.709,0,.5.5,0,0,1,0,.709l-4.953,4.948a.486.486,0,0,1-.351.147Z" transform="translate(14919.793 14535.637)" fill="#777" stroke="#777" stroke-width="1"/>
            </g>
          </g>
        </g>
      </g>
      <g id="Group_1215" data-name="Group 1215">
        <rect id="Rectangle_1416" data-name="Rectangle 1416" width="24" height="24" rx="3" transform="translate(6650 -8784)" fill="#fff" opacity="0.62"/>
        <path id="Path_3507" data-name="Path 3507" d="M4.95,6.364.707,2.121A1,1,0,0,1,2.121.707L5.657,4.243,9.193.707a1,1,0,1,1,1.414,1.414L6.364,6.364a1,1,0,0,1-1.414,0Z" transform="translate(6656.343 -8775.414)" fill="#aeadad"/>
      </g>
    </g>
    <g id="开始页面">
      <g transform="matrix(1, 0, 0, 1, 6633, -8795)" filter="url(#Rectangle_1430)">
        <rect id="Rectangle_1430-2" data-name="Rectangle 1430" width="80" height="55" rx="6" transform="translate(144 186)" fill="#fcfcfc"/>
      </g>
      <g transform="matrix(1, 0, 0, 1, 6633, -8795)" filter="url(#Rectangle_1439)">
        <rect id="Rectangle_1439-2" data-name="Rectangle 1439" width="80" height="55" rx="6" transform="translate(144 261)" fill="#fcfcfc"/>
      </g>
      <g transform="matrix(1, 0, 0, 1, 6633, -8795)" filter="url(#Rectangle_1431)">
        <rect id="Rectangle_1431-2" data-name="Rectangle 1431" width="80" height="55" rx="6" transform="translate(244 186)" fill="#fcfcfc"/>
      </g>
      <g transform="matrix(1, 0, 0, 1, 6633, -8795)" filter="url(#Rectangle_1438)">
        <rect id="Rectangle_1438-2" data-name="Rectangle 1438" width="80" height="55" rx="6" transform="translate(244 261)" fill="#fcfcfc"/>
      </g>
      <g transform="matrix(1, 0, 0, 1, 6633, -8795)" filter="url(#Rectangle_1432)">
        <rect id="Rectangle_1432-2" data-name="Rectangle 1432" width="80" height="55" rx="6" transform="translate(344 186)" fill="#fcfcfc"/>
      </g>
      <g transform="matrix(1, 0, 0, 1, 6633, -8795)" filter="url(#Rectangle_1437)">
        <rect id="Rectangle_1437-2" data-name="Rectangle 1437" width="80" height="55" rx="6" transform="translate(344 261)" fill="#fcfcfc"/>
      </g>
      <g transform="matrix(1, 0, 0, 1, 6633, -8795)" filter="url(#Rectangle_1433)">
        <rect id="Rectangle_1433-2" data-name="Rectangle 1433" width="80" height="55" rx="6" transform="translate(444 186)" fill="#fcfcfc"/>
      </g>
      <g transform="matrix(1, 0, 0, 1, 6633, -8795)" filter="url(#Rectangle_1436)">
        <rect id="Rectangle_1436-2" data-name="Rectangle 1436" width="80" height="55" rx="6" transform="translate(444 261)" fill="#fcfcfc"/>
      </g>
      <g transform="matrix(1, 0, 0, 1, 6633, -8795)" filter="url(#Rectangle_1434)">
        <rect id="Rectangle_1434-2" data-name="Rectangle 1434" width="80" height="55" rx="6" transform="translate(544 186)" fill="#fcfcfc"/>
      </g>
      <g transform="matrix(1, 0, 0, 1, 6633, -8795)" filter="url(#Rectangle_1435)">
        <rect id="Rectangle_1435-2" data-name="Rectangle 1435" width="80" height="55" rx="6" transform="translate(544 261)" fill="#fcfcfc"/>
      </g>
      <g id="搜索">
        <g transform="matrix(1, 0, 0, 1, 6633, -8795)" filter="url(#Rectangle_1426)">
          <rect id="Rectangle_1426-2" data-name="Rectangle 1426" width="327" height="33" rx="16.5" transform="translate(220 122)" fill="#fff" opacity="0.67"/>
        </g>
        <g id="search" transform="translate(7148.523 -8664)" opacity="0.57">
          <rect id="Rectangle_411" data-name="Rectangle 411" width="16" height="16" transform="translate(0.477)" fill="none"/>
          <g id="search-2" data-name="search" transform="translate(1 1)">
            <rect id="Rectangle_412" data-name="Rectangle 412" width="1" height="5" rx="0.5" transform="translate(9.985 11.407) rotate(-45)" fill="#777" stroke="#777" stroke-width="1"/>
            <path id="Subtraction_110" data-name="Subtraction 110" d="M6.5,13A6.5,6.5,0,1,1,13,6.5,6.507,6.507,0,0,1,6.5,13Zm0-12A5.5,5.5,0,1,0,12,6.5,5.507,5.507,0,0,0,6.5,1Z" transform="translate(0.477)" fill="#777" stroke="#777" stroke-width="1"/>
          </g>
        </g>
        <g id="Layer_x0020_1" transform="translate(6868 -8663)">
          <g id="_2316807404336-2" data-name="_2316807404336" transform="translate(0 0)">
            <path id="Path_221" data-name="Path 221" d="M2.679,1.413H19.487l3.164,2.916V15.26H17.418V6.107H7.726V15.26H2.679V1.413ZM15.106,15.26H10.038V8.954h5.067Z" transform="translate(-2.679 -1.413)" fill-rule="evenodd" fill="url(#linear-gradient-2)"/>
            <path id="Path_3511" data-name="Path 3511" d="M-1004.459,16373.129l4.617-.008-4.617.639Z" transform="translate(1019.198 -16368.435)" fill="#2d5dd1"/>
            <path id="Path_223" data-name="Path 223" d="M2.679,1.413H19.487l3.164,2.916V15.26H17.418V6.107H7.726V15.26H2.679V1.413ZM15.106,15.26H10.038V8.954h5.067Z" transform="translate(-2.679 -1.413)" fill="none" fill-rule="evenodd"/>
          </g>
        </g>
      </g>
    </g>
    <g id="侧边栏" transform="translate(0 1)">
      <path id="Rectangle_1419" data-name="Rectangle 1419" d="M0,0H40a0,0,0,0,1,0,0V332a0,0,0,0,1,0,0H8a8,8,0,0,1-8-8V0A0,0,0,0,1,0,0Z" transform="translate(6642 -8716)" fill="#f3f3f3"/>
      <g id="Group_1219" data-name="Group 1219">
        <g id="Group_1218" data-name="Group 1218" transform="translate(6654.373 -8626.379)" opacity="0.32">
          <path id="椭圆_354" data-name="椭圆 354" d="M4.5,1c-.813,0-1.655.668-2.31,1.833A10.739,10.739,0,0,0,1,8a10.739,10.739,0,0,0,1.19,5.167C2.845,14.332,3.687,15,4.5,15s1.655-.668,2.31-1.833A10.739,10.739,0,0,0,8,8,10.739,10.739,0,0,0,6.81,2.833C6.155,1.668,5.313,1,4.5,1m0-1C6.985,0,9,3.582,9,8s-2.015,8-4.5,8S0,12.418,0,8,2.015,0,4.5,0Z" transform="translate(3.5)" fill="#777" stroke="#777" stroke-width="1"/>
          <path id="椭圆_355" data-name="椭圆 355" d="M4.5,1.056c-.813,0-1.655.706-2.31,1.936A11.864,11.864,0,0,0,1,8.449a11.864,11.864,0,0,0,1.19,5.457c.655,1.231,1.5,1.936,2.31,1.936s1.655-.706,2.31-1.936A11.864,11.864,0,0,0,8,8.449,11.864,11.864,0,0,0,6.81,2.992c-.655-1.231-1.5-1.936-2.31-1.936M4.5,0C6.985,0,9,3.783,9,8.449S6.985,16.9,4.5,16.9,0,13.115,0,8.449,2.015,0,4.5,0Z" transform="translate(13.066 -0.122) rotate(60)" fill="#777" stroke="#777" stroke-width="1"/>
          <path id="椭圆_355-2" data-name="椭圆 355" d="M4.5,15.842c-.813,0-1.655-.706-2.31-1.936A11.864,11.864,0,0,1,1,8.449,11.864,11.864,0,0,1,2.19,2.992c.655-1.231,1.5-1.936,2.31-1.936s1.655.706,2.31,1.936A11.864,11.864,0,0,1,8,8.449a11.864,11.864,0,0,1-1.19,5.456c-.655,1.231-1.5,1.936-2.31,1.936m0,1.056C6.985,16.9,9,13.115,9,8.449S6.985,0,4.5,0,0,3.783,0,8.449,2.015,16.9,4.5,16.9Z" transform="translate(-1.567 7.673) rotate(-60)" fill="#777" stroke="#777" stroke-width="1"/>
        </g>
        <g id="收藏图标_bee" transform="translate(6654.018 -8665.5)" opacity="0.32">
          <path id="Union_19" data-name="Union 19" d="M7.371,14.9,4.68,13.35A1.457,1.457,0,0,1,4,12.159v-.593a5.457,5.457,0,0,1-.724.042H3.241A3.54,3.54,0,0,1,0,7.837,3.54,3.54,0,0,1,3.245,4.07a5.71,5.71,0,0,1,1,.089A3.769,3.769,0,0,1,5.283,2.912,2.5,2.5,0,0,0,4.249,1.146.906.906,0,0,1,4.035.272.367.367,0,0,1,4.578.058,4.992,4.992,0,0,1,6.022,2.452a4.579,4.579,0,0,1,3.987.009,4.98,4.98,0,0,1,1.446-2.4A.367.367,0,0,1,12,.272a.905.905,0,0,1-.213.874,2.509,2.509,0,0,0-1.038,1.781,3.769,3.769,0,0,1,1.022,1.229,5.734,5.734,0,0,1,.983-.086,3.528,3.528,0,0,1,3.213,3.767,4.112,4.112,0,0,1-.935,2.666,2.971,2.971,0,0,1-2.278,1.105A4.469,4.469,0,0,1,12,11.532v.627a1.458,1.458,0,0,1-.683,1.191S8.64,14.892,8.622,14.9L8,16Zm.443-.894a.692.692,0,0,0,.366,0l2.634-1.528A.481.481,0,0,0,11,12.159v-.873a4.475,4.475,0,0,1-.446-.162A8.088,8.088,0,0,1,8.658,9.731,6.557,6.557,0,0,1,8,8.87a6.571,6.571,0,0,1-.664.861,11.376,11.376,0,0,1-1.674,1.261H6.5s.5,0,.5,0-.5,0-.5,0h-.85a2.361,2.361,0,0,1-.239.135A3.712,3.712,0,0,1,5,11.32v.839a.48.48,0,0,0,.184.319l.1.059H7.74s.242,0,.242.007-.242.006-.242.006H5.306Zm2.245-7.854a5.065,5.065,0,0,0-.715.642A5.8,5.8,0,0,0,8.6,7.837a5.568,5.568,0,0,0,.744,1.044,4.616,4.616,0,0,0,3.407,1.564A2.45,2.45,0,0,0,15,7.837,2.45,2.45,0,0,0,12.751,5.23,4.5,4.5,0,0,0,10.058,6.152ZM1,7.837a2.449,2.449,0,0,0,2.243,2.608A4.616,4.616,0,0,0,6.648,8.881a5.584,5.584,0,0,0,.744-1.044,5.645,5.645,0,0,0-.744-1.043,5.057,5.057,0,0,0-.711-.642,4.521,4.521,0,0,0-2.7-.922A2.449,2.449,0,0,0,1,7.837ZM5.393,4.531l.051.024a5.9,5.9,0,0,1,1.89,1.392A7.086,7.086,0,0,1,8,6.809a7.325,7.325,0,0,1,.66-.861,5.942,5.942,0,0,1,1.893-1.392l.054-.024c.047-.022.1-.048.171-.078A3.148,3.148,0,0,0,8.006,2.921,3.148,3.148,0,0,0,5.233,4.458C5.3,4.485,5.349,4.51,5.393,4.531Z" transform="translate(0 3)" fill="#777" stroke="#777" stroke-width="1"/>
        </g>
        <g id="Group_1217" data-name="Group 1217" transform="translate(6652.061 -8701.5)" opacity="0.32">
          <path id="Path_104" data-name="Path 104" d="M8.14,10.586A2.729,2.729,0,0,1,5.711,8.93a.479.479,0,0,1,.209-.68.57.57,0,0,1,.74.192c.532.877.88,1.144,1.481,1.144.665,0,1.306-.841,1.479-1.136a.567.567,0,0,1,.735-.2.481.481,0,0,1,.224.675A3.229,3.229,0,0,1,8.14,10.586Z" transform="translate(1.859 1.614)" fill="#777"/>
          <g id="Polygon_10" data-name="Polygon 10" fill="none">
            <path d="M9.057,1.647a1,1,0,0,1,1.763,0l2.121,3.962a1,1,0,0,0,.7.512l4.413.8A1,1,0,0,1,18.6,8.6L15.5,11.862a1,1,0,0,0-.267.823l.6,4.47a1,1,0,0,1-1.427,1.034l-4.031-1.952a1,1,0,0,0-.872,0L5.472,18.189a1,1,0,0,1-1.427-1.034l.6-4.47a1,1,0,0,0-.267-.823L1.276,8.6a1,1,0,0,1,.545-1.673l4.413-.8a1,1,0,0,0,.7-.512Z" stroke="none"/>
            <path d="M 9.938965797424316 4.238056182861328 L 8.699786186218262 6.553112983703613 C 8.26567554473877 7.364132881164551 7.497675895690918 7.923862457275391 6.592745780944824 8.088762283325195 L 4.001335144042969 8.561052322387695 L 5.830575942993164 10.48340225219727 C 6.461135864257812 11.14605236053467 6.752645492553711 12.04602241516113 6.630345344543457 12.95255279541016 L 6.276235580444336 15.57727432250977 L 8.631595611572266 14.43692207336426 C 9.036746025085449 14.24075317382812 9.488825798034668 14.13706207275391 9.93897533416748 14.13706207275391 C 10.38908576965332 14.13706207275391 10.84114551544189 14.24074268341064 11.24626541137695 14.43688201904297 L 13.6016902923584 15.57726669311523 L 13.2475757598877 12.9525318145752 C 13.12528610229492 12.04602241516113 13.41679573059082 11.14605236053467 14.0473461151123 10.48341274261475 L 15.87659931182861 8.561055183410645 L 13.28523635864258 8.088772773742676 C 12.38023567199707 7.923852920532227 11.61223602294922 7.36412239074707 11.17815589904785 6.553132057189941 L 9.938965797424316 4.238056182861328 M 9.938961982727051 1.119022369384766 C 10.28556060791016 1.119022369384766 10.63216114044189 1.295051574707031 10.82060623168945 1.647111892700195 L 12.94144630432129 5.609292984008789 C 13.08529567718506 5.878052711486816 13.34388542175293 6.066522598266602 13.64378547668457 6.121172904968262 L 18.05655670166016 6.925412178039551 C 18.83888626098633 7.067992210388184 19.14987564086914 8.022472381591797 18.6016960144043 8.598552703857422 L 15.4962158203125 11.86210250854492 C 15.28713607788086 12.08182239532471 15.1890754699707 12.38456249237061 15.2296257019043 12.68514251708984 L 15.83265590667725 17.15493202209473 C 15.93926620483398 17.94511222839355 15.12351608276367 18.53615188598633 14.40587615966797 18.18869209289551 L 10.37473583221436 16.23700332641602 C 10.09950733184814 16.10375213623047 9.778426170349121 16.10375213623047 9.503195762634277 16.23701286315918 L 5.472055435180664 18.18869209289551 C 4.754416465759277 18.53615188598633 3.938666343688965 17.94511222839355 4.045266151428223 17.15493202209473 L 4.648305892944336 12.68514251708984 C 4.68885612487793 12.38456249237061 4.590795516967773 12.08182239532471 4.381715774536133 11.86210250854492 L 1.276235580444336 8.598552703857422 C 0.7280559539794922 8.022472381591797 1.039035797119141 7.067992210388184 1.821365356445312 6.925412178039551 L 6.234146118164062 6.121172904968262 C 6.534046173095703 6.066522598266602 6.792635917663574 5.878052711486816 6.93648624420166 5.609302520751953 L 9.05732536315918 1.647111892700195 C 9.245765686035156 1.295051574707031 9.592363357543945 1.119022369384766 9.938961982727051 1.119022369384766 Z" stroke="none" fill="#777"/>
          </g>
        </g>
      </g>
    </g>
  </g>
</svg>
