<svg xmlns="http://www.w3.org/2000/svg" xmlns:xlink="http://www.w3.org/1999/xlink" width="620" height="468" viewBox="0 0 620 468">
  <defs>
    <linearGradient id="linear-gradient" x1="0.159" y1="0.09" x2="0.841" y2="0.91" gradientUnits="objectBoundingBox">
      <stop offset="0" stop-color="#2a48ba"/>
      <stop offset="1" stop-color="#35e4c5"/>
    </linearGradient>
    <clipPath id="clip-path">
      <path id="路径_222" data-name="路径 222" d="M2.679,1.413H25.152L29.383,5.3V19.885h-7V7.675H9.423v12.21H2.679ZM19.294,19.885H12.518V11.473h6.775Z" transform="translate(-2.679 -1.413)"/>
    </clipPath>
  </defs>
  <g id="pic-features-3" transform="translate(-6401 20302)">
    <rect id="Rectangle_3426" data-name="Rectangle 3426" width="620" height="468" transform="translate(6401 -20302)" fill="none"/>
    <g id="Group_3533" data-name="Group 3533" transform="translate(6343 -21183)">
      <rect id="Rectangle_24" data-name="Rectangle 24" width="608" height="344.123" transform="translate(64 943)" fill="none"/>
      <g id="团队合作难题" transform="translate(33 882.678)">
        <path id="bg" d="M151.33,380.454C65.876,380.454,31,314.012,31,240.061s34.29-119.482,78.5-119.482S141.147,164.8,192.872,164.8,272.608,60.322,346.679,60.322s17.76,98.476,83.3,98.476S569.11,134.021,569.11,235.112,701,383.651,602.417,383.651,151.33,380.454,151.33,380.454Z" transform="translate(0 0)" fill="#f3f9ff"/>
        <g id="plant" transform="translate(33.822 231.647)">
          <path id="Path" d="M57.989,73.646c12.009,14.308,33.2-4.771,33.2-4.771s-8.69-.868-10.666-3.851c0,0,13.757.173,17.532-7.945,0,0-6.1.394-9.06-1.7,0,0,9.079-2.371,8.722-7.451s-2.867-8.722-7.658-9.734a11.423,11.423,0,0,1-6.387,6.347S82.316,40,84.8,38.384c0,0-10.309-3.355-15.781,9.409,0,0-.853-2.131,1.129-9.389C70.15,38.4,41.285,53.745,57.989,73.646Z" transform="translate(6.345 4.313)" fill="#ffe994"/>
          <path id="Path-2" data-name="Path" d="M26.954,69.1c7.687,7.582,2.831,24.712-22.786,24.825,0,0-3.732-9.839,4.241-12.413,0,0-2.594-2.4-5.114-1.386,0,0-.824-6.616,8.167-6.108,0,0-2.375-3.733-4.58-3.733C6.883,70.291,18.526,60.79,26.954,69.1Z" transform="translate(-0.097 7.918)" fill="#ffe994"/>
          <path id="Path-3" data-name="Path" d="M41.185,65.116c14.726-7.524,12.923-22.825,12.923-22.825L48.175,46.7s5.949-8.821.493-16.965c0,0-2.571,5.938-5.456,6.446,0,0,3.9-16.117-4.071-23.242,0,0-6.107,8.313-8.651,9.67,0,0,6.956-17.644-4.58-20.7s-13.063,0-13.063,0-2.375,11.536,0,14.929c0,0-5.259-5.09-4.75-9.161,0,0-7.125,7.8,1.527,20.867,0,0-6.446-1.7-9.161-5.938,0,0,.509,20.527,15.776,26.8,0,0-6.786,2.715-10.178.34C6.061,49.756,16.765,77.593,41.185,65.116Z" transform="translate(-0.463 -0.557)" fill="#ffe994"/>
          <path id="Path-4" data-name="Path" d="M14.579,79.777a37.635,37.635,0,0,1,5.985-5.961c2.232-1.684,4.817-3.346,7.964-3.31,3.263.16,5.585,2.509,7.387,4.664A31.829,31.829,0,0,1,40.3,82.582c4.455,10.411,4.735,23.311-1.536,32.924l-.178-.1a37.194,37.194,0,0,0,3.148-16.09,47.657,47.657,0,0,0-3.207-16,29.812,29.812,0,0,0-3.877-7.148c-1.6-2.086-3.709-4.149-6.2-4.312-5.221.007-9.925,4.242-13.719,8.053Z" transform="translate(1.373 8.544)" fill="#ffcb01"/>
          <path id="Path-5" data-name="Path" d="M18.364,18.3c-1.889,9.739,1.6,19.939,7.986,27.245C32.826,52.878,39.713,60.47,43.2,70.006c3.691,9.41,4.364,19.6,4.2,29.507a186.543,186.543,0,0,1-3.6,29.505l-.2-.029c.792-9.864,1.754-19.688,1.763-29.511.1-9.774-.436-19.7-3.69-28.905C38.5,61.286,31.95,53.722,25.57,46.2c-6.346-7.685-9.587-18.175-7.4-27.951Z" transform="translate(1.752 1.744)" fill="#ffcb01"/>
          <path id="Path-6" data-name="Path" d="M81.693,50.588C79.51,56.851,73.633,60.8,67.958,63.572,62.3,66.43,56.152,69.03,52.68,74.188c-3.386,5.134-3.672,11.747-3.563,17.951a127.82,127.82,0,0,0,2.044,18.95l-.2.055a70.944,70.944,0,0,1-3.882-18.927c-.173-6.389.207-13.4,4.264-18.966,4.045-5.542,10.487-7.921,16.166-10.595C73.258,60.131,79.063,56.6,81.5,50.514Z" transform="translate(5.598 5.943)" fill="#ffcb01"/>
          <rect id="Rectangle" width="38.933" height="53.948" transform="translate(30.281 98.057)" fill="#dceefd"/>
        </g>
        <g id="computer" transform="translate(133.96 69.078)">
          <path id="Path_2211" d="M8.62.066H394.468a8.116,8.116,0,0,1,8.116,8.116V280.211a8.117,8.117,0,0,1-8.116,8.116H8.62A8.116,8.116,0,0,1,.5,280.211V8.182A8.116,8.116,0,0,1,8.62.066Z" transform="translate(-0.504 -0.066)" fill="#102b5e"/>
          <path id="Path_2210" d="M20.587,13.815H389.5a4.379,4.379,0,0,1,4.379,4.379V246.339a4.379,4.379,0,0,1-4.379,4.379H20.587a4.379,4.379,0,0,1-4.379-4.379V18.194A4.379,4.379,0,0,1,20.587,13.815Z" transform="translate(-3.652 -2.822)" fill="#edf2f9"/>
          <g id="Group_63" transform="translate(124.901 260.432)">
            <path id="Path_2213" d="M51.839.788H125.43v65.3H51.839Z" transform="translate(-10.964 -0.788)" fill="#102b5e"/>
            <path id="Path_165" d="M152.994,90.215H.717s2.305-17.128,76.2-17.128S152.994,90.215,152.994,90.215Z" transform="translate(-0.717 -15.28)" fill="#102b5e"/>
          </g>
          <g id="Group_685" data-name="Group 685" transform="translate(346.039 208.528)">
            <g id="Layer_x0020_1" transform="translate(0 0)">
              <g id="_2316807404336" transform="translate(0 0)">
                <path id="路径_221" data-name="路径 221" d="M2.679,1.413H25.152L29.383,5.3V19.885h-7V7.675H9.423v12.21H2.679ZM19.294,19.885H12.518V11.473h6.775Z" transform="translate(-2.679 -1.413)" fill-rule="evenodd" fill="url(#linear-gradient)"/>
                <g id="组_195" data-name="组 195" clip-path="url(#clip-path)">
                  <g id="组_194" data-name="组 194" transform="translate(15.284 6.251)">
                    <path id="_1" d="M20.834,8.856H31.428L20.9,10.308Z" transform="translate(-20.834 -8.856)" fill="#2d5dd1" fill-rule="evenodd"/>
                  </g>
                </g>
                <path id="路径_223" data-name="路径 223" d="M2.679,1.413H25.152L29.383,5.3V19.885h-7V7.675H9.423v12.21H2.679ZM19.294,19.885H12.518V11.473h6.775Z" transform="translate(-2.679 -1.413)" fill="none" fill-rule="evenodd"/>
              </g>
            </g>
          </g>
          <path id="Path_2207" d="M18.593,13.815H391.91a2.461,2.461,0,0,1,2.462,2.459v14.96H15.946V16.458A2.645,2.645,0,0,1,18.593,13.815Z" transform="translate(-4.144 -2.822)" fill="#224380"/>
          <circle id="Ellipse_1" cx="4.754" cy="4.754" r="4.754" transform="translate(22.861 14.948)" fill="#ff8b66"/>
          <circle id="Ellipse_2" cx="4.754" cy="4.754" r="4.754" transform="translate(41.877 14.948)" fill="#ffcb01"/>
          <path id="Ellipse_3" d="M4.754,0A4.754,4.754,0,1,1,0,4.754,4.754,4.754,0,0,1,4.754,0Z" transform="translate(60.895 14.948)" fill="#44d690"/>
          <g id="searchbarDefult" transform="translate(248.384 52.065)">
            <rect id="Rectangle_842" data-name="Rectangle 842" width="103.22" height="13.38" rx="6.69" transform="translate(0 0)" fill="#baddfe"/>
            <circle id="Ellipse_171" data-name="Ellipse 171" cx="3.504" cy="3.504" r="3.504" transform="translate(2.549 3.186)" fill="#f3f9ff"/>
            <g id="Group_684" data-name="Group 684" transform="translate(92.694 3.935)">
              <g id="Ellipse_172" data-name="Ellipse 172" fill="none" stroke="#f3f9ff" stroke-width="1">
                <circle cx="2.265" cy="2.265" r="2.265" stroke="none"/>
                <circle cx="2.265" cy="2.265" r="1.765" fill="none"/>
              </g>
              <rect id="Rectangle_843" data-name="Rectangle 843" width="0.453" height="2.718" transform="translate(3.409 3.729) rotate(-45)" fill="#f3f9ff"/>
            </g>
          </g>
          <rect id="Rectangle_3270" data-name="Rectangle 3270" width="33.903" height="22.602" rx="4" transform="translate(237.204 89.742)" fill="#dfeaff" opacity="0.71"/>
          <rect id="Rectangle_3275" data-name="Rectangle 3275" width="33.903" height="22.602" rx="4" transform="translate(237.204 121.386)" fill="#dfeaff" opacity="0.71"/>
          <rect id="Rectangle_3271" data-name="Rectangle 3271" width="33.903" height="22.602" rx="4" transform="translate(279.018 89.742)" fill="#dfeaff" opacity="0.71"/>
          <rect id="Rectangle_3274" data-name="Rectangle 3274" width="33.903" height="22.602" rx="4" transform="translate(279.018 121.386)" fill="#dfeaff" opacity="0.71"/>
          <rect id="Rectangle_3272" data-name="Rectangle 3272" width="33.903" height="22.602" rx="4" transform="translate(320.832 89.742)" fill="#dfeaff" opacity="0.71"/>
          <rect id="Rectangle_3273" data-name="Rectangle 3273" width="33.903" height="22.602" rx="4" transform="translate(320.832 121.386)" fill="#dfeaff" opacity="0.71"/>
        </g>
        <g id="man" transform="translate(472.013 150.814)">
          <path id="Path-7" data-name="Path" d="M135.944,47.324a8.481,8.481,0,0,1-1.457-3.123c-.208-1.457,0-7.912-2.5-12.285s-14.369-3.617-14.376-2.5c-.017,2.5,7.658.85,9.166,6.663.4,1.548-1.015,3.048-1.686,2.708-1.784-.906-2.421-5.362-3.931-5.206-1.144.118-1.926,7.339,1.041,10.307,2.093,2.092,7.079,6.454,8.433,10.1S137.211,49.682,135.944,47.324Z" transform="translate(-112.23 -28.554)" fill="#f1b282"/>
          <path id="Path-8" data-name="Path" d="M138.209,44.833a1.2,1.2,0,0,0-1.658-.308L126.616,51.3a1.352,1.352,0,0,0-.362,1.87c4.947,7.392,25.025,41.06,34.345,43l9.825-15.007C144.566,54.218,144.748,54.281,138.209,44.833Z" transform="translate(-111.135 -26.503)" fill="#f0b701"/>
          <path id="Path-9" data-name="Path" d="M148.038,219.357l-1.4,6.523s.221,3.263,5.912,3.749,7.7-2.43,7.7-2.43,1.665-7.842,1.6-8.4S148.038,219.357,148.038,219.357Z" transform="translate(-108.453 -3.82)" fill="#f1b282"/>
          <path id="Path-10" data-name="Path" d="M151.082,223.56a1.785,1.785,0,0,0-2.243-.324c-2.559,1.542-8,4.813-8.329,4.936-2.9,1.082-10.626,2.78-10.623,5.691,0,3.051,22.414,2.22,30.614,1.814a3.152,3.152,0,0,0,3-3.108l.085-6.748a.963.963,0,0,0-1.432-.852,13.45,13.45,0,0,1-5.46,1.856C154.52,226.922,152.3,224.889,151.082,223.56Z" transform="translate(-110.633 -3.256)" fill="#0b224e"/>
          <path id="Path-11" data-name="Path" d="M193.252,201.171l4.87,4.56s2.909,1.492,6.257-3.137,1.886-7.854,1.886-7.854-5.864-5.466-6.376-5.694S193.252,201.171,193.252,201.171Z" transform="translate(-102.388 -7.672)" fill="#f1b282"/>
          <path id="Path-12" data-name="Path" d="M197.625,202.408a1.785,1.785,0,0,0-1.434,1.755c0,2.988.006,9.337-.059,9.682-.564,3.04-3.091,10.542-.592,12.038,2.616,1.567,13.447-18.068,17.324-25.307a3.152,3.152,0,0,0-1.12-4.17L206,192.859a.962.962,0,0,0-1.467.788,13.47,13.47,0,0,1-1.224,5.635C202.279,201.193,199.39,202.052,197.625,202.408Z" transform="translate(-102.232 -7.194)" fill="#0b224e"/>
          <path id="Path-13" data-name="Path" d="M158.328,135.161S147.084,157.856,145,169.309c-2.033,11.185,29.3,32.7,52.687,40.68a2.094,2.094,0,0,0,2.5-.95l8.932-15.8a2.28,2.28,0,0,0-.731-3.026l-37.779-24.855,10.2-30.191Z" transform="translate(-108.678 -14.682)" fill="#0b224e"/>
          <path id="Path-14" data-name="Path" d="M192.11,130.23c.417,13.95-13.277,44.349-14.654,57.882-1.189,11.679-9.1,38.9-11.251,46.141a2.055,2.055,0,0,1-2.369,1.434l-15.788-3.132a2.413,2.413,0,0,1-1.851-3.035c2.092-7.316,8.071-28.414,9.269-34.745,1.457-7.7-.624-40.823,3.747-56.633S192.11,130.23,192.11,130.23Z" transform="translate(-108.523 -15.581)" fill="#102b5e"/>
          <path id="Path-15" data-name="Path" d="M133.872,127.6s-7.6-1.3-11.086-.826-7.246,1.213-7.1,2.091,7.964,1.584,7.964,1.584a6.435,6.435,0,0,1-5.02,2.822c-3.429.167-5.635.577-5.776,1.293s9.89,4.041,13.489,2.5a107.513,107.513,0,0,1,10.962-3.476Z" transform="translate(-112.85 -15.788)" fill="#f1b282"/>
          <path id="Path-16" data-name="Path" d="M161,78.121s-.692-2.911-1.222-4.929c-1.075-4.1-3.984.669-6.879-1.023-1.007-.589-2.139-4.771-2.854-5.189-.744-.434-2.351,1.459-2.718-1.015-.4-2.723-.684-12.168,1.683-15.958,2.559-4.1,13.769-7.364,17-2.5s5.514,26.607,5.514,26.607Z" transform="translate(-108.399 -26.404)" fill="#f1b282"/>
          <path id="Path-17" data-name="Path" d="M162.166,60.058c-1.982,1.142-.165-5.91-2.468-6.61s-13.994,5.629-16.007-2,6-12.5,9.971-13.544,19.39-4.11,23.193,10.387-5.674,18.778-7.026,17.664S170.737,55.118,162.166,60.058Z" transform="translate(-108.878 -27.467)" fill="#0b224e"/>
          <path id="Path-18" data-name="Path" d="M170.214,67.807c-1.132-.849-11.659,2.7-12.075,3.851s-1.319,8.433.625,7.878,14.088-7.635,13.811-8.4A10.489,10.489,0,0,0,170.214,67.807Z" transform="translate(-107.032 -23.463)" fill="#ffe270"/>
          <path id="Path-19" data-name="Path" d="M152.775,150.147c1.426,6.561,18.642-2.932,27.274-4.164,8.745-1.25,18.53,3.54,20.612-5.83s-10.409-23.528-11.867-33.106c-2.707-24.152-12.492-35.188-15.823-35.812s-13.95,7.179-13.95,7.179c-8.536,18.006-1.457,32.8-1.457,42.383a33.7,33.7,0,0,1-1.447,8.831c-.7,2.522-1.526,5.06-2.23,7.591C152.681,141.577,151.857,145.92,152.775,150.147Z" transform="translate(-107.706 -23.005)" fill="#ffcb01"/>
          <path id="Path-20" data-name="Path" d="M153.713,134.554c7.677-1.871,23.812-6.525,27.273-13.238,4.58-8.882-7.148-29.634-7.148-29.634,3.54,16.448,1.874,34.563-11.242,35.409a46.449,46.449,0,0,1-6.653-.128C155.248,129.484,154.417,132.023,153.713,134.554Z" transform="translate(-107.533 -20.34)" fill="#f0b701"/>
          <path id="Path-21" data-name="Path" d="M131.025,140.264c.635.529,29.113-8.506,40.223-14.853s5.679-33.73,5.679-33.73l-17.793,3.149.768,14.591s-28.174,16.926-28.759,17.885C128.968,130.865,130.382,139.73,131.025,140.264Z" transform="translate(-110.621 -20.34)" fill="#ffcb01"/>
        </g>
        <g id="woman" transform="translate(102.759 234.77)">
          <path id="Path-22" data-name="Path" d="M57.991,6.529c2.711.289,3.472,4.662,4.537,5.749s2.736,2.547,2.876,3.548-2.4,1.521-1.669,3.888,1.413,5.36-2.107,6.924-2.213,4.731-1.666,7.88-1.293,4.235-2.57,4.454S42.2,37.395,41.767,28.54c-.366-7.5.58-16.64,6.105-19.579S55.7,6.284,57.991,6.529Z" transform="translate(4.637 0.517)" fill="#f1b282"/>
          <path id="Path-23" data-name="Path" d="M84.282,133.526H77.8a22.942,22.942,0,0,1-1.792-4.826c-.441-2.009-1.1-5.753-.441-8.467s8.3-2.455,9.259-1.586.806,3.133,4.621,5.159c2.3,1.224,6.571,1.849,12.8,4.57a3.332,3.332,0,0,1,2,3.052,2.222,2.222,0,0,1-2.183,2.223q-10.166.183-12.656.183a30.441,30.441,0,0,1-5.123-2.412v2.1Z" transform="translate(9.007 15.045)" fill="#03193f" fill-rule="evenodd"/>
          <path id="Path-24" data-name="Path" d="M91.981,80.167c-3.11-6.6-46.931-14.53-52.582-12.685s-8.533,5.19-8.533,10.148c0,6.918,19.551,17.142,43.386,15.35,1.007,11.489,3.258,34.2,5.473,36.412,1.632,1.632,16.136-.14,16.136-2.278C95.861,120.577,95.546,87.729,91.981,80.167Z" transform="translate(3.227 8.431)" fill="#0b224e"/>
          <path id="Path-25" data-name="Path" d="M24.214,118s-12.923.26-14.547,9.692l-1.859-.114,4.472-16.8,10.576-.994Z" transform="translate(0.227 13.97)" fill="#f1b282"/>
          <path id="Path-26" data-name="Path" d="M11.714,110.072a46.618,46.618,0,0,0,5.5.084c.9-.041-.716,1.917-1.285,5.883-.492,3.432,3.08,4.1,2.384,4.548-1.041.666-1.428.4-4.25,3.4q-2.541,2.7-8.458,9.635a3.267,3.267,0,0,1-3.349,1.031,2.115,2.115,0,0,1-1.49-2.564Q3,123.35,3.625,121.078a28.871,28.871,0,0,1,3.5-4.1l-1.93-.53,1.632-5.95A21.74,21.74,0,0,1,11.714,110.072Z" transform="translate(-0.698 14.005)" fill="#03193f" fill-rule="evenodd"/>
          <path id="Path-27" data-name="Path" d="M63.015,78.06s-25.694-4.632-26.984-1.615c-2.166,5.063,2.261,22.154,6.451,32.576-12.317.6-28.1,2.1-28.646,2.987-.849,1.39,6.747,15.42,8.105,16.2s33.722-.505,39.631-3.909C67.177,121.074,63.015,78.06,63.015,78.06Z" transform="translate(1.003 9.499)" fill="#102b5e"/>
          <path id="Path-28" data-name="Path" d="M84.149,61.394s5.663-3.258,8.921-3.128,4.56-.338,4.43.808-4.039,2.579-4.951,2.319,9.251-.652,9.381,1.564-3.258,7.259-7.3,6.756-11.727-4.02-11.727-4.02Z" transform="translate(9.998 7.266)" fill="#f1b282"/>
          <path id="Path-29" data-name="Path" d="M58.788,36.573s1.495-6.573.687-7.612-10.033-3.806-11.07-3.344-1.673,6.919-1.673,6.919Z" transform="translate(5.292 3.012)" fill="#1277d7"/>
          <path id="Path-30" data-name="Path" d="M92.07,63.635c-1.73-1.038-15.452.692-25.716-19.258-3.015-6.646-4.278-9.3-5.848-10.872-.44-.44-8.087-5.6-9.835-4.926-1.5.577-7.677,6.228-8.74,15.8S27.3,68.553,29.568,83.126c1.5,9.639,9.571,4.382,15.568,4.151,4.3-.166,12.631,7.957,15.887,4.728,1.788-1.774,2.245-14.025,2.161-25.3,5.414,4.895,13.779,8.721,26.7,8.463C92.185,74.591,93.8,64.674,92.07,63.635Z" transform="translate(3.025 3.396)" fill="#1b90fb"/>
          <path id="Path-31" data-name="Path" d="M59.573,87.131C55.124,82.812,42.457,68,51.026,46.174c0,0,.081,9.682,9.649,18.181l.062.057C60.8,73.2,60.54,82.581,59.573,87.131Z" transform="translate(5.472 5.694)" fill="#1277d7"/>
          <path id="Path-32" data-name="Path" d="M69.261,90.14v-.017l.314-.037,6.464-.808h.036l-5.25,16.649Z" transform="translate(8.223 11.302)" fill="#03193f"/>
          <path id="Path-33" data-name="Path" d="M19.843,63.735c8.324,8.324,25.69.462,28.528-10.263s.837-19.064,3.992-22.546,4.209-3.575,4.209-5.766-4.671-7.612-2.825-9.8,13.261-4.786,11.3-10.321-15.4-7.726-23.039,1.73S37.659,22.68,33.969,30.407,5.531,49.422,19.843,63.735Z" transform="translate(1.219 -0.278)" fill="#0b224e"/>
        </g>
        <g id="Group_1301" data-name="Group 1301" transform="translate(176.624 12900.38)">
          <g id="Group_1274" data-name="Group 1274" transform="translate(0 26.827)">
            <rect id="Rectangle_3265" data-name="Rectangle 3265" width="142.552" height="26.537" transform="translate(0 -12702.885)" fill="#dfeaff"/>
            <ellipse id="Ellipse_193" data-name="Ellipse 193" cx="7.582" cy="7.582" rx="7.582" ry="7.582" transform="translate(8.846 -12696.566)" fill="#fff" opacity="0.48"/>
            <path id="Path_3534" data-name="Path 3534" d="M2.492,0H56.065a2.492,2.492,0,0,1,2.492,2.492V4.361a2.492,2.492,0,0,1-2.492,2.492H2.492A2.492,2.492,0,0,1,0,4.361V2.492A2.492,2.492,0,0,1,2.492,0Z" transform="translate(41.652 -12692.44)" fill="#fff" opacity="0.48"/>
          </g>
          <g id="Group_1273" data-name="Group 1273" transform="translate(0 -7.265)">
            <rect id="Rectangle_3265-2" data-name="Rectangle 3265" width="142.552" height="25.273" transform="translate(0 -12702.066)" fill="#dfeaff"/>
            <ellipse id="Ellipse_193-2" data-name="Ellipse 193" cx="7.582" cy="7.582" rx="7.582" ry="7.582" transform="translate(8.846 -12697.011)" fill="#fff" opacity="0.48"/>
            <path id="Path_3533" data-name="Path 3533" d="M2.492,0H56.065a2.492,2.492,0,0,1,2.492,2.492V4.361a2.492,2.492,0,0,1-2.492,2.492H2.492A2.492,2.492,0,0,1,0,4.361V2.492A2.492,2.492,0,0,1,2.492,0Z" transform="translate(41.652 -12692.44)" fill="#fff" opacity="0.48"/>
          </g>
          <g id="Group_1272" data-name="Group 1272" transform="translate(0 -41.173)">
            <rect id="Rectangle_3265-3" data-name="Rectangle 3265" width="142.552" height="26.537" transform="translate(0 -12702.51)" fill="#dfeaff"/>
            <ellipse id="Ellipse_193-3" data-name="Ellipse 193" cx="7.582" cy="7.582" rx="7.582" ry="7.582" transform="translate(8.846 -12696.191)" fill="#fff" opacity="0.48"/>
            <path id="Path_3532" data-name="Path 3532" d="M2.492,0H56.065a2.492,2.492,0,0,1,2.492,2.492V4.361a2.492,2.492,0,0,1-2.492,2.492H2.492A2.492,2.492,0,0,1,0,4.361V2.492A2.492,2.492,0,0,1,2.492,0Z" transform="translate(41.652 -12692.44)" fill="#fff" opacity="0.48"/>
          </g>
          <g id="Group_1271" data-name="Group 1271" transform="translate(0 -75.452)">
            <rect id="Rectangle_3265-4" data-name="Rectangle 3265" width="142.552" height="26.537" transform="translate(0 -12702.954)" fill="#dfeaff"/>
            <ellipse id="Ellipse_193-4" data-name="Ellipse 193" cx="7.582" cy="7.582" rx="7.582" ry="7.582" transform="translate(8.846 -12696.637)" fill="#fff" opacity="0.48"/>
            <path id="Path_3531" data-name="Path 3531" d="M2.492,0H56.065a2.492,2.492,0,0,1,2.492,2.492V4.361a2.492,2.492,0,0,1-2.492,2.492H2.492A2.492,2.492,0,0,1,0,4.361V2.492A2.492,2.492,0,0,1,2.492,0Z" transform="translate(41.652 -12692.44)" fill="#fff" opacity="0.48"/>
          </g>
        </g>
        <path id="Path_3542" data-name="Path 3542" d="M0,0H8.7V220.372H0Z" transform="translate(330.648 96.665)" fill="#224380"/>
        <g id="paperplane" transform="translate(434.434 121.974)">
          <path id="Path-34" data-name="Path" d="M86.107,18.654,64.629,29.394.191.754Z" transform="translate(-0.191 -0.754)" fill="#9e95e3"/>
          <path id="Path-35" data-name="Path" d="M61.049,47.294l3.58-17.9L.191.754Z" transform="translate(-0.191 -0.754)" fill="#877cd8"/>
          <path id="Path-36" data-name="Path" d="M56.927,44l-7.16-14.32-17.9-3.58Z" transform="translate(3.931 2.543)" fill="#7266d5"/>
          <path id="Path-37" data-name="Path" d="M53.889,32.974l-17.9,7.16L.191.754Z" transform="translate(-0.191 -0.754)" fill="#9e95e3"/>
        </g>
      </g>
    </g>
  </g>
</svg>
