<svg xmlns="http://www.w3.org/2000/svg" xmlns:xlink="http://www.w3.org/1999/xlink" width="620" height="468" viewBox="0 0 620 468">
  <defs>
    <linearGradient id="linear-gradient" x1="0.079" y1="0.674" x2="0.645" y2="0.436" gradientUnits="objectBoundingBox">
      <stop offset="0" stop-color="#d1bcff"/>
      <stop offset="1" stop-color="#8ae6b9"/>
    </linearGradient>
    <linearGradient id="linear-gradient-2" x1="0.067" y1="0.25" x2="0.933" y2="0.75" gradientUnits="objectBoundingBox">
      <stop offset="0" stop-color="#2a48ba"/>
      <stop offset="1" stop-color="#35e4c5"/>
    </linearGradient>
    <filter id="Intersection_12" x="420" y="193" width="123" height="123" filterUnits="userSpaceOnUse">
      <feOffset dy="2" input="SourceAlpha"/>
      <feGaussianBlur stdDeviation="2" result="blur"/>
      <feFlood flood-opacity="0.322"/>
      <feComposite operator="in" in2="blur"/>
      <feComposite in="SourceGraphic"/>
    </filter>
    <clipPath id="clip-path">
      <path id="Path_212" data-name="Path 212" d="M5.19,2.157H64.7L75.9,12.481v38.7H57.371v-32.4H23.056v32.4H5.19V2.157ZM49.185,51.179H31.244V28.854H49.185Z" transform="translate(-5.19 -2.157)" clip-rule="evenodd"/>
    </clipPath>
  </defs>
  <g id="pic-features-1" transform="translate(-6416 21416)">
    <rect id="Rectangle_3424" data-name="Rectangle 3424" width="620" height="468" transform="translate(6416 -21416)" fill="none"/>
    <g id="Group_3531" data-name="Group 3531" transform="translate(6358 -22337)">
      <rect id="Rectangle_24" data-name="Rectangle 24" width="608" height="424.5" transform="translate(64 943)" fill="none"/>
      <g id="Data-Security" transform="translate(64 943)">
        <rect id="Rectangle_28" data-name="Rectangle 28" width="608" height="424" fill="none"/>
        <g id="Ornament" transform="translate(80.031 26.811)">
          <path id="Shape" d="M99.764,199.56a99.78,99.78,0,1,1,99.764-99.78A99.772,99.772,0,0,1,99.764,199.56Zm0-47.333A52.447,52.447,0,1,0,47.333,99.78,52.438,52.438,0,0,0,99.764,152.226Z" transform="translate(0)" fill="#f3f9ff"/>
          <path id="Shape-2" data-name="Shape" d="M229.478,240.517a1.739,1.739,0,1,1-1.739-1.739A1.739,1.739,0,0,1,229.478,240.517Zm0-6.956a1.739,1.739,0,1,1-1.739-1.739A1.739,1.739,0,0,1,229.478,233.562Zm0-6.956a1.739,1.739,0,1,1-1.739-1.739A1.739,1.739,0,0,1,229.478,226.606Zm0-6.956a1.739,1.739,0,1,1-1.739-1.739A1.739,1.739,0,0,1,229.478,219.65Zm0-6.956a1.739,1.739,0,1,1-1.739-1.739A1.739,1.739,0,0,1,229.478,212.695Zm0-6.956A1.739,1.739,0,1,1,227.739,204,1.739,1.739,0,0,1,229.478,205.739Zm6.956,34.778a1.739,1.739,0,1,1-1.739-1.739A1.739,1.739,0,0,1,236.434,240.517Zm0-6.956a1.739,1.739,0,1,1-1.739-1.739A1.739,1.739,0,0,1,236.434,233.562Zm0-6.956a1.739,1.739,0,1,1-1.739-1.739A1.739,1.739,0,0,1,236.434,226.606Zm0-6.956a1.739,1.739,0,1,1-1.739-1.739A1.739,1.739,0,0,1,236.434,219.65Zm0-6.956a1.739,1.739,0,1,1-1.739-1.739A1.739,1.739,0,0,1,236.434,212.695Zm0-6.956A1.739,1.739,0,1,1,234.7,204,1.739,1.739,0,0,1,236.434,205.739Zm6.956,34.778a1.739,1.739,0,1,1-1.739-1.739A1.739,1.739,0,0,1,243.39,240.517Zm0-6.956a1.739,1.739,0,1,1-1.739-1.739A1.739,1.739,0,0,1,243.39,233.562Zm0-6.956a1.739,1.739,0,1,1-1.739-1.739A1.739,1.739,0,0,1,243.39,226.606Zm0-6.956a1.739,1.739,0,1,1-1.739-1.739A1.739,1.739,0,0,1,243.39,219.65Zm0-6.956a1.739,1.739,0,1,1-1.739-1.739A1.739,1.739,0,0,1,243.39,212.695Zm0-6.956A1.739,1.739,0,1,1,241.651,204,1.739,1.739,0,0,1,243.39,205.739Zm6.956,34.778a1.739,1.739,0,1,1-1.739-1.739A1.739,1.739,0,0,1,250.346,240.517Zm0-6.956a1.739,1.739,0,1,1-1.739-1.739A1.739,1.739,0,0,1,250.346,233.562Zm0-6.956a1.739,1.739,0,1,1-1.739-1.739A1.739,1.739,0,0,1,250.346,226.606Zm0-6.956a1.739,1.739,0,1,1-1.739-1.739A1.739,1.739,0,0,1,250.346,219.65Zm0-6.956a1.739,1.739,0,1,1-1.739-1.739A1.739,1.739,0,0,1,250.346,212.695Zm0-6.956A1.739,1.739,0,1,1,248.607,204,1.739,1.739,0,0,1,250.346,205.739Zm6.956,34.778a1.739,1.739,0,1,1-1.739-1.739A1.739,1.739,0,0,1,257.3,240.517Zm0-6.956a1.739,1.739,0,1,1-1.739-1.739A1.739,1.739,0,0,1,257.3,233.562Zm0-6.956a1.739,1.739,0,1,1-1.739-1.739A1.739,1.739,0,0,1,257.3,226.606Zm0-6.956a1.739,1.739,0,1,1-1.739-1.739A1.739,1.739,0,0,1,257.3,219.65Zm0-6.956a1.739,1.739,0,1,1-1.739-1.739A1.739,1.739,0,0,1,257.3,212.695Zm0-6.956A1.739,1.739,0,1,1,255.564,204,1.739,1.739,0,0,1,257.3,205.739Zm6.956,34.778a1.739,1.739,0,1,1-1.739-1.739A1.739,1.739,0,0,1,264.259,240.517Zm0-6.956a1.739,1.739,0,1,1-1.739-1.739A1.739,1.739,0,0,1,264.259,233.562Zm0-6.956a1.739,1.739,0,1,1-1.739-1.739A1.739,1.739,0,0,1,264.259,226.606Zm0-6.956a1.739,1.739,0,1,1-1.739-1.739A1.739,1.739,0,0,1,264.259,219.65Zm0-6.956a1.739,1.739,0,1,1-1.739-1.739A1.739,1.739,0,0,1,264.259,212.695Zm0-6.956A1.739,1.739,0,1,1,262.52,204,1.739,1.739,0,0,1,264.259,205.739Z" transform="translate(-127.388 -123.533)" fill="#cdcbdf" fill-rule="evenodd"/>
          <g id="Plant" transform="translate(422.483 28.4)">
            <path id="Shape-3" data-name="Shape" d="M39.5,99.653q14.176-55.087,68.9-38.721Q103.742,85.841,86.235,99.32T39.5,99.653Z" transform="translate(-23.918 -34.628)" fill="#1eaf69" fill-rule="evenodd"/>
            <path id="Shape-4" data-name="Shape" d="M71.949,91.589l1.292-12.664a.394.394,0,1,1,.785.08L72.791,91.114Q87.154,83,108.678,70.971a.395.395,0,0,1,.385.689q-11.789,6.587-21.429,12l11.114,2.652a.394.394,0,1,1-.183.767L86.62,84.229Q78.9,88.568,72.586,92.136a.372.372,0,0,1-.126.071Q65.324,96.241,60,99.284l10.34,3.776a.395.395,0,1,1-.271.741L59.156,99.815a.431.431,0,0,1-.046-.02q-8.325,4.767-11.938,6.962a.394.394,0,1,1-.41-.674Q52.8,102.415,71.949,91.589Z" transform="translate(-28.203 -42.946)" fill="#fff"/>
            <path id="Shape-5" data-name="Shape" d="M34.07,76.1Q5.141,27.124,55.41,0,69.731,20.906,66.883,42.817T34.07,76.1Z" transform="translate(-14.232 0)" fill="#2ccd7f" fill-rule="evenodd"/>
            <path id="Shape-6" data-name="Shape" d="M58.926,50.374l-8.041-9.868a.394.394,0,0,1,.612-.5l7.688,9.435Q63.6,33.548,70.318,9.824a.394.394,0,1,1,.759.215Q67.4,23.032,64.41,33.677l9.734-5.984a.394.394,0,1,1,.413.672L64.1,34.8q-2.393,8.53-4.333,15.515a.369.369,0,0,1-.039.14q-2.193,7.9-3.8,13.812L65.9,59.621a.394.394,0,1,1,.333.715L55.7,65.236a.356.356,0,0,1-.046.018q-2.516,9.258-3.519,13.364a.394.394,0,1,1-.766-.187q1.677-6.863,7.561-28.057Z" transform="translate(-30.756 -5.775)" fill="#fff"/>
            <path id="Shape-7" data-name="Shape" d="M0,179.937Q27.95,130.4,76.575,160.368,65.63,183.223,45.231,191.712T0,179.937Z" transform="translate(0 -90.27)" fill-rule="evenodd" fill="url(#linear-gradient)"/>
            <path id="Shape-8" data-name="Shape" d="M0,179.937Q27.95,130.4,76.575,160.368,65.63,183.223,45.231,191.712T0,179.937Z" transform="translate(0 -90.27)" fill="#8ae6b9" fill-rule="evenodd"/>
            <path id="Shape-9" data-name="Shape" d="M36.182,187.028l4.526-11.9a.394.394,0,0,1,.737.28l-4.327,11.376Q53.091,182.665,77,176.618a.394.394,0,0,1,.193.765q-13.092,3.312-23.8,6.046l10.049,5.438a.394.394,0,1,1-.376.694l-10.8-5.844q-8.583,2.192-15.6,4a.374.374,0,0,1-.14.036q-7.936,2.05-13.864,3.612l9.01,6.324a.394.394,0,1,1-.453.646L21.7,191.662a.371.371,0,0,1-.039-.031q-9.275,2.451-13.333,3.635a.394.394,0,0,1-.221-.757Q14.885,192.529,36.182,187.028Z" transform="translate(-4.735 -105.896)" fill="#fff"/>
          </g>
          <path id="Shape-10" data-name="Shape" d="M59.184,117.649V0a58.825,58.825,0,1,0,0,117.649Z" transform="translate(141.315 282.817) rotate(90)" fill="#e7f4fe" fill-rule="evenodd"/>
        </g>
        <g id="browser" transform="translate(205.319 113.429)">
          <path id="Path" d="M.252,26.381V221.408a4.658,4.658,0,0,0,4.659,4.655h334.9a4.657,4.657,0,0,0,4.659-4.655V26.381Z" transform="translate(-0.252 0.281)" fill="#f3f9ff"/>
          <path id="Path-2" data-name="Path" d="M.252,8.632V29.6H344.467V8.632A8.023,8.023,0,0,0,336.44.612H8.28A8.024,8.024,0,0,0,.252,8.632Z" transform="translate(-0.252 -0.612)" fill="#224380"/>
          <path id="Path-3" data-name="Path" d="M44.148,183.016h88.887A10.523,10.523,0,0,0,143.562,172.5V83.687a10.523,10.523,0,0,0-10.528-10.518H44.148A10.523,10.523,0,0,0,33.62,83.687V172.5A10.523,10.523,0,0,0,44.148,183.016Z" transform="translate(166.129 1.902)" fill="#dae7ff"/>
          <path id="Path-4" data-name="Path" d="M51.906,100.734v36.515l29.243-18.257Z" transform="translate(209.622 2.856)" fill="#fff"/>
          <g id="Group" transform="translate(28.69 70.197)">
            <path id="Path-5" data-name="Path" d="M5.093,17.693H53.565a4.848,4.848,0,0,0,4.85-4.845V4.923A4.848,4.848,0,0,0,53.565.077H5.093A4.847,4.847,0,0,0,.243,4.923v7.925A4.847,4.847,0,0,0,5.093,17.693Z" transform="translate(99.658 -0.077)" fill="#baddfe"/>
            <path id="Path-6" data-name="Path" d="M68.6,17.693h82.665a4.848,4.848,0,0,0,4.85-4.845V4.923a4.848,4.848,0,0,0-4.85-4.845H68.6a4.848,4.848,0,0,0-4.849,4.845v7.925A4.848,4.848,0,0,0,68.6,17.693Z" transform="translate(-63.753 -0.077)" fill="#baddfe"/>
            <path id="Path-7" data-name="Path" d="M3.037,32.881H155.52a2.794,2.794,0,0,0,2.8-2.793h0a2.794,2.794,0,0,0-2.8-2.793H3.038A2.793,2.793,0,0,0,.243,30.088h0A2.794,2.794,0,0,0,3.037,32.881Z" transform="translate(-0.242 0.865)" fill="#dae7ff"/>
            <path id="Path-8" data-name="Path" d="M3.037,48.181H155.52a2.794,2.794,0,0,0,2.8-2.793h0a2.794,2.794,0,0,0-2.8-2.793H3.038A2.793,2.793,0,0,0,.243,45.389h0A2.793,2.793,0,0,0,3.037,48.181Z" transform="translate(-0.242 1.395)" fill="#dae7ff"/>
            <path id="Path-9" data-name="Path" d="M3.037,63.482H155.52a2.794,2.794,0,0,0,2.8-2.793h0a2.794,2.794,0,0,0-2.8-2.793H3.038A2.793,2.793,0,0,0,.243,60.689h0A2.793,2.793,0,0,0,3.037,63.482Z" transform="translate(-0.242 1.925)" fill="#dae7ff"/>
            <path id="Path-10" data-name="Path" d="M3.037,78.783H155.52a2.794,2.794,0,0,0,2.8-2.793h0a2.794,2.794,0,0,0-2.8-2.793H3.038A2.793,2.793,0,0,0,.243,75.99h0A2.793,2.793,0,0,0,3.037,78.783Z" transform="translate(-0.242 2.455)" fill="#dae7ff"/>
          </g>
          <g id="Group_188" data-name="Group 188" transform="translate(14.394 8.974)">
            <ellipse id="Oval" cx="5.078" cy="5.074" rx="5.078" ry="5.074" transform="translate(18.078)" fill="#ffcb01"/>
            <ellipse id="Oval-2" data-name="Oval" cx="5.078" cy="5.074" rx="5.078" ry="5.074" transform="translate(36.156)" fill="#44d690"/>
            <ellipse id="Oval-3" data-name="Oval" cx="5.078" cy="5.074" rx="5.078" ry="5.074" transform="translate(0 0.001)" fill="#ff8b66"/>
          </g>
        </g>
        <g id="Shield" transform="translate(121.608 146.083)">
          <path id="Shape-11" data-name="Shape" d="M0,42.6,101.767,0,203.533,42.6v99.3q0,70.7-101.767,105.019Q.487,206.766.2,141.9.355,141.9,0,42.6Z" transform="translate(0 0)" fill="#1eaf69" fill-rule="evenodd"/>
          <path id="Shape-12" data-name="Shape" d="M40.8,84.009,126.947,48l86.147,36.009v83.329q0,59.761-86.147,88.771-85.734-33.943-85.975-88.771Q41.1,167.338,40.8,84.009Z" transform="translate(-24.707 -29.067)" fill="#fff" fill-rule="evenodd"/>
          <path id="Shape-13" data-name="Shape" d="M40.8,84.009,126.947,48V256.109q-85.734-33.943-85.975-88.771Q41.1,167.338,40.8,84.009Z" transform="translate(-24.707 -29.067)" fill="#8ae6b9" fill-rule="evenodd"/>
          <path id="Shape-14" data-name="Shape" d="M230.681,209.95l11.956,10.3-54.231,62.98-41.3-30.532,9.38-12.687,29.517,21.824Z" transform="translate(-89.083 -127.136)" fill="#1eaf69"/>
        </g>
        <g id="Women" transform="translate(42.994 166.989)">
          <path id="Shape-15" data-name="Shape" d="M89.372,534H97.9v8.526H89.372Z" transform="translate(-54.12 -323.367)" fill="#f1b282" fill-rule="evenodd"/>
          <path id="Shape-16" data-name="Shape" d="M88.535,554H97.5l5.676,1.895c2.86,1.013,5.269,1.427,5.269,4.6a1.362,1.362,0,0,1-1.206,1.476H90.428a1.893,1.893,0,0,1-1.893-1.893Z" transform="translate(-53.613 -335.478)" fill="#102b5e" fill-rule="evenodd"/>
          <path id="Shape-17" data-name="Shape" d="M23.2,534h8.531v8.526H23.2Z" transform="translate(-14.048 -323.367)" fill="#f1b282" fill-rule="evenodd"/>
          <path id="Shape-18" data-name="Shape" d="M78.082,372.064h-11.1L54.148,258l27.947.691Z" transform="translate(-32.79 -156.233)" fill="#0b224e" fill-rule="evenodd"/>
          <path id="Shape-19" data-name="Shape" d="M22.361,554h8.96L37,555.895c2.86,1.013,5.269,1.427,5.269,4.6a1.362,1.362,0,0,1-1.206,1.476H24.254a1.893,1.893,0,0,1-1.893-1.893Z" transform="translate(-13.541 -335.478)" fill="#102b5e" fill-rule="evenodd"/>
          <path id="Shape-20" data-name="Shape" d="M112.208,77.548,90.443,88.756,77.821,74.645l34.387-9.805Z" transform="translate(-47.125 -39.264)" fill="#221e41" fill-rule="evenodd"/>
          <path id="Shape-21" data-name="Shape" d="M31.618,372.064h-11.1L24.32,258l27.947.691Z" transform="translate(-12.428 -156.233)" fill="#102b5e" fill-rule="evenodd"/>
          <path id="Shape-22" data-name="Shape" d="M55.7,81.272c9.787.856,14.98,15.363,15.61,19.981.838,6.14-2.218,12.473-2.218,12.473s-.931,13.8-2.794,41.4l-38.355-3.356,4.688-55.832,0-.058a16.567,16.567,0,0,1,17.947-15.06Z" transform="translate(-16.924 -48.905)" fill="#1b90fb" fill-rule="evenodd"/>
          <path id="Shape-23" data-name="Shape" d="M96.1,44.123Q94.79,48.6,90.772,46.837a8.5,8.5,0,0,1-5.11-5.595l1.092-4.381c-1.624-4.674-2-10.418.889-17.285s9.012-7.367,18.367-1.5q-1.125,6.288,1.295,8.619c2.42,2.331,1.246,3.651.138,3.878s-1.951.872-2.25,3.336-1.876,2.574-4.383,2.952Q98.3,37.24,96.1,44.123Z" transform="translate(-51.775 -8.491)" fill="#f1b282" fill-rule="evenodd"/>
          <path id="Shape-24" data-name="Shape" d="M75.444,24.134q3.6,5.448,6.992,2.577c3.4-2.871,2.5-4.978.829-5.62s-2.006-4.086,0-4.61,3.242,2.232,3.813,0-.368-4.531,2.235-4.531,8.669.983,9.871-3.012S97.225,0,90.245,0,76.725,3.438,74.11,9.522Q71.5,15.606,75.444,24.134Z" transform="translate(-44.247 0)" fill="#0b224e" fill-rule="evenodd"/>
          <path id="Shape-25" data-name="Shape" d="M31.224,20.107q-4.511-2.52-5.975,2.342C23.785,27.31,27.118,33.7,16.527,35.071S5.638,46.3,11.083,50.6Q-4.993,39.007,2.25,27.813c7.243-11.195,14.778-.627,18.243-9.06q3.465-8.434,12.7,0Z" transform="translate(0 -8.802)" fill="#0b224e" fill-rule="evenodd"/>
          <path id="Shape-26" data-name="Shape" d="M87.217,156.464l-.8-5.613-10.086-15.3-17.708,2.459,26.246,50.307Z" transform="translate(-35.496 -82.082)" fill="#1277d7" fill-rule="evenodd"/>
          <path id="Shape-27" data-name="Shape" d="M87.134,141.441l4.435,11.208q23.393,3.025,35.579,3.7a10.4,10.4,0,0,0,5.219-.844l1.185-2.618a1.676,1.676,0,0,1,1.555,1.789,1.634,1.634,0,0,1-.021.169l-.19,1.1q8.129.424,7.2,4.121t-9.321,3.9a11.03,11.03,0,0,1-4.808-1.216q-19.121.549-37.982,2.052a9.467,9.467,0,0,1-8.7-4.3L74.1,149.36Z" transform="translate(-44.87 -85.65)" fill="#f1b282" fill-rule="evenodd"/>
          <path id="Shape-28" data-name="Shape" d="M75.318,125.784l6.295,17.384q23.393,3.025,35.579,3.7l.822,6.4q-19.234.552-38.206,2.07a9.466,9.466,0,0,1-8.52-4.021L57.656,131.759Z" transform="translate(-34.914 -76.169)" fill="#1b90fb" fill-rule="evenodd"/>
        </g>
        <g id="logo" transform="translate(420 175)">
          <g id="logo-2" data-name="logo" transform="translate(0 0.001)">
            <g transform="matrix(1, 0, 0, 1, -426, -197)" filter="url(#Intersection_12)">
              <path id="Intersection_12-2" data-name="Intersection 12" d="M12,111A12,12,0,0,1,0,99V12A12,12,0,0,1,12,0H99a12,12,0,0,1,12,12V99a12,12,0,0,1-12,12Z" transform="translate(426 197)" fill="url(#linear-gradient-2)"/>
            </g>
            <path id="Path_211" data-name="Path 211" d="M5.19,2.157h59.6L76.008,12.481v38.7H57.451v-32.4H23.084v32.4H5.19V2.157ZM49.252,51.179H31.284V28.854H49.252Z" transform="translate(15.033 28.965)" fill="#fff" fill-rule="evenodd"/>
            <g id="Group_187" data-name="Group 187" transform="translate(20.278 31.122)" clip-path="url(#clip-path)">
              <g id="_1802908015824" transform="translate(40.472 16.591)">
                <path id="_1" d="M7.182,3.012l28.052-.039L7.361,6.827Z" transform="translate(-7.182 -2.973)" fill="gray" fill-rule="evenodd"/>
              </g>
            </g>
          </g>
        </g>
      </g>
    </g>
  </g>
</svg>
